<?xml version="1.0" encoding="utf-8"?>
<!-- Generator: Adobe Illustrator 27.7.0, SVG Export Plug-In . SVG Version: 6.00 Build 0)  -->
<svg version="1.1" id="Layer_1" xmlns="http://www.w3.org/2000/svg" xmlns:xlink="http://www.w3.org/1999/xlink" x="0px" y="0px"
	 viewBox="0 0 545.1 545.1" style="enable-background:new 0 0 545.1 545.1;" xml:space="preserve">
<style type="text/css">
	.st0{clip-path:url(#SVGID_00000098193959681146837800000016960829006038377393_);}
	.st1{fill:#FDC68E;}
	.st2{fill:#D18154;}
	.st3{fill:none;stroke:#000000;stroke-width:5;stroke-miterlimit:10;}
</style>
<g>
	<g id="Layer_2_00000008846018519320729270000008307198872009039257_">
		<g id="Layer_1-2">
			<g>
				<defs>
					<rect id="SVGID_1_" y="0" width="545.1" height="545.1"/>
				</defs>
				<clipPath id="SVGID_00000183928628819045776840000006630689550384404366_">
					<use xlink:href="#SVGID_1_"  style="overflow:visible;"/>
				</clipPath>
				<g style="clip-path:url(#SVGID_00000183928628819045776840000006630689550384404366_);">
					<g>
						<path class="st1" d="M254,241c3.3,12.2,21.7,28.5,17.7,54.1c-1.5,9.3-3.5,17.5-6,24.8c-11,31.7-7.4,39.2-38.3,47.5
							c-6.3,1.7-37.3,9.5-43.5,9.8c-43.7,2.6-84.7-25.7-96.4-69.6c-13.4-50.2,16.3-101.8,66.6-115.3c27.4-7.4,55.2-1.8,77.1,12.9
							C249.1,217.5,247.9,218.2,254,241L254,241z"/>
						<path class="st2" d="M222.5,368.6c-4,1.7-9.8,3.1-14.2,3.5c-11.3,1.1-20.9,4.9-24.6,5.1c-44.6,2.7-86.4-26.9-97.1-72.3
							c-6.4-26.9-0.3-54,14.4-75.3C99.5,286.1,111.1,370.7,222.5,368.6L222.5,368.6z"/>
						<path class="st3" d="M254,241c3.3,12.2,21.7,28.5,17.7,54.1c-1.5,9.3-3.5,17.5-6,24.8c-11,31.7-7.4,39.2-38.3,47.5
							c-6.3,1.7-37.3,9.5-43.5,9.8c-43.7,2.6-84.7-25.7-96.4-69.6c-13.4-50.2,16.3-101.8,66.6-115.3c27.4-7.4,55.2-1.8,77.1,12.9
							C249.1,217.5,247.9,218.2,254,241L254,241z"/>
					</g>
				</g>
			</g>
		</g>
	</g>
</g>
</svg>
