<svg width="546" height="546" viewBox="0 0 546 546" fill="none" xmlns="http://www.w3.org/2000/svg">
<g clip-path="url(#clip0_72_2062)">
<mask id="mask0_72_2062" style="mask-type:luminance" maskUnits="userSpaceOnUse" x="0" y="0" width="546" height="546">
<path d="M545.1 0H0V545.1H545.1V0Z" fill="white"/>
</mask>
<g mask="url(#mask0_72_2062)">
<path d="M254 241C257.3 253.2 275.7 269.5 271.7 295.1C270.2 304.4 268.2 312.6 265.7 319.9C254.7 351.6 258.3 359.1 227.4 367.4C221.1 369.1 190.1 376.9 183.9 377.2C140.2 379.8 99.2 351.5 87.5 307.6C74.1 257.4 103.8 205.8 154.1 192.3C181.5 184.9 209.3 190.5 231.2 205.2C249.1 217.5 247.9 218.2 254 241Z" fill="#FFC68E"/>
<path d="M222.5 368.6C218.5 370.3 212.7 371.7 208.3 372.1C197 373.2 187.4 377 183.7 377.2C139.1 379.9 97.3 350.3 86.6 304.9C80.2 278 86.3 250.9 101 229.6C99.5 286.1 111.1 370.7 222.5 368.6Z" fill="#D18154"/>
<path d="M254 241C257.3 253.2 275.7 269.5 271.7 295.1C270.2 304.4 268.2 312.6 265.7 319.9C254.7 351.6 258.3 359.1 227.4 367.4C221.1 369.1 190.1 376.9 183.9 377.2C140.2 379.8 99.2 351.5 87.5 307.6C74.1 257.4 103.8 205.8 154.1 192.3C181.5 184.9 209.3 190.5 231.2 205.2C249.1 217.5 247.9 218.2 254 241Z" stroke="black" stroke-width="5" stroke-miterlimit="10"/>
</g>
</g>
<defs>
<clipPath id="clip0_72_2062">
<rect width="545.1" height="545.1" fill="white"/>
</clipPath>
</defs>
</svg>
