<?xml version="1.0" encoding="utf-8"?>
<!-- Generator: Adobe Illustrator 27.7.0, SVG Export Plug-In . SVG Version: 6.00 Build 0)  -->
<svg version="1.1" id="Layer_1" xmlns="http://www.w3.org/2000/svg" xmlns:xlink="http://www.w3.org/1999/xlink" x="0px" y="0px"
	 viewBox="0 0 545.1 545.1" style="enable-background:new 0 0 545.1 545.1;" xml:space="preserve">
<style type="text/css">
	.st0{clip-path:url(#SVGID_00000081631406458060675140000017589694001189958072_);}
	.st1{fill:#FFC68E;}
	.st2{fill:#D18154;}
	.st3{fill:none;stroke:#000000;stroke-width:5;stroke-linecap:round;stroke-linejoin:round;}
</style>
<g>
	<g id="Layer_2_00000175315882334197610040000011491195529225770652_">
		<g id="Layer_1-2">
			<g>
				<defs>
					<rect id="SVGID_1_" y="0" width="545.1" height="545.1"/>
				</defs>
				<clipPath id="SVGID_00000116203103073813577330000017353837106789418663_">
					<use xlink:href="#SVGID_1_"  style="overflow:visible;"/>
				</clipPath>
				<g style="clip-path:url(#SVGID_00000116203103073813577330000017353837106789418663_);">
					<g>
						<path class="st1" d="M253.9,241c3.3,12.2,21.7,28.5,17.7,54.1c-7.9,49.6-31,68.9-69,79.1c-50.2,13.5-101.8-16.3-115.3-66.6
							c-4.6-17-4.2-34.1,0.3-49.9c2.3-8.2,5.8-16.1,10.2-23.3c12.1-20,31.7-35.5,56.1-42c27.4-7.4,55.2-1.8,77.1,12.9
							C249.1,217.5,247.9,218.2,253.9,241L253.9,241z"/>
						<path class="st2" d="M202.6,374.2c-50.2,13.4-101.8-16.4-115.2-66.6c-4.9-18.4-4.1-36.9,1.5-53.8
							C128.2,344.5,136.1,366,202.6,374.2z"/>
						<path class="st3" d="M253.9,241c3.3,12.2,21.7,28.5,17.7,54.1c-7.9,49.6-31,68.9-69,79.1c-50.2,13.5-101.8-16.3-115.3-66.6
							c-4.6-17-4.2-34.1,0.3-49.9c2.3-8.2,5.8-16.1,10.2-23.3c12.1-20,31.7-35.5,56.1-42c27.4-7.4,55.2-1.8,77.1,12.9
							C249.1,217.5,247.9,218.2,253.9,241L253.9,241z"/>
					</g>
				</g>
			</g>
		</g>
	</g>
</g>
</svg>
