<svg width="546" height="546" viewBox="0 0 546 546" fill="none" xmlns="http://www.w3.org/2000/svg">
<g clip-path="url(#clip0_72_2076)">
<mask id="mask0_72_2076" style="mask-type:luminance" maskUnits="userSpaceOnUse" x="0" y="0" width="546" height="546">
<path d="M545.1 0.0999756H0V545.2H545.1V0.0999756Z" fill="white"/>
</mask>
<g mask="url(#mask0_72_2076)">
<path d="M253.9 241.1C257.2 253.3 275.6 269.6 271.6 295.2C263.7 344.8 240.6 364.1 202.6 374.3C152.4 387.8 100.8 358 87.3 307.7C82.7 290.7 83.1 273.6 87.6 257.8C89.9 249.6 93.4 241.7 97.8 234.5C109.9 214.5 129.5 199 153.9 192.5C181.3 185.1 209.1 190.7 231 205.4C249.1 217.6 247.9 218.3 253.9 241.1Z" fill="#FFC68E"/>
<path d="M202.6 374.3C152.4 387.7 100.8 357.9 87.4 307.7C82.5 289.3 83.3 270.8 88.9 253.9C128.2 344.6 136.1 366.1 202.6 374.3Z" fill="#D18154"/>
<path d="M253.9 241.1C257.2 253.3 275.6 269.6 271.6 295.2C263.7 344.8 240.6 364.1 202.6 374.3C152.4 387.8 100.8 358 87.3 307.7C82.7 290.7 83.1 273.6 87.6 257.8C89.9 249.6 93.4 241.7 97.8 234.5C109.9 214.5 129.5 199 153.9 192.5C181.3 185.1 209.1 190.7 231 205.4C249.1 217.6 247.9 218.3 253.9 241.1Z" stroke="black" stroke-width="5" stroke-linecap="round" stroke-linejoin="round"/>
</g>
</g>
<defs>
<clipPath id="clip0_72_2076">
<rect width="545.1" height="545.1" fill="white" transform="translate(0 0.0999756)"/>
</clipPath>
</defs>
</svg>
