<svg width="546" height="546" viewBox="0 0 546 546" fill="none" xmlns="http://www.w3.org/2000/svg">
<g clip-path="url(#clip0_72_2090)">
<mask id="mask0_72_2090" style="mask-type:luminance" maskUnits="userSpaceOnUse" x="0" y="0" width="546" height="546">
<path d="M545.1 0.199951H0V545.3H545.1V0.199951Z" fill="white"/>
</mask>
<g mask="url(#mask0_72_2090)">
<path d="M270.4 337.7C266.5 340.3 262.9 343.4 259.4 346.5L250.7 354.1L237.9 364.7C234.4 367.6 230.6 369.9 226.4 371.6C222.4 373.3 218.1 374.3 213.7 374.7C202.4 375.8 187.5 377.1 183.8 377.3C139.2 380 97.4 350.4 86.7 305C80.3 278.1 86.4 251 101.1 229.7C113.4 212 131.7 198.4 154 192.4C181.4 185.1 209.2 190.6 231 205.3C249.1 217.5 247.9 218.2 254 241C257.3 253.2 275.7 269.5 271.7 295.1C270.8 300.7 271.9 314.1 272.8 323.7C273.4 329.8 275.5 334.2 270.4 337.7Z" fill="#FFC68E" stroke="black" stroke-width="5" stroke-linecap="round" stroke-linejoin="round"/>
<path d="M250.6 354.1C250.6 354.1 262.3 345.5 256.1 336.8" stroke="black" stroke-width="5" stroke-linecap="round" stroke-linejoin="round"/>
<path d="M226.4 371.6C222.4 373.3 218.1 374.3 213.7 374.7C202.4 375.8 187.5 377.1 183.8 377.3C139.2 380 97.4 350.4 86.7 305C80.3 278.1 86.4 251 101.1 229.7C99.5 286.3 115 373.7 226.4 371.6Z" fill="#D18154"/>
<path d="M270.4 337.7C266.5 340.3 262.9 343.4 259.4 346.5L250.7 354.1L237.9 364.7C234.4 367.6 230.6 369.9 226.4 371.6C222.4 373.3 218.1 374.3 213.7 374.7C202.4 375.8 187.5 377.1 183.8 377.3C139.2 380 97.4 350.4 86.7 305C80.3 278.1 86.4 251 101.1 229.7C113.4 212 131.7 198.4 154 192.4C181.4 185.1 209.2 190.6 231 205.3C249.1 217.5 247.9 218.2 254 241C257.3 253.2 275.7 269.5 271.7 295.1C270.8 300.7 271.9 314.1 272.8 323.7C273.4 329.8 275.5 334.2 270.4 337.7Z" stroke="black" stroke-width="5" stroke-miterlimit="10"/>
</g>
</g>
<defs>
<clipPath id="clip0_72_2090">
<rect width="545.1" height="545.1" fill="white" transform="translate(0 0.199951)"/>
</clipPath>
</defs>
</svg>
