<?xml version="1.0" encoding="utf-8"?>
<!-- Generator: Adobe Illustrator 27.7.0, SVG Export Plug-In . SVG Version: 6.00 Build 0)  -->
<svg version="1.1" id="Layer_1" xmlns="http://www.w3.org/2000/svg" xmlns:xlink="http://www.w3.org/1999/xlink" x="0px" y="0px"
	 viewBox="0 0 545.1 545.1" style="enable-background:new 0 0 545.1 545.1;" xml:space="preserve">
<style type="text/css">
	.st0{clip-path:url(#SVGID_00000098943704689519067000000010099150466734115714_);}
	.st1{fill:#FFC68E;stroke:#000000;stroke-width:5;stroke-linecap:round;stroke-linejoin:round;}
	.st2{fill:none;stroke:#000000;stroke-width:5;stroke-linecap:round;stroke-linejoin:round;}
	.st3{fill:#D18154;}
	.st4{fill:none;stroke:#000000;stroke-width:5;stroke-miterlimit:10;}
</style>
<g>
	<g id="Layer_2_00000106118085222125276970000010517428703227900078_">
		<g id="Layer_1-2">
			<g>
				<defs>
					<rect id="SVGID_1_" y="0" width="545.1" height="545.1"/>
				</defs>
				<clipPath id="SVGID_00000009569751358052033090000010341522920507243671_">
					<use xlink:href="#SVGID_1_"  style="overflow:visible;"/>
				</clipPath>
				<g style="clip-path:url(#SVGID_00000009569751358052033090000010341522920507243671_);">
					<g>
						<path class="st1" d="M270.4,337.5c-3.9,2.6-7.5,5.7-11,8.8l-8.7,7.6l-12.8,10.6c-3.5,2.9-7.3,5.2-11.5,6.9
							c-4,1.7-8.3,2.7-12.7,3.1c-11.3,1.1-26.2,2.4-29.9,2.6c-44.6,2.7-86.4-26.9-97.1-72.3c-6.4-26.9-0.3-54,14.4-75.3
							c12.3-17.7,30.6-31.3,52.9-37.3c27.4-7.3,55.2-1.8,77,12.9c18.1,12.2,16.9,12.9,23,35.7c3.3,12.2,21.7,28.5,17.7,54.1
							c-0.9,5.6,0.2,19,1.1,28.6C273.4,329.6,275.5,334,270.4,337.5z"/>
						<path class="st2" d="M250.6,353.9c0,0,11.7-8.6,5.5-17.3"/>
						<path class="st3" d="M226.4,371.4c-4,1.7-8.3,2.7-12.7,3.1c-11.3,1.1-26.2,2.4-29.9,2.6c-44.6,2.7-86.4-26.9-97.1-72.3
							c-6.4-26.9-0.3-54,14.4-75.3C99.5,286.1,115,373.5,226.4,371.4L226.4,371.4z"/>
						<path class="st4" d="M270.4,337.5c-3.9,2.6-7.5,5.7-11,8.8l-8.7,7.6l-12.8,10.6c-3.5,2.9-7.3,5.2-11.5,6.9
							c-4,1.7-8.3,2.7-12.7,3.1c-11.3,1.1-26.2,2.4-29.9,2.6c-44.6,2.7-86.4-26.9-97.1-72.3c-6.4-26.9-0.3-54,14.4-75.3
							c12.3-17.7,30.6-31.3,52.9-37.3c27.4-7.3,55.2-1.8,77,12.9c18.1,12.2,16.9,12.9,23,35.7c3.3,12.2,21.7,28.5,17.7,54.1
							c-0.9,5.6,0.2,19,1.1,28.6C273.4,329.6,275.5,334,270.4,337.5z"/>
					</g>
				</g>
			</g>
		</g>
	</g>
</g>
</svg>
