<?xml version="1.0" encoding="utf-8"?>
<!-- Generator: Adobe Illustrator 27.8.1, SVG Export Plug-In . SVG Version: 6.00 Build 0)  -->
<svg version="1.1" id="Layer_1" xmlns="http://www.w3.org/2000/svg" xmlns:xlink="http://www.w3.org/1999/xlink" x="0px" y="0px"
	 viewBox="0 0 545.1 545.1" style="enable-background:new 0 0 545.1 545.1;" xml:space="preserve">
<style type="text/css">
	.st0{clip-path:url(#SVGID_00000023271422326135172690000015065347162051947437_);}
	.st1{fill:#301ECA;stroke:#000000;stroke-width:5;stroke-linecap:round;stroke-linejoin:round;}
	.st2{fill:#1F057C;}
	.st3{fill:none;stroke:#000000;stroke-width:5;stroke-miterlimit:10;}
	.st4{fill:#009DC7;stroke:#000000;stroke-width:5;stroke-linecap:round;stroke-linejoin:round;}
	.st5{fill:none;stroke:#000000;stroke-width:5;stroke-linecap:round;stroke-linejoin:round;}
	.st6{fill:#BE00AD;}
	.st7{fill:#EEF7F8;stroke:#000000;stroke-width:5;stroke-miterlimit:10;}
	.st8{fill:#BBBABA;}
	.st9{fill:#FF347B;stroke:#000000;stroke-width:5;stroke-linecap:round;stroke-linejoin:round;}
	.st10{fill:#FF001C;stroke:#000000;stroke-width:5;stroke-linecap:round;stroke-linejoin:round;}
	.st11{fill:#FFC68E;stroke:#000000;stroke-width:5;stroke-linecap:round;stroke-linejoin:round;}
</style>
<g>
	<g id="Layer_2_00000048487885024552578570000007479261810531223471_">
		<g id="Layer_1-2">
			<g>
				<g>
					<defs>
						<rect id="SVGID_1_" y="0" width="545.1" height="545.1"/>
					</defs>
					<clipPath id="SVGID_00000003081153464735684510000015968313075732782984_">
						<use xlink:href="#SVGID_1_"  style="overflow:visible;"/>
					</clipPath>
					<g style="clip-path:url(#SVGID_00000003081153464735684510000015968313075732782984_);">
						<g>
							<g>
								<path class="st1" d="M132.3,246.3c6.5,6.2-1.4,8-3.2,17.8c-1.8,9.8,3.7,14.9-3.2,17.8c-7.4,3.1-12.9-10.5-11.1-20.4
									C116.5,251.7,126.4,240.7,132.3,246.3L132.3,246.3z"/>
								<path class="st2" d="M118.7,252c-1.5,17.4,3.1,20.7,10.7,24.2c0.2,2.5-0.4,4.4-3.6,5.7c-7.4,3.1-12.9-10.5-11.1-20.4
									C115.3,258.2,116.8,254.8,118.7,252L118.7,252z"/>
								<path class="st3" d="M132.3,246.3c6.5,6.2-1.4,8-3.2,17.8c-1.8,9.8,3.7,14.9-3.2,17.8c-7.4,3.1-12.9-10.5-11.1-20.4
									C116.5,251.7,126.4,240.7,132.3,246.3L132.3,246.3z"/>
							</g>
							<g>
								<g>
									<path class="st4" d="M288,218c-7.1,2.2-6.2-5.2-13.8-11.7c-0.1-0.1-0.2-0.1-0.2-0.2c-7.5-6.2-14.6-2.6-13.5-11.5
										c0.5-3.8,3.9-5.3,8.3-5.1c4.9,0.1,10.9,2.3,14.9,5.7C291.3,201.6,295.7,215.6,288,218L288,218z"/>
									<path class="st1" d="M288,218c-7.1,2.2-6.2-5.2-13.8-11.7c-0.1-0.1-0.2-0.1-0.2-0.2c-7.5-6.2-14.6-2.6-13.5-11.5
										c0.5-3.8,3.9-5.3,8.3-5.1c4.9,0.1,10.9,2.3,14.9,5.7C291.3,201.6,295.7,215.6,288,218L288,218z"/>
								</g>
								<path class="st2" d="M274,206.1c-7.5-6.2-14.6-2.6-13.5-11.5c0.5-3.8,5.8-6.3,12.9-4.5C264.9,193.5,267.1,200.4,274,206.1
									L274,206.1z"/>
								<g>
									<path class="st5" d="M288,218c-7.1,2.2-6.2-5.2-13.8-11.7c-0.1-0.1-0.2-0.1-0.2-0.2c-7.5-6.2-14.6-2.6-13.5-11.5
										c0.5-3.8,3.9-5.3,8.3-5.1c4.9,0.1,10.9,2.3,14.9,5.7C291.3,201.6,295.7,215.6,288,218L288,218z"/>
									<path class="st5" d="M288,218c-7.1,2.2-6.2-5.2-13.8-11.7c-0.1-0.1-0.2-0.1-0.2-0.2c-7.5-6.2-14.6-2.6-13.5-11.5
										c0.5-3.8,3.9-5.3,8.3-5.1c4.9,0.1,10.9,2.3,14.9,5.7C291.3,201.6,295.7,215.6,288,218L288,218z"/>
								</g>
							</g>
							<g>
								<path class="st6" d="M178.1,300.2c-3.2-1-6.5-1.1-9.6-0.3c-3.1,0.8-5.9,2.6-8.2,5.1c-1.3,1.4-2.8,2.4-4.4,3
									c-6,2.2-13.2-0.9-15-7.7c0-0.1-0.1-0.2-0.1-0.3c-4.4-16.7,2.7-33.4,8.6-43c2.8-4.5,0.9-6.9,5.4-8.1
									c14.3-3.8,31.1,12.9,37.7,37.3c0,0.1,0.1,0.2,0.1,0.3C194.8,295,186.6,302.8,178.1,300.2L178.1,300.2z"/>
								<path class="st7" d="M182.1,295.2c-3.2-1-6.5-1.1-9.6-0.3c-3.1,0.8-5.9,2.6-8.2,5.1c-1.3,1.4-2.8,2.4-4.4,3
									c-6,2.2-13.2-0.9-15-7.7c0-0.1-0.1-0.2-0.1-0.3c-4.4-16.7-2.9-32.6,3-42.3c2.8-4.5,6.5-7.6,11-8.9
									c14.3-3.8,31.1,12.9,37.7,37.3c0,0.1,0.1,0.2,0.1,0.3C198.8,290,190.6,297.8,182.1,295.2L182.1,295.2z"/>
								<path class="st8" d="M159.9,302.9c-6,2.2-13.2-0.9-15-7.7c0-0.1-0.1-0.2-0.1-0.3c-4.4-16.7-2.9-32.6,3-42.3
									C146.3,284.6,151,295,159.9,302.9L159.9,302.9z"/>
								<path class="st3" d="M182.1,295.2c-3.2-1-6.5-1.1-9.6-0.3c-3.1,0.8-5.9,2.6-8.2,5.1c-1.3,1.4-2.8,2.4-4.4,3
									c-6,2.2-13.2-0.9-15-7.7c0-0.1-0.1-0.2-0.1-0.3c-4.4-16.7-2.9-32.6,3-42.3c2.8-4.5,6.5-7.6,11-8.9
									c14.3-3.8,31.1,12.9,37.7,37.3c0,0.1,0.1,0.2,0.1,0.3C198.8,290,190.6,297.8,182.1,295.2L182.1,295.2z"/>
							</g>
							<g>
								<path class="st6" d="M255.6,252.2c-3.9,2.3-6.7,6.1-8.2,10.9c-2.2,7-12.6,7.5-16.2,1.1c-0.1-0.1-0.1-0.2-0.2-0.3
									c-12.6-21.9-11.6-38.3-1.2-50.7C239.4,202,259.6,249.9,255.6,252.2L255.6,252.2z"/>
								<path class="st7" d="M272.2,245.6c-5-1.1-9.6-0.6-13.6,1.6c-3.6,2.1-6.2,5.4-7.8,9.7c-0.2,0.4-0.3,0.8-0.4,1.2
									c-2.2,7-12.6,7.5-16.2,1.1c-0.1-0.1-0.1-0.2-0.1-0.3c-10.2-17.7-13-35-7-44.9c1.4-2.4,3.4-4.3,5.9-5.7
									c12.8-7.4,33.4,4.5,46,26.4c0.1,0.1,0.1,0.2,0.2,0.3C282.6,241.3,279.4,247.2,272.2,245.6L272.2,245.6z"/>
								<path class="st8" d="M250.8,256.9c-0.2,0.4-0.3,0.8-0.4,1.2c-2.2,7-12.6,7.5-16.2,1.1c-0.1-0.1-0.1-0.2-0.1-0.3
									c-10.2-17.7-13-35-7-44.9C228,234,233.1,254.6,250.8,256.9L250.8,256.9z"/>
								<path class="st3" d="M272.2,245.6c-5-1.1-9.6-0.6-13.6,1.6c-3.6,2.1-6.2,5.4-7.8,9.7c-0.2,0.4-0.3,0.8-0.4,1.2
									c-2.2,7-12.6,7.5-16.2,1.1c-0.1-0.1-0.1-0.2-0.1-0.3c-10.2-17.7-13-35-7-44.9c1.4-2.4,3.4-4.3,5.9-5.7
									c12.8-7.4,33.4,4.5,46,26.4c0.1,0.1,0.1,0.2,0.2,0.3C282.6,241.3,279.4,247.2,272.2,245.6L272.2,245.6z"/>
							</g>
							<g>
								<path class="st9" d="M250.6,284c0,10.8-3.6,19.7-10.5,23.1c-10.1,5-21.7-3.7-29.5-19.7c-0.8-1.6-1.5-3.2-2.2-5
									c0-0.1-0.1-0.2-0.1-0.2c-2.2-5.5,3.3-12.5,8.8-10.8c3.9,1.2,7.7,1.1,11.1-0.6c3.4-1.7,6-4.7,7.8-8.7
									c2.5-5.7,7.9-5.2,10.1,0.3c0,0.1,0.1,0.2,0.1,0.2C249.2,269.9,250.6,277.3,250.6,284L250.6,284z"/>
								<path class="st10" d="M250.6,284c0,10.8-3.6,19.7-10.5,23.1c-10.1,5-21.7-3.7-29.5-19.7c6.2-6,13.8-9.5,22-9.5
									C239.2,277.9,245.3,280.1,250.6,284L250.6,284z"/>
							</g>
						</g>
					</g>
				</g>
			</g>
		</g>
	</g>
</g>
<g>
	<path class="st11" d="M219.5,260.4c-3.7-2.1-5-6.9-2.9-10.6s6.9-5,10.6-2.9s5,6.9,2.9,10.6"/>
</g>
</svg>
