<?xml version="1.0" encoding="utf-8"?>
<!-- Generator: Adobe Illustrator 27.8.1, SVG Export Plug-In . SVG Version: 6.00 Build 0)  -->
<svg version="1.1" id="Layer_1" xmlns="http://www.w3.org/2000/svg" xmlns:xlink="http://www.w3.org/1999/xlink" x="0px" y="0px"
	 viewBox="0 0 545.1 545.1" style="enable-background:new 0 0 545.1 545.1;" xml:space="preserve">
<style type="text/css">
	.st0{clip-path:url(#SVGID_00000065790876212777401870000011130123021547040397_);}
	.st1{fill:#FFAB00;}
	.st2{fill:none;stroke:#000000;stroke-width:5;stroke-linecap:round;stroke-linejoin:round;}
	
		.st3{fill:url(#SVGID_00000072958868842015192120000015026271684703749781_);stroke:#000000;stroke-width:5;stroke-linecap:round;stroke-linejoin:round;}
	.st4{fill:url(#SVGID_00000030459664082457741160000013077581493870095519_);}
	.st5{fill:#FF347B;}
	.st6{fill:#FF001C;}
	.st7{fill:#E02049;}
	.st8{fill:#CE0000;}
	.st9{fill:#0026E9;stroke:#000000;stroke-width:5;stroke-linecap:round;stroke-linejoin:round;}
	.st10{fill:#0C00AA;}
	.st11{fill:none;stroke:#FF001C;stroke-width:5;stroke-linecap:round;stroke-linejoin:round;}
	.st12{fill:#FFC68E;stroke:#000000;stroke-width:5;stroke-linecap:round;stroke-linejoin:round;}
</style>
<g>
	<g id="Layer_2_00000172399849443365999860000012762073207978218162_">
		<g id="Layer_1-2">
			<g>
				<g>
					<g>
						<defs>
							<rect id="SVGID_1_" y="0" width="545.1" height="545.1"/>
						</defs>
						<clipPath id="SVGID_00000158747157475860940890000007249703201445072831_">
							<use xlink:href="#SVGID_1_"  style="overflow:visible;"/>
						</clipPath>
						<g style="clip-path:url(#SVGID_00000158747157475860940890000007249703201445072831_);">
							<g>
								<g>
									<path class="st1" d="M152.4,269.1c0,0-5.7-0.5-15.1,12.3C127,288,89.2,304,89.2,304s0.4,6.4,17.1-0.9s28.4-13.9,55.8-9.1
										c27.4,4.7,8.5-16.3,8.1-16.3S152.4,269.1,152.4,269.1L152.4,269.1z"/>
									<g>
										<path class="st2" d="M94.6,301.6l33.8-14.1c4-1.7,7.6-4.3,10.4-7.6l5.7-6.7"/>
										<path class="st2" d="M151.9,291.2l-7.9-0.7c-4.4-0.3-8.7,0.4-12.7,2l-26.8,11.2"/>
									</g>
									<g>
										
											<linearGradient id="SVGID_00000142165663018307844270000005328104055382334339_" gradientUnits="userSpaceOnUse" x1="142.3415" y1="-8.8461" x2="285.4126" y2="-8.8461" gradientTransform="matrix(1 0 0 -1 0 249.8897)">
											<stop  offset="0" style="stop-color:#FF0028"/>
											<stop  offset="1" style="stop-color:#FFAB00"/>
										</linearGradient>
										
											<path style="fill:url(#SVGID_00000142165663018307844270000005328104055382334339_);stroke:#000000;stroke-width:5;stroke-linecap:round;stroke-linejoin:round;" d="
											M216.5,254.1c-3.3-8.3-7.9-15.5-13.2-21.2c-9.8-10.5-22.2-16.2-33.6-14.8c-2.3,0.3-4.6,0.8-6.8,1.7
											c-19.1,7.6-26.2,35.2-15.7,61.7c5.3,13.5,14.2,24.1,24.1,30.3c9.6,5.9,20.1,7.8,29.5,4c3.1-1.2,5.8-2.9,8.2-5.1
											C221.8,299.4,225.3,276.4,216.5,254.1L216.5,254.1z M281,231.1c-1.1-2.9-2.4-5.6-3.9-8.1c-7.6-13.5-18.9-22.3-29.5-23.2
											c-3-0.3-6,0.1-8.8,1.2c-14.5,5.7-19.1,28.4-10.2,50.8c5,12.7,13.3,22.5,22.1,27.6c6.7,3.9,13.8,5,20,2.5
											c4.5-1.8,8-5.2,10.5-9.7C286.7,262,287,246.5,281,231.1z"/>
										
											<linearGradient id="SVGID_00000068661813691184555930000010755990947331334539_" gradientUnits="userSpaceOnUse" x1="169.7" y1="554.712" x2="277" y2="554.712" gradientTransform="matrix(1 0 0 1 0 -296.0001)">
											<stop  offset="0" style="stop-color:#FF5118"/>
											<stop  offset="1" style="stop-color:#FFCF00"/>
										</linearGradient>
										<path style="fill:url(#SVGID_00000068661813691184555930000010755990947331334539_);" d="M277,277.8
											c-2.5,4.5-1.7,2.3-6.2,4c-6.2,2.5-13.3,1.4-20-2.5l-3.1-79.6c10.6,0.9,17.7,3.1,25.2,16.6L277,277.8L277,277.8z
											 M209,310.7c-2.4,2.2-5.2,3.9-8.2,5.1c-9.4,3.7-20,1.9-29.5-4l-1.6-93.7c11.5-1.4,23.8,4.3,33.6,14.8
											C205,257.9,207.2,287.6,209,310.7L209,310.7z"/>
										<path class="st2" d="M216.5,254.1c-3.3-8.3-7.9-15.5-13.2-21.2c-9.8-10.5-22.2-16.2-33.6-14.8c-2.3,0.3-4.6,0.8-6.8,1.7
											c-19.1,7.6-26.2,35.2-15.7,61.7c5.3,13.5,14.2,24.1,24.1,30.3c9.6,5.9,20.1,7.8,29.5,4c3.1-1.2,5.8-2.9,8.2-5.1
											C221.8,299.4,225.3,276.4,216.5,254.1L216.5,254.1z M281,231.1c-8.8-22.3-27.7-35.8-42.2-30.1s-19.1,28.4-10.2,50.8
											c8.8,22.3,27.7,35.8,42.2,30.1C285.2,276.1,289.8,253.4,281,231.1L281,231.1z"/>
									</g>
									<line class="st2" x1="207.1" y1="243.4" x2="228.1" y2="235.7"/>
								</g>
								<g>
									<path class="st5" d="M252.8,323.4c-0.2,0.1-0.3,0.1-0.5,0.2c-10.2,4-20.3,13-26.9,16c-3.4,1.5-5.9,1.5-7-1.4
										c-1.8-4.6,0-15.4,4.3-25.5c3.9-9.2,9.9-17.8,17.2-20.7c0.8-0.3,1.7-0.6,2.5-0.7c14.4-3,28.2,16.8,31.5,25
										C277.2,324.9,267.9,317.7,252.8,323.4L252.8,323.4z"/>
									<path class="st6" d="M252.8,323.4c-0.2,0.1-0.3,0.1-0.5,0.2c-15.3,6-30.5,23.4-34,14.6c-1.8-4.6,0-15.4,4.3-25.5
										C240.6,305.7,250.4,308.2,252.8,323.4L252.8,323.4z"/>
									<path class="st7" d="M242.3,291.3c-15.9,20.7-19.7,35.1-16.9,48.3c-3.4,1.5-5.9,1.5-7-1.4c-1.8-4.6,0-15.4,4.3-25.5
										c3.9-9.2,9.9-17.8,17.2-20.7C240.7,291.7,241.5,291.5,242.3,291.3z"/>
									<path class="st6" d="M252.8,323.4c-0.2,0.1-0.3,0.1-0.5,0.2c-10.2,4-20.3,13-27,16c-0.4,0.2-0.7,0.3-1,0.4s-0.7,0.2-1,0.3
										c-0.2,0-0.3,0.1-0.5,0.1s-0.4,0.1-0.6,0.1h-0.1c-0.2,0-0.4,0-0.5,0c-1.5,0-2.6-0.7-3.3-2.4c-1.8-4.6,0-15.4,4.3-25.5
										c2.7-1,5.2-1.9,7.5-2.5C243.4,306.7,250.7,310.4,252.8,323.4z"/>
									<path class="st8" d="M225.4,339.6c-0.4,0.2-0.7,0.3-1,0.4s-0.7,0.2-1,0.3c-0.2,0-0.3,0.1-0.5,0.1s-0.4,0.1-0.6,0.1h-0.1
										c-0.2,0-0.4,0-0.5,0c-1.5,0-2.6-0.7-3.3-2.4c-1.8-4.6,0-15.4,4.3-25.5c2.7-1,5.2-1.9,7.5-2.5
										C224.6,321.5,223.6,330.8,225.4,339.6z"/>
									<path class="st2" d="M252.8,323.4c-0.2,0.1-0.3,0.1-0.5,0.2c-15.3,6-30.5,23.4-34,14.6c-1.8-4.6,0-15.4,4.3-25.5
										C240.6,305.7,250.4,308.2,252.8,323.4L252.8,323.4z"/>
									<path class="st2" d="M252.8,323.4c-0.2,0.1-0.3,0.1-0.5,0.2c-15.3,6-30.5,23.4-34,14.6c-1.8-4.6,0-15.4,4.3-25.5
										c3.9-9.2,9.9-17.8,17.2-20.7c15.3-6,30.5,15.6,34,24.3C277.2,325,267.9,317.7,252.8,323.4z"/>
								</g>
								<g>
									<path class="st9" d="M132.1,223.7c-1.5,1.5-2.6,3-3.5,4.4c-2.8,4.3-2.9,7.1-5,5.1c-2.7-2.7-7.5-12.7-1.2-19.1
										c1-1,2.3-1.9,3.7-2.6c7.2-3.7,18.2-3.5,20.4-1.2C149.2,212.9,138.4,217.4,132.1,223.7z"/>
									<path class="st10" d="M128.5,228.1c-2.8,4.3-2.9,7.1-5,5.1c-2.7-2.7-7.5-12.7-1.2-19.1c1-1,2.3-1.9,3.7-2.6
										C126.1,217.7,127,223.8,128.5,228.1z"/>
									<path class="st2" d="M132.1,223.7c-1.5,1.5-2.6,3-3.5,4.4c-2.8,4.3-2.9,7.1-5,5.1c-2.7-2.7-7.5-12.7-1.2-19.1
										c1-1,2.3-1.9,3.7-2.6c7.2-3.7,18.2-3.5,20.4-1.2C149.2,212.9,138.4,217.4,132.1,223.7z"/>
								</g>
								<g>
									<path class="st9" d="M275.2,184c0,3.6-2.2,2-10,1.8c-0.5,0-0.9,0-1.4,0c-9,0-21.1,1.9-21.1-1.8c0-3.6,10.8-10.9,19.6-11.7
										c0.5-0.1,1-0.1,1.5-0.1C272.8,172.2,275.2,180.2,275.2,184L275.2,184z"/>
									<path class="st10" d="M275.2,184c0,3.6-2.2,2-10,1.8c-0.4-4.2-1-9.4-2.9-13.6c0.5-0.1,1-0.1,1.5-0.1
										C272.8,172.2,275.2,180.2,275.2,184z"/>
									<path class="st2" d="M275.2,184c0,3.6-2.2,2-10,1.8c-0.5,0-0.9,0-1.4,0c-9,0-21.1,1.9-21.1-1.8c0-3.6,10.8-10.9,19.6-11.7
										c0.5-0.1,1-0.1,1.5-0.1C272.8,172.2,275.2,180.2,275.2,184L275.2,184z"/>
								</g>
								<g>
									<polyline class="st11" points="104.6,249.5 113.6,259.1 103.1,270.9 									"/>
									<polyline class="st11" points="128.9,241.9 119,253 110,243.6 									"/>
									<polyline class="st11" points="134.3,268.7 124.2,258.2 134.1,246.8 									"/>
									<polyline class="st11" points="108,276.7 118.7,264.5 128.7,275.4 									"/>
								</g>
							</g>
						</g>
					</g>
				</g>
			</g>
		</g>
	</g>
</g>
<g>
	<path class="st12" d="M219.5,260.4c-3.7-2.1-5-6.9-2.9-10.6s6.9-5,10.6-2.9s5,6.9,2.9,10.6"/>
</g>
</svg>
