<?xml version="1.0" encoding="utf-8"?>
<!-- Generator: Adobe Illustrator 27.8.1, SVG Export Plug-In . SVG Version: 6.00 Build 0)  -->
<svg version="1.1" id="Layer_1" xmlns="http://www.w3.org/2000/svg" xmlns:xlink="http://www.w3.org/1999/xlink" x="0px" y="0px"
	 viewBox="0 0 545.1 545.1" style="enable-background:new 0 0 545.1 545.1;" xml:space="preserve">
<style type="text/css">
	.st0{clip-path:url(#SVGID_00000181775659736596010440000009027151092438455224_);}
	.st1{fill:#FF5DFF;}
	.st2{fill:#EEF7F8;stroke:#000000;stroke-width:4.9999;stroke-miterlimit:9.9997;}
	.st3{fill:#BBBABA;}
	.st4{fill:none;stroke:#000000;stroke-width:4.9999;stroke-miterlimit:9.9997;}
	.st5{fill:none;stroke:#000000;stroke-width:5;stroke-linecap:round;stroke-miterlimit:10;}
	.st6{fill:#EEF7F8;stroke:#000000;stroke-width:4.9999;stroke-miterlimit:9.9999;}
	.st7{fill:none;stroke:#000000;stroke-width:4.9999;stroke-miterlimit:9.9999;}
	.st8{fill:#F04A7C;stroke:#000000;stroke-width:5;stroke-miterlimit:10;}
	.st9{fill:#FF002F;stroke:#000000;stroke-width:5;stroke-miterlimit:10;}
	.st10{fill:#EEF7F8;stroke:#000000;stroke-width:5;stroke-linecap:round;stroke-linejoin:round;}
	.st11{fill:#FF5DFF;stroke:#000000;stroke-width:5;stroke-linecap:round;stroke-linejoin:round;}
	.st12{fill:#EF41CE;}
	.st13{fill:none;stroke:#000000;stroke-width:5;stroke-miterlimit:10;}
	.st14{fill:none;stroke:#000000;stroke-width:5;stroke-linecap:round;stroke-linejoin:round;stroke-miterlimit:10;}
	.st15{fill:#FFC68E;stroke:#000000;stroke-width:5;stroke-linecap:round;stroke-linejoin:round;}
</style>
<g>
	<g id="Layer_2_00000072996098887708139400000000710635653520648860_">
		<g id="Layer_1-2">
			<g>
				<g>
					<defs>
						<rect id="SVGID_1_" y="0" width="545.1" height="545.1"/>
					</defs>
					<clipPath id="SVGID_00000106111604399525496670000010755520859602597526_">
						<use xlink:href="#SVGID_1_"  style="overflow:visible;"/>
					</clipPath>
					<g style="clip-path:url(#SVGID_00000106111604399525496670000010755520859602597526_);">
						<g>
							<g>
								
									<ellipse transform="matrix(0.9659 -0.2588 0.2588 0.9659 -68.0329 51.5836)" class="st1" cx="161.9" cy="284.2" rx="25.2" ry="41.9"/>
								
									<ellipse transform="matrix(0.9659 -0.2588 0.2588 0.9659 -66.1188 51.3276)" class="st2" cx="161.9" cy="276.8" rx="25.2" ry="41.9"/>
								<path class="st3" d="M188.1,294c-2.2,18.7-13.3,22.7-15.4,23.2c-13.5,3.6-29.2-11.6-35.2-33.9c-2.9-10.9-3-21.5-0.7-29.9
									C137.5,283.4,161.1,328.5,188.1,294L188.1,294z"/>
								
									<ellipse transform="matrix(0.9659 -0.2588 0.2588 0.9659 -66.1188 51.3276)" class="st4" cx="161.9" cy="276.8" rx="25.2" ry="41.9"/>
							</g>
							<g>
								<g>
									<path class="st1" d="M272.2,288.2c-1.7,1.4-3.7,2.4-5.8,2.9c-13.5,3.6-29.2-11.6-35.2-33.9c-5.3-19.8-1.1-38.6,9.2-45.1
										c8.4,6.8,8.7,11.2,13.5,28.9C256.9,252,272.4,266.5,272.2,288.2L272.2,288.2z"/>
									<path class="st5" d="M253.9,241c3.3,12.2,21.7,28.5,17.7,54.1"/>
								</g>
								
									<ellipse transform="matrix(0.9127 -0.4086 0.4086 0.9127 -78.3498 125.0399)" class="st6" cx="253.5" cy="245.9" rx="25.3" ry="41.8"/>
								<path class="st3" d="M282.1,259.1c0.3,11.6-3.6,21.1-11.2,24.8c-12.6,6-30.6-6.1-40.2-27c-5.6-12.3-7.2-24.9-4.9-34.4
									c3.6,15.9-0.1,20.4,19.1,43S279.8,264.4,282.1,259.1L282.1,259.1z"/>
								
									<ellipse transform="matrix(0.9127 -0.4086 0.4086 0.9127 -78.3498 125.0399)" class="st7" cx="253.5" cy="245.9" rx="25.3" ry="41.8"/>
							</g>
							<g>
								<path class="st8" d="M222.9,277.3c-15-10.8-27.4-10.5-22.1,14.4s24,51.3,36.7,33.6s12-40.4,9.5-51.3s-7.6-11.8-12.4-1.1
									S222.9,277.3,222.9,277.3L222.9,277.3z"/>
								<path class="st9" d="M242.7,316.3c-1.4,3.1-3.1,6.1-5.2,9c-9.5,13.3-22.4,1.8-30.5-15.2
									C221.6,304.3,233.9,307.4,242.7,316.3z"/>
								<g>
									<path class="st10" d="M225.7,278.8l1.1,4c1,3.6-1.2,7.3-4.8,8.3s-7.3-1.2-8.3-4.8l-4.2-15.6c3.8,0.7,8.5,3,13.4,6.5
										C222.9,277.3,224.1,278.3,225.7,278.8L225.7,278.8z"/>
									<path class="st10" d="M237,268.5l2.9,10.8c1,3.6-1.2,7.3-4.8,8.3s-7.3-1.2-8.3-4.8l-1.1-4c2.5,0.8,6.1,0.4,9-6
										C235.5,271.1,236.2,269.7,237,268.5L237,268.5z"/>
									<path class="st10" d="M209.5,270.7l4.2,15.6c1,3.6-1.2,7.3-4.8,8.3s-7.3-1.2-8.3-4.8l-0.4-1.7
										C197.9,274.1,202.3,269.4,209.5,270.7L209.5,270.7z"/>
								</g>
							</g>
							<g>
								<path class="st11" d="M145.7,219.4c1.3,8.9-6,5.4-13.5,12.1s-6.3,14.1-13.5,12.1c-7.7-2.1-3.7-16.2,3.8-22.9
									C130,214,144.5,211.5,145.7,219.4z"/>
								<path class="st12" d="M131.5,215.6c-11.9,12.8-10.3,18.2-6.4,25.6c-1.4,2.1-3,3.2-6.3,2.3c-7.8-2.1-3.7-16.2,3.8-22.9
									C125,218.5,128.3,216.7,131.5,215.6L131.5,215.6z"/>
								<path class="st13" d="M145.7,219.4c1.3,8.9-6,5.4-13.5,12.1s-6.3,14.1-13.5,12.1c-7.7-2.1-3.7-16.2,3.8-22.9
									C130,214,144.5,211.5,145.7,219.4z"/>
							</g>
							<g>
								<path class="st11" d="M231.1,187c3.3,8.4,7.9,1.7,17.7,3.7c9.8,2.1,12.5,9.1,17.7,3.7c5.6-5.7-4.9-15.9-14.7-18
									C242,174.4,228.1,179.5,231.1,187L231.1,187z"/>
								<path class="st12" d="M247.1,176c-9.8,4.9-10.6,9.5-8.1,14.9c-3.6,0.7-6.1,1-8-4C228.6,180.6,238.2,176,247.1,176L247.1,176
									z"/>
								<path class="st14" d="M231.1,187c3.3,8.4,7.9,1.7,17.7,3.7c9.8,2.1,12.5,9.1,17.7,3.7c5.6-5.7-4.9-15.9-14.7-18
									C242,174.4,228.1,179.5,231.1,187L231.1,187z"/>
							</g>
						</g>
					</g>
				</g>
			</g>
		</g>
	</g>
</g>
<g>
	<path class="st15" d="M219.5,260.4c-3.7-2.1-5-6.9-2.9-10.6s6.9-5,10.6-2.9s5,6.9,2.9,10.6"/>
</g>
</svg>
