<?xml version="1.0" encoding="utf-8"?>
<!-- Generator: Adobe Illustrator 27.8.1, SVG Export Plug-In . SVG Version: 6.00 Build 0)  -->
<svg version="1.1" id="Layer_1" xmlns="http://www.w3.org/2000/svg" xmlns:xlink="http://www.w3.org/1999/xlink" x="0px" y="0px"
	 viewBox="0 0 545.1 545.1" style="enable-background:new 0 0 545.1 545.1;" xml:space="preserve">
<style type="text/css">
	.st0{clip-path:url(#SVGID_00000057109683473387282470000005583963998283387030_);}
	.st1{fill:#2D1FC3;}
	.st2{fill:#FFC800;}
	.st3{fill:#D36E00;}
	.st4{fill:none;stroke:#000000;stroke-width:5;stroke-linecap:round;stroke-linejoin:round;}
	.st5{fill:#EEF7F8;stroke:#000000;stroke-width:5;stroke-linecap:round;stroke-linejoin:round;}
	.st6{fill:#FFC68E;stroke:#000000;stroke-width:5;stroke-linecap:round;stroke-linejoin:round;}
</style>
<g>
	<g id="Layer_2_00000162340582014273780430000017312388312096451750_">
		<g id="Layer_1-2">
			<g>
				<g>
					<defs>
						<rect id="SVGID_1_" y="0" width="545.1" height="545.1"/>
					</defs>
					<clipPath id="SVGID_00000043444548763609349590000008552957885604500387_">
						<use xlink:href="#SVGID_1_"  style="overflow:visible;"/>
					</clipPath>
					<g style="clip-path:url(#SVGID_00000043444548763609349590000008552957885604500387_);">
						<g>
							<g>
								<g>
									<path class="st1" d="M154.7,283.6c-3.3-0.8-3.6-5.3-0.4-6.6c6.1-2.4,13.3-5.5,13.3-6.3v-17.9c0-3.1,3.8-4.6,5.9-2.4
										c3.3,3.4,7.1,7.4,9.2,10.2c0.8,1,2.2,1.5,3.5,1.2c3.4-0.8,6.6-1.2,9.2-1.5c2.6-0.2,4.6,2.5,3.4,4.9
										c-1.8,3.9-4.2,9.2-5.5,12.1c-0.4,1.1-0.3,2.3,0.3,3.2c1.8,2.7,5.6,8.8,8.5,14.1c1.6,2.9-1.4,6.1-4.4,4.8
										c-3.4-1.5-7.2-2.9-9.8-3.5c-1.4-0.3-2.9,0.3-3.7,1.5c-1.8,2.9-5.6,8.6-9.3,13.4c-2.1,2.7-6.5,1-6.1-2.5
										c0.7-6.4,1.5-14.5,1.5-19c0-1.7-1.3-3.2-3-3.4C164.5,285.6,159.4,284.8,154.7,283.6L154.7,283.6z"/>
									<path class="st2" d="M150.7,273.4c0,0,21.9-8.1,21.9-9.6v-26.3c0,0,13.8,13.5,16.5,17.9c8.5-2.5,17.3-2.3,17.3-2.3
										s-7.6,16-8.6,18.9c0,0,12.1,18.4,13.4,24.2c0,0-16.7-8.1-20.6-7.5c0,0-12.1,19.8-17.7,22.5c0,0,3.5-28.1,2.5-31.9
										C175.3,279.4,157.1,277.3,150.7,273.4L150.7,273.4z"/>
									<path class="st3" d="M185.2,291.1l4.6-1.1c-4,5.9-13.7,19.8-17,21.4c0,0,3.5-28.1,2.5-31.9c0,0-18.2-2.1-24.6-6
										c0,0,21.9-8.1,21.9-9.6v-17.8c2.9,5.5,5.9,10.9,7.3,13.7c0.6,1.1,0.4,2.5-0.4,3.4l-4.4,5.2c-1.2,1.5-0.8,3.7,0.8,4.7
										l4.3,2.5c1,0.6,1.6,1.7,1.6,2.9l-0.5,9.6C181.3,290,183.2,291.5,185.2,291.1L185.2,291.1z"/>
									<path class="st4" d="M150.7,273.4c0,0,21.9-8.1,21.9-9.6v-26.3c0,0,13.8,13.5,16.5,17.9c8.5-2.5,17.3-2.3,17.3-2.3
										s-7.6,16-8.6,18.9c0,0,12.1,18.4,13.4,24.2c0,0-16.7-8.1-20.6-7.5c0,0-12.1,19.8-17.7,22.5c0,0,3.5-28.1,2.5-31.9
										C175.3,279.4,157.1,277.3,150.7,273.4L150.7,273.4z"/>
								</g>
								<g>
									<path class="st1" d="M259.8,266.3c-1.6-2.4-3.6-4.9-5.4-6.4c-1.3-1-3.1-0.4-3.6,1.2c-0.3,1.2-0.8,2.7-1.3,4.3
										c-0.9,2.9-2,6.2-3.2,9.2c-0.9,2.3-4.3,1.7-4.4-0.8c-0.1-7-0.5-16.1-1.4-19.5c-0.2-0.6-0.6-1.2-1.2-1.5
										c-1.6-0.7-5.6-2.5-8.7-4.3c-1.6-0.9-1.5-3.2,0.1-4l7.6-3.7c0.9-0.4,1.4-1.5,1.2-2.5c-0.2-1.2-0.6-3-1-5.2
										c-0.5-2.3-1-5.1-1.6-8.1c-0.4-2,1.9-3.5,3.6-2.2c4.8,3.7,8.5,9.3,10.5,12.4c0.6,0.9,1.8,1.3,2.8,0.8c0.9-0.4,2.1-1,3.3-1.6
										c1.6-0.8,3.5,0.4,3.3,2.2c-0.3,3.7-0.9,8.8-1.7,11.7c-0.2,0.6,0,1.3,0.3,1.9c1.3,1.9,4.2,7,4.8,14.5
										C264.1,267.2,261.1,268.2,259.8,266.3L259.8,266.3z"/>
									<path class="st2" d="M267.6,267.6c0,0-7.3-13.8-12.1-14.1c0,0-0.8,3-1.9,6.8c-1.9,6.1-4.8,14.4-7.4,17c0,0,0.1-27.1-2-29.2
										c0,0-9.7-4.2-12.9-6.9l12.7-6.1c0,0-0.6-2.7-1.4-6.9c-0.7-3.5-1.6-8.1-2.6-12.9c8.1,3.2,14.2,13.9,16.1,16.6
										c0,0,6.4-2.8,8.7-4.6c0,0-0.9,13.1-2.3,17.1C262.4,244.5,269.7,253.3,267.6,267.6L267.6,267.6z"/>
									<path class="st3" d="M246.1,277.4c0,0,0.1-27.1-2-29.2c0,0-9.7-4.2-12.9-6.9l12.7-6.1c0,0-0.6-2.7-1.4-6.9l6,8.2
										c0.9,1.2,0.5,2.8-0.8,3.5l0,0c-1.6,0.9-1.7,3.2-0.1,4.2l2.7,1.6c0.6,0.4,1,1,1.1,1.7l2,12.9
										C251.6,266.5,248.7,274.8,246.1,277.4z"/>
									<path class="st4" d="M267.6,267.6c0,0-7.3-13.8-12.1-14.1c0,0-0.8,3-1.9,6.8c-1.9,6.1-4.8,14.4-7.4,17c0,0,0.1-27.1-2-29.2
										c0,0-9.7-4.2-12.9-6.9l12.7-6.1c0,0-0.6-2.7-1.4-6.9c-0.7-3.5-1.6-8.1-2.6-12.9c8.1,3.2,14.2,13.9,16.1,16.6
										c0,0,6.4-2.8,8.7-4.6c0,0-0.9,13.1-2.3,17.1C262.4,244.5,269.7,253.3,267.6,267.6L267.6,267.6z"/>
								</g>
								<g>
									<path class="st2" d="M163.6,260.6l-5.6,0.7l-16.2,2c-1.3,0.2-1.9-1.5-0.8-2.2l9-5.7l0.9-10.5l0.6-6.3
										c0.1-1.2,1.8-1.5,2.3-0.4L163.6,260.6L163.6,260.6z"/>
									<path class="st3" d="M158,261.3l-16.2,2c-1.3,0.2-1.9-1.5-0.8-2.2l9-5.7l0.9-10.5C153.9,251.9,157,259.1,158,261.3
										L158,261.3z"/>
									<path class="st4" d="M153.8,238.2l9.9,22.3l-21.9,2.8c-1.3,0.2-1.9-1.5-0.8-2.2l9-5.7l1.5-16.8
										C151.6,237.4,153.3,237.1,153.8,238.2L153.8,238.2z"/>
								</g>
								<g>
									<path class="st2" d="M268.4,208.4l-8.7,7.3l-3.4,2.9l-6-15.8c-0.7-1.7,1.7-2.4,3.3-1.1l5.4,4.4l0.7,0.6l8.1,0.4
										C268.5,207.1,268.9,208,268.4,208.4L268.4,208.4z"/>
									<path class="st3" d="M259.7,215.7l-3.4,2.9l-6-15.8c-0.7-1.7,1.7-2.4,3.3-1.1l5.4,4.4C259.2,209.3,259.5,212.6,259.7,215.7
										L259.7,215.7z"/>
									<path class="st4" d="M268.4,208.4l-8.7,7.3l-3.4,2.9l-6-15.8c-0.7-1.7,1.7-2.4,3.3-1.1l5.4,4.4l0.7,0.6l8.1,0.4
										C268.5,207.1,268.9,208,268.4,208.4L268.4,208.4z"/>
								</g>
							</g>
							<g>
								<path class="st5" d="M219.9,296.5l29.4-11.8c0,0,5.8,28.7-9,33.8C225.5,323.6,219.9,296.5,219.9,296.5L219.9,296.5z"/>
								<line class="st4" x1="224.6" y1="309.5" x2="250.4" y2="297.1"/>
								<line class="st4" x1="241.1" y1="288" x2="243.9" y2="300.2"/>
								<line class="st4" x1="232.9" y1="291.2" x2="235.1" y2="304.4"/>
								<line class="st4" x1="239.3" y1="302.4" x2="245" y2="315.4"/>
								<line class="st4" x1="231.4" y1="306.2" x2="236.4" y2="319.1"/>
							</g>
						</g>
					</g>
				</g>
			</g>
		</g>
	</g>
</g>
<g>
	<path class="st6" d="M219.5,260.4c-3.7-2.1-5-6.9-2.9-10.6s6.9-5,10.6-2.9s5,6.9,2.9,10.6"/>
</g>
</svg>
