<?xml version="1.0" encoding="utf-8"?>
<!-- Generator: Adobe Illustrator 27.7.0, SVG Export Plug-In . SVG Version: 6.00 Build 0)  -->
<svg version="1.1" id="Layer_1" xmlns="http://www.w3.org/2000/svg" xmlns:xlink="http://www.w3.org/1999/xlink" x="0px" y="0px"
	 viewBox="0 0 545.1 545.1" style="enable-background:new 0 0 545.1 545.1;" xml:space="preserve">
<style type="text/css">
	.st0{clip-path:url(#SVGID_00000176752476099244312340000002927224707638440120_);}
	.st1{fill:none;stroke:#000000;stroke-width:5;stroke-linecap:round;stroke-linejoin:round;}
	.st2{fill:#FFC33F;stroke:#000000;stroke-width:5;stroke-miterlimit:10;}
	.st3{fill:#FFC33F;}
	.st4{fill:#E07F28;}
	.st5{fill:none;stroke:#000000;stroke-width:5;stroke-miterlimit:10;}
	.st6{fill:#FF0000;stroke:#000000;stroke-width:5;stroke-linecap:round;stroke-linejoin:round;}
	.st7{fill:#FFFFFF;stroke:#000000;stroke-width:5;stroke-linecap:round;stroke-linejoin:round;}
	.st8{fill:#FF0000;}
</style>
<g>
	<g id="Layer_2_00000136376701801602707140000016585929503235432094_">
		<g id="Layer_1-2">
			<g>
				<defs>
					<rect id="SVGID_1_" y="0" width="545.1" height="545.1"/>
				</defs>
				<clipPath id="SVGID_00000089533872367370805910000018402469349156139175_">
					<use xlink:href="#SVGID_1_"  style="overflow:visible;"/>
				</clipPath>
				<g style="clip-path:url(#SVGID_00000089533872367370805910000018402469349156139175_);">
					<g>
						<g>
							<path class="st1" d="M432.8,212.3c0.3,9.7,3.9,13.1,10.1,12.8c6.9-0.3,16.3-5.6,19.4-1c1.9,2.9-1.5,8.9-4.3,18.9"/>
							<path class="st2" d="M457.2,181.9c0,0.6-0.1,1.2-0.1,1.8c-6.5,1.6-11.4,7.6-11.4,14.6c0,4.4,1.8,8.3,4.8,11
								c-3.1,7.4-6.4,14.5-8.1,27.5c-2,15.4-7.4,29.4-12.5,34.4c-3.4,3.3-6.6,2.7-8.7-4c-5.2-17-4.5-38.6-12.3-40.7
								c-1.1,0.3-2,0.9-2.8,1.9c-5,6-5,24.1-9.5,38.8c-2.1,6.9-5.4,7.4-8.8,3.9c-3.9-4-8-13.3-10.6-24.4c3.5-3.3,5.6-8,5.6-13.2
								c0-8.2-5.4-15.1-12.7-17.4c-3-7.5-6.2-13.5-8.1-23.3c2.4-2.2,3.8-5.4,3.8-8.9c0-4-1.9-7.5-4.9-9.8c3-16.1,20.5-19.5,38-15
								c6.5,1.7,13.3,1.7,19.7,0c6.3-1.6,12.5-2.2,18.1-1.6C449.2,159.1,458.3,166.4,457.2,181.9L457.2,181.9z"/>
							<path class="st1" d="M429.7,167.3c-6,1.9-13.1,3-20.8,3s-14.8-1.1-20.8-3"/>
							<path class="st1" d="M429.7,201.2c-6,5.2-13.1,8.3-20.8,8.3s-14.8-3-20.8-8.3"/>
							<path class="st3" d="M406.1,228.4c-5,6-5,24.1-9.5,38.8c-2.1,6.9-5.4,7.4-8.8,3.9c5.4-4.9,5.6-17.5,10.3-30.7
								C402.1,229.5,404.3,226.8,406.1,228.4L406.1,228.4z"/>
							<path class="st4" d="M457.2,181.9c-4.9,3.1-9.4,9-10.3,12.8c-1.3,5.6,0.9,11.4,3.5,14.6c-3.1,7.4-6.4,14.5-8.1,27.5
								c-2,15.4-7.4,29.4-12.5,34.4c6.9-22,2.8-41.1,10.3-60.4c7.9-20.4,9.6-40.6-3.2-53.2C449.2,159.1,458.3,166.4,457.2,181.9
								L457.2,181.9z"/>
							<path class="st5" d="M457.2,181.9c0,0.6-0.1,1.2-0.1,1.8c-6.5,1.6-11.4,7.6-11.4,14.6c0,4.4,1.8,8.3,4.8,11
								c-3.1,7.4-6.4,14.5-8.1,27.5c-2,15.4-7.4,29.4-12.5,34.4c-3.4,3.3-6.6,2.7-8.7-4c-5.2-17-4.5-38.6-12.3-40.7
								c-1.1,0.3-2,0.9-2.8,1.9c-5,6-5,24.1-9.5,38.8c-2.1,6.9-5.4,7.4-8.8,3.9c-3.9-4-8-13.3-10.6-24.4c3.5-3.3,5.6-8,5.6-13.2
								c0-8.2-5.4-15.1-12.7-17.4c-3-7.5-6.2-13.5-8.1-23.3c2.4-2.2,3.8-5.4,3.8-8.9c0-4-1.9-7.5-4.9-9.8c3-16.1,20.5-19.5,38-15
								c6.5,1.7,13.3,1.7,19.7,0c6.3-1.6,12.5-2.2,18.1-1.6C449.2,159.1,458.3,166.4,457.2,181.9L457.2,181.9z"/>
							<path class="st6" d="M437.8,164.4c11.6-7.6,15.9-26.5,16.1-33.5c0,0,4.9,28.9-5.2,39.7C441.5,169.6,437.8,164.4,437.8,164.4
								L437.8,164.4z"/>
							<path class="st6" d="M382.3,164.4c-11.6-7.6-15.9-26.5-16.1-33.5c0,0-4.9,28.9,5.2,39.7C378.6,169.6,382.3,164.4,382.3,164.4
								L382.3,164.4z"/>
							<g>
								<path class="st7" d="M427.8,203.1l1.1,8.5c0.2,2.3-2.6,3.5-4.1,1.8l-4.5-6"/>
								<path class="st7" d="M390,203.1l-1.1,8.5c-0.2,2.3,2.6,3.5,4.1,1.8l4.5-6"/>
							</g>
							<path class="st6" d="M469.8,239.9c0.7,5.6,3.1,10.2,5.5,13.6c1.8,2.5-0.6,5.8-3.5,4.9c-5.1-1.6-11.4-4.4-17.5-9.3
								c-1.7-1.4-1.5-4.1,0.4-5.2l10.4-6.3C467,236.5,469.5,237.7,469.8,239.9L469.8,239.9z"/>
							<ellipse cx="437.6" cy="179.3" rx="7.8" ry="4"/>
							<ellipse cx="445.5" cy="186.8" rx="3.7" ry="4"/>
							<ellipse cx="439.6" cy="198.1" rx="1.8" ry="1.9"/>
							<ellipse cx="369" cy="178.3" rx="3.1" ry="3.4"/>
							<ellipse cx="394.3" cy="161.1" rx="3.1" ry="3.4"/>
						</g>
						<path class="st8" d="M356.7,182.4c-36.1,8.8-18,24.2,26.3,24.2C383,206.6,325.5,199.3,356.7,182.4z"/>
						<path class="st8" d="M357.7,194.7c-34.1,8.8-12.7,26.9,34,26.8C391.7,221.5,336,211.8,357.7,194.7z"/>
						<path class="st8" d="M460.6,199.9c23.8,6.1,6.6,20-30.4,19.1C430.2,219.1,475.8,211.7,460.6,199.9z"/>
						<path class="st8" d="M356.7,182.4c-36.1,8.8-18,24.2,26.3,24.2C383,206.6,325.5,199.3,356.7,182.4z"/>
						<path class="st8" d="M357.7,194.7c-34.1,8.8-12.7,26.9,34,26.8C391.7,221.5,336,211.8,357.7,194.7z"/>
						<path class="st8" d="M460.6,199.9c23.8,6.1,6.6,20-30.4,19.1C430.2,219.1,475.8,211.7,460.6,199.9z"/>
					</g>
				</g>
			</g>
		</g>
	</g>
</g>
</svg>
