<?xml version="1.0" encoding="utf-8"?>
<!-- Generator: Adobe Illustrator 27.7.0, SVG Export Plug-In . SVG Version: 6.00 Build 0)  -->
<svg version="1.1" id="Layer_1" xmlns="http://www.w3.org/2000/svg" xmlns:xlink="http://www.w3.org/1999/xlink" x="0px" y="0px"
	 viewBox="0 0 545.1 545.1" style="enable-background:new 0 0 545.1 545.1;" xml:space="preserve">
<style type="text/css">
	.st0{clip-path:url(#SVGID_00000157997949555349789370000010128905039529809318_);}
	.st1{fill:#8EE8FB;stroke:#000000;stroke-width:5;stroke-linecap:round;stroke-linejoin:round;}
	.st2{fill:#B2B4D3;}
	.st3{fill:#8383B7;}
	.st4{fill:none;stroke:#000000;stroke-width:5;stroke-miterlimit:10;}
	.st5{fill:none;stroke:#000000;stroke-width:5;stroke-linecap:round;stroke-miterlimit:10;}
	.st6{fill:#FF0800;stroke:#000000;stroke-width:5;stroke-miterlimit:10;}
	.st7{fill:#AD2D00;}
	.st8{fill:#FF45C1;stroke:#000000;stroke-width:5;stroke-linecap:round;stroke-linejoin:round;}
	.st9{fill:#FF008A;stroke:#000000;stroke-width:5;stroke-linecap:round;stroke-linejoin:round;}
</style>
<g>
	<g id="Layer_2_00000009556942303176744290000014754997343351122816_">
		<g id="Layer_1-2">
			<g>
				<defs>
					<rect id="SVGID_1_" y="0" width="545.1" height="545.1"/>
				</defs>
				<clipPath id="SVGID_00000178201751192643527990000012765500188356804519_">
					<use xlink:href="#SVGID_1_"  style="overflow:visible;"/>
				</clipPath>
				<g style="clip-path:url(#SVGID_00000178201751192643527990000012765500188356804519_);">
					<g>
						<circle class="st1" cx="494.9" cy="251" r="15"/>
						<g>
							<path class="st2" d="M474.9,235.2c-10.2,20.4-12.1,23-12.1,23s8.2,5.8,6.4,8.4s-10.1,10.2-13.4,11s-3.7-6.7-9.6-5.2
								c-2.1,0.5-9.7,3.9-20.1,6.4c-19,4.5-47.4,6.1-68.7-18.1c-21.7-27.7-20.6-49.1-18.9-62.6c-6.1-1.4-12.9-3.5-7.4-16.6
								c5.6-13.1,11.1,1.3,17.3-3c6.2-4.3,12.2-31.2,58.2-35.8c0,0,0.2-0.1,0.7-0.4c0.8-0.5,2.2-1.4,3.6-2.5c2.4,0.9,5.1,1.7,8,2.4
								c10.4,2.6,18.3,4.6,24,6.2c0.7,1.1,1.6,2.1,2.5,2.9c4.1,3.9,9.2,7.9,12.7,10.9C463.8,167.1,487.8,191,474.9,235.2
								L474.9,235.2z"/>
							<path class="st3" d="M474.9,235.2c-10.2,20.4-12.1,23-12.1,23s8.2,5.8,6.4,8.4s-10.1,10.2-13.4,11s-3.7-6.7-9.6-5.2
								c-2.1,0.5-9.7,3.9-20.1,6.4c-5.4-19.9,31.7-25.8,26.5-45.9c0.4,0.1,0.8,0.1,1.3,0.1c5.7,0,10.4-4.8,10.4-10.8
								c0-5.6-4.2-10.3-9.5-10.7c-18.9-19.7,7.5-45.2-47.5-69.2c0.8-0.5,2.2-1.4,3.6-2.5c2.4,0.9,5.1,1.7,8,2.4
								c10.4,2.6,18.3,4.6,24,6.2c0.7,1.1,1.6,2.1,2.5,2.9c4.1,3.9,9.2,7.9,12.7,10.9C463.8,167.1,487.8,191,474.9,235.2
								L474.9,235.2z"/>
						</g>
						<path class="st3" d="M383.8,173.8c-7.5,4.1-12.3,17.7-2.2,13.2C391.8,182.6,396.4,166.9,383.8,173.8z"/>
						<path class="st3" d="M332.1,181.1c-3.3,7.9,1.5,21.5,6.6,11.7S337.5,167.9,332.1,181.1z"/>
						<path class="st3" d="M464.2,222.2c0,6-4.6,10.8-10.4,10.8c-0.4,0-0.9,0-1.3-0.1c-5.1-0.6-9.1-5.2-9.1-10.7
							c0-6,4.6-10.8,10.4-10.8c0.3,0,0.6,0,0.9,0.1C460,211.9,464.2,216.6,464.2,222.2L464.2,222.2z"/>
						<path class="st2" d="M442.8,148.3c-5.7-1.5-13.6-3.6-24-6.2c-2.9-0.7-5.5-1.5-8-2.4c1.5-1.2,3-2.8,3.4-4.2
							c0.9-3.3-0.2-6.3,12.1-2.9c9.7,2.7,13,3.1,13.2,6.9C439.9,142.8,441,145.8,442.8,148.3L442.8,148.3z"/>
						<path class="st3" d="M442.8,148.3c-5.7-1.5-13.6-3.6-24-6.2c-2.9-0.7-5.5-1.5-8-2.4c1.5-1.2,3-2.8,3.4-4.2
							c0.9-3.3-0.2-6.3,12.1-2.9c9.7,2.7,13,3.1,13.2,6.9C439.9,142.8,441,145.8,442.8,148.3L442.8,148.3z"/>
						<circle class="st3" cx="391.6" cy="259.6" r="6.4"/>
						<path class="st2" d="M415,248.5l22.9,2.9c0,0-14.9,10.7-22.9-1.4"/>
						<g>
							<path class="st4" d="M360,163.1c-4.6,4.5-8.5,9.6-11.6,15.4"/>
							<path class="st4" d="M370.9,154.5c10.8-6.8,24.2-11,39.6-12.2c10.2-0.8,21.2,1.9,31.4,7.3c12.3,6.5,23.4,16.9,30.4,30"/>
							<path class="st4" d="M477.6,192.8c2.8,10.1,3.2,21.2,0.1,32.9c-0.9,3.4-1.8,6.6-2.9,9.5"/>
							<path class="st4" d="M466.3,253.2c-0.5,0.8-1,1.6-1.6,2.3c-5.4,7.6-11.6,13-18.6,16.9l0,0c-12.5,6.9-27,8.9-42,9.8
								c-27.7,1.8-59.1-24-64.2-57.3"/>
							<path class="st4" d="M339.9,205.7c0.3-2.1,0.6-4.1,1-6.1c0-0.1,0-0.1,0-0.2"/>
							
								<ellipse transform="matrix(0.2265 -0.974 0.974 0.2265 77.3382 470.2358)" class="st4" cx="334.7" cy="186.4" rx="10.5" ry="5"/>
							
								<ellipse transform="matrix(0.7317 -0.6816 0.6816 0.7317 -19.7966 309.9583)" class="st4" cx="383.8" cy="180.1" rx="10.5" ry="5"/>
							
								<ellipse transform="matrix(0.8129 -0.5824 0.5824 0.8129 -18.6967 300.2805)" class="st4" cx="458" cy="179.2" rx="5" ry="10.6"/>
							<path class="st4" d="M390,242.3c-3.4,2.3-8.8,1.2-12.4-2.7c-0.3-0.3-0.6-0.7-0.9-1C381.1,239.9,385.5,241.1,390,242.3z"/>
							<path class="st4" d="M410.5,142.3c0,0,4.2-5.6,4.7-9.9s23.9,1.1,25.4,5.9c0,0-2.4,9.2,1.4,11.3"/>
							<path class="st4" d="M464.7,255.6c0,0,0.2,5.4,3.7,7.9c3.6,2.5-7.7,15-12.8,14.2c0,0-4.8-4-9.6-5.2"/>
							<circle class="st4" cx="391.8" cy="259.6" r="6.5"/>
							<circle class="st4" cx="453.7" cy="222.4" r="10.6"/>
							<path class="st4" d="M437.8,251.3c-1.8,1.4-4.2,2.7-7.1,3.6c-6.5,2-12.6,0.9-13.6-2.3c-0.1-0.4-0.2-0.7-0.1-1.1
								c0-1,0.5-2,1.3-3C425,249.7,431.5,250.6,437.8,251.3L437.8,251.3z"/>
							<path class="st5" d="M337.1,176.2c0,0,6.5,5.1,15.9,1.2"/>
							<path class="st5" d="M332.4,196.7c0,0,8.9-0.2,12.2,7.5"/>
							<path class="st5" d="M391.5,172.9c0,0,6.7,10.7,14.8,4.4"/>
							<path class="st5" d="M376.1,187.3c0,0,4.7,7.4,1.9,13.5"/>
							<path class="st5" d="M464.1,187.8c0,0-5.4,7.7-7,12.5"/>
							<path class="st5" d="M451.9,170.7c0,0-6.2,4.1-13.4,2.2"/>
							<path class="st5" d="M346.9,194.2c0,0,8.7,5.9,3.7,17.6"/>
							<path class="st5" d="M357.8,203.7c0,0,0.6,12.6-8.1,17.2"/>
							<path class="st5" d="M357.4,238.2c0,0-1.1,14.9,9.9,20.1"/>
							<path class="st5" d="M428.3,271.4c6.4-0.8,12.7-7.5,12.7-7.5"/>
							<path class="st5" d="M431.3,168.1c-7.8-5.2-20.1-4.4-20.1-4.4"/>
							<path class="st5" d="M421.2,156.9c-5.7-3-14.6-1.2-14.6-1.2"/>
							<path class="st5" d="M439.6,235.4c0.1-0.6,0.3-1.3,0.6-2"/>
							<path class="st5" d="M417.1,252.6c-0.1-1.2-0.9-9.8-6.3-11.5"/>
							<path class="st5" d="M430.4,242.4c0,0-2.4-3.3-0.6-7.3"/>
							<path class="st5" d="M390,180.7c0.8,0.2,5.5,7.7,11.2,6.1"/>
							<path class="st5" d="M457.5,186.1c0,0-3.4,4.3-4.2,6.9"/>
							<path class="st5" d="M470,206.1c0.1,0.4,4.1,7.7,0.5,15.2"/>
							<path class="st5" d="M431.5,196c-2.8,3.7-8.3,9.8-12.6,8.6"/>
							<path class="st5" d="M439.3,197.4c-2.8,5-8.6,12.4-12.9,13.6"/>
						</g>
						<g>
							<path class="st6" d="M529.8,231.5c-3.4,14.5-28.4,22.1-63.5,21.7c-8.9-0.1-18.4-0.7-28.4-1.9c-4.9-0.6-10-1.3-15.1-2.1
								c-1.5-0.2-2.9-0.5-4.4-0.7c-0.7-0.1-1.4-0.2-2-0.4c-5.7-1-11.4-2.2-17.2-3.6c-3.1-0.7-6.1-1.5-9.1-2.2
								c-4.5-1.2-9-2.4-13.3-3.7c-13.4-4-25.8-8.6-36.9-13.6c-34.6-15.5-55.9-34.5-52.3-49.8c4-17.1,38.1-24.6,83.3-20.7
								c-4,2.5-7.6,5.4-10.9,8.6c-23.6,0.2-40,5.5-42.3,15.2c-1.9,8.2,6.7,18.1,22.1,27.4c3.3,2,6.9,3.9,10.8,5.8
								c1.7,0.8,3.4,1.6,5.1,2.4c13.3,6,29.2,11.4,46.8,15.4c12.9,3,25.5,5,37,6c13.4,1.2,25.5,1.1,35.3-0.2
								c9.9-1.3,17.6-3.9,22.1-7.6c2.3-1.9,3.8-4.1,4.3-6.5c1-4.5-1.1-9.5-5.8-14.6c-4.1-4.5-10.2-9.1-17.9-13.6
								c-1.3-4.7-3.1-9.1-5.3-13.2c0.3,0.1,0.6,0.2,0.9,0.4C510.2,195.8,533.4,215.7,529.8,231.5L529.8,231.5z"/>
							<path class="st7" d="M529.8,231.5c-3.4,14.5-28.4,22.1-63.5,21.7c-8.9-0.1-18.4-0.7-28.4-1.9c-4.9-0.6-10-1.3-15.1-2.1
								c47,1.9,148.7-8.2,50.4-69.3C510.2,195.8,533.4,215.7,529.8,231.5z"/>
							<path class="st4" d="M529.8,231.5c-3.4,14.5-28.4,22.1-63.5,21.7c-8.9-0.1-18.4-0.7-28.4-1.9c-4.9-0.6-10-1.3-15.1-2.1
								c-1.5-0.2-2.9-0.5-4.4-0.7c-0.7-0.1-1.4-0.2-2-0.4c-5.7-1-11.4-2.2-17.2-3.6c-3.1-0.7-6.1-1.5-9.1-2.2
								c-4.5-1.2-9-2.4-13.3-3.7c-13.4-4-25.8-8.6-36.9-13.6c-34.6-15.5-55.9-34.5-52.3-49.8c4-17.1,38.1-24.6,83.3-20.7
								c-4,2.5-7.6,5.4-10.9,8.6c-23.6,0.2-40,5.5-42.3,15.2c-1.9,8.2,6.7,18.1,22.1,27.4c3.3,2,6.9,3.9,10.8,5.8
								c1.7,0.8,3.4,1.6,5.1,2.4c13.3,6,29.2,11.4,46.8,15.4c12.9,3,25.5,5,37,6c13.4,1.2,25.5,1.1,35.3-0.2
								c9.9-1.3,17.6-3.9,22.1-7.6c2.3-1.9,3.8-4.1,4.3-6.5c1-4.5-1.1-9.5-5.8-14.6c-4.1-4.5-10.2-9.1-17.9-13.6
								c-1.3-4.7-3.1-9.1-5.3-13.2c0.3,0.1,0.6,0.2,0.9,0.4C510.2,195.8,533.4,215.7,529.8,231.5L529.8,231.5z"/>
						</g>
						<circle class="st8" cx="329" cy="148.3" r="12.3"/>
						<circle class="st9" cx="378.9" cy="222.7" r="8"/>
					</g>
				</g>
			</g>
		</g>
	</g>
</g>
</svg>
