<?xml version="1.0" encoding="utf-8"?>
<!-- Generator: Adobe Illustrator 27.7.0, SVG Export Plug-In . SVG Version: 6.00 Build 0)  -->
<svg version="1.1" id="Layer_1" xmlns="http://www.w3.org/2000/svg" xmlns:xlink="http://www.w3.org/1999/xlink" x="0px" y="0px"
	 viewBox="0 0 545.1 545.1" style="enable-background:new 0 0 545.1 545.1;" xml:space="preserve">
<style type="text/css">
	.st0{clip-path:url(#SVGID_00000127021737722637167360000016021185307683517318_);}
	.st1{fill:#FF800D;}
	.st2{fill:#FF1E00;}
	.st3{fill:none;stroke:#000000;stroke-width:5;stroke-linecap:round;stroke-linejoin:round;}
	.st4{fill:#F9EFC3;}
	.st5{fill:#D8B98B;}
	.st6{fill:#FFFFFF;}
</style>
<g>
	<g id="Layer_2_00000023987931073832417150000012101303191345710977_">
		<g id="Layer_1-2">
			<g>
				<g>
					<defs>
						<rect id="SVGID_1_" y="0" width="545.1" height="545.1"/>
					</defs>
					<clipPath id="SVGID_00000132066825107261446830000006480436080325019310_">
						<use xlink:href="#SVGID_1_"  style="overflow:visible;"/>
					</clipPath>
					<g style="clip-path:url(#SVGID_00000132066825107261446830000006480436080325019310_);">
						<g>
							<g>
								<path class="st1" d="M483.2,263.7c-6.5,3.3-14.3,4.4-21.9,5.5c-7.6,1.2-15.3,2.5-21.3,6.3c-2.7,1.7-5,3.9-7.2,6.1l0,0
									c-4.8,5-9.2,10.3-16.5,12c-6.8,1.6-14.6-0.4-21.4-3.4c-0.2-0.1-0.4-0.2-0.6-0.3c-6.6-2.9-12.9-6.6-19.7-8.9
									c-0.4-0.1-0.8-0.3-1.2-0.4c-7.3-2.2-15-2.5-22.4-4.2c-3.1-0.8-6.2-1.8-9.1-3.1c-7-3.1-13.3-7.7-17.6-13.4
									c-6.2-8.2-8-18.6-3.7-26.6c5.4-10.1,18.9-14.8,24.9-24.7c3.8-6.3,4.1-14,5.3-21.3c1.4-8.4,4.1-16.8,9.8-23.3
									c5.7-6.6,14.8-11.1,24.8-10.5c6.2,0.4,12.3,2.7,18.5,3.4c4.8,0.6,9.5,0.2,14.1-0.8c8.2-1.8,15.8-5.8,22.5-10.2
									c3.8-2.5,7.5-5.2,12.1-6.4c2.3-0.6,4.8-0.8,7.2-0.3c2.5,0.4,4.8,1.4,6.6,3.1c4,3.8,3.7,9.8,1.5,14.2s-5.5,8.4-7.7,13.8
									c-2.2,5.4,0.1,9.9,3.9,13.8c3.8,3.9,8.9,6.6,13.5,9.8s8.9,7.2,10,12.1c1.6,7-3.9,13.3-3.2,20.2c0.8,7.4,8.4,13.7,9.5,21
									C494.7,254.2,489.7,260.4,483.2,263.7L483.2,263.7z"/>
								<path class="st2" d="M483.9,244.6c-1-6.5-7.8-12.1-8.5-18.7c-0.6-6.2,4.3-11.8,2.9-18c-1-4.3-4.8-7.9-8.9-10.8
									c-4.1-2.8-8.6-5.3-12-8.7c-3.4-3.5-5.5-7.5-3.5-12.3s4.9-8.4,6.9-12.4c1.9-4,2.2-9.2-1.4-12.6c-1.6-1.5-3.7-2.4-5.9-2.8
									c-2.2-0.4-4.4-0.2-6.5,0.3c-4.1,1.1-7.4,3.5-10.8,5.7c-9.3,6.1-20.5,11.3-32.6,9.8c-5.5-0.7-11-2.7-16.5-3.1
									c-8.9-0.5-17,3.5-22.1,9.4s-7.5,13.3-8.7,20.8c-1,6.5-1.3,13.4-4.7,19c-5.3,8.9-17.4,13.1-22.2,22
									c-3.8,7.1-2.2,16.5,3.3,23.8c3.9,5.1,9.5,9.2,15.7,12c2.6,1.1,5.3,2.1,8.1,2.8c6.6,1.6,13.5,1.8,20,3.8
									c0.4,0.1,0.8,0.2,1.1,0.4c6.1,2,11.7,5.3,17.6,7.9c0.2,0.1,0.4,0.1,0.5,0.2c6.1,2.6,13,4.5,19.1,3
									c9.4-2.3,13.4-11.4,21.1-16.3c5.4-3.4,12.2-4.6,19-5.6s13.7-2,19.5-5C480.4,256.2,484.8,250.7,483.9,244.6L483.9,244.6z
									 M459.8,251.2c-4.6,2.4-10.1,3.1-15.5,3.9c-5.3,0.8-10.8,1.8-15,4.5c-6.1,3.9-9.3,11.1-16.7,12.9
									c-4.8,1.2-10.3-0.3-15.1-2.4c-0.1-0.1-0.3-0.1-0.4-0.2c-4.7-2.1-9.1-4.7-13.9-6.3c-0.3-0.1-0.6-0.2-0.9-0.3
									c-5.2-1.5-10.6-1.7-15.9-3c-2.2-0.5-4.4-1.3-6.4-2.2c-5-2.2-9.4-5.4-12.5-9.5c-4.4-5.8-5.7-13.2-2.6-18.8
									c3.8-7.1,13.4-10.5,17.6-17.5c2.7-4.4,2.9-9.9,3.7-15c1-5.9,2.9-11.9,6.9-16.5s10.5-7.9,17.5-7.4c4.4,0.3,8.7,1.9,13.1,2.4
									c9.6,1.2,18.5-2.9,25.8-7.8c2.6-1.8,5.3-3.6,8.5-4.5c1.6-0.4,3.4-0.5,5.1-0.2c1.8,0.3,3.4,1,4.6,2.2c2.9,2.7,2.6,6.9,1.1,10
									s-3.9,6-5.4,9.8c-1.6,3.8,0.1,7,2.8,9.8c2.7,2.7,6.3,4.7,9.5,6.9s6.3,5.1,7.1,8.5c1.1,4.9-2.8,9.4-2.3,14.3
									c0.5,5.2,5.9,9.7,6.7,14.8C467.9,244.5,464.4,248.9,459.8,251.2L459.8,251.2z"/>
								<path class="st3" d="M483.2,263.7c-6.5,3.3-14.3,4.4-21.9,5.5c-7.6,1.2-15.3,2.5-21.3,6.3c-2.7,1.7-5,3.9-7.2,6.1l0,0
									c-4.8,5-9.2,10.3-16.5,12c-6.8,1.6-14.6-0.4-21.4-3.4c-0.2-0.1-0.4-0.2-0.6-0.3c-6.6-2.9-12.9-6.6-19.7-8.9
									c-0.4-0.1-0.8-0.3-1.2-0.4c-7.3-2.2-15-2.5-22.4-4.2c-3.1-0.8-6.2-1.8-9.1-3.1c-7-3.1-13.3-7.7-17.6-13.4
									c-6.2-8.2-8-18.6-3.7-26.6c5.4-10.1,18.9-14.8,24.9-24.7c3.8-6.3,4.1-14,5.3-21.3c1.4-8.4,4.1-16.8,9.8-23.3
									c5.7-6.6,14.8-11.1,24.8-10.5c6.2,0.4,12.3,2.7,18.5,3.4c4.8,0.6,9.5,0.2,14.1-0.8c8.2-1.8,15.8-5.8,22.5-10.2
									c3.8-2.5,7.5-5.2,12.1-6.4c2.3-0.6,4.8-0.8,7.2-0.3c2.5,0.4,4.8,1.4,6.6,3.1c4,3.8,3.7,9.8,1.5,14.2s-5.5,8.4-7.7,13.8
									c-2.2,5.4,0.1,9.9,3.9,13.8c3.8,3.9,8.9,6.6,13.5,9.8s8.9,7.2,10,12.1c1.6,7-3.9,13.3-3.2,20.2c0.8,7.4,8.4,13.7,9.5,21
									C494.7,254.2,489.7,260.4,483.2,263.7L483.2,263.7z"/>
							</g>
							<g>
								<path class="st4" d="M432.8,221.1c0,11.7-8.4,21.6-20,25.1c-2.9,0.9-6.1,1.4-9.4,1.4c-16.2,0-29.4-11.9-29.4-26.5
									s13.2-26.5,29.4-26.5c2,0,3.9,0.2,5.7,0.5C422.6,197.6,432.8,208.3,432.8,221.1z"/>
								<path class="st5" d="M432.8,221.1c0,11.7-8.4,21.6-20,25.1c13.1-17.4,7.5-36.8-3.6-51.1
									C422.6,197.6,432.8,208.3,432.8,221.1z"/>
								<ellipse class="st3" cx="403.4" cy="221.1" rx="29.4" ry="26.5"/>
							</g>
							<path class="st6" d="M354,157.7l4.9,18.9c0.1,0.4,0.3,0.6,0.6,0.8l8.9,4.9c0.9,0.5,0.9,1.8,0,2.3l-8.9,4.9
								c-0.3,0.2-0.5,0.5-0.6,0.8l-4.9,19.3c-0.3,1.3-2.2,1.3-2.5,0l-4.9-19.3c-0.1-0.4-0.3-0.6-0.6-0.8l-8.9-4.9
								c-0.9-0.5-0.9-1.8,0-2.3l8.9-4.9c0.3-0.2,0.5-0.5,0.6-0.8l4.9-18.9C351.8,156.4,353.6,156.4,354,157.7L354,157.7z"/>
							<path class="st6" d="M490.3,222.7l2.8,10.6c0,0.2,0.2,0.4,0.4,0.5l5,2.8c0.5,0.3,0.5,1,0,1.3l-5,2.8
								c-0.2,0.1-0.3,0.3-0.4,0.5l-2.8,10.9c-0.2,0.7-1.2,0.7-1.4,0l-2.8-10.9c0-0.2-0.2-0.4-0.4-0.5l-5-2.8c-0.5-0.3-0.5-1,0-1.3
								l5-2.8c0.2-0.1,0.3-0.3,0.4-0.5l2.8-10.6C489.1,222,490.1,222,490.3,222.7z"/>
							<path class="st6" d="M394.3,282.1l1.6,6.3c0,0.1,0.1,0.2,0.2,0.3l3,1.6c0.3,0.2,0.3,0.6,0,0.8l-3,1.6
								c-0.1,0.1-0.2,0.2-0.2,0.3l-1.6,6.4c-0.1,0.4-0.7,0.4-0.8,0l-1.6-6.4c0-0.1-0.1-0.2-0.2-0.3l-3-1.6c-0.3-0.2-0.3-0.6,0-0.8
								l3-1.6c0.1-0.1,0.2-0.1,0.2-0.3l1.6-6.3C393.6,281.6,394.2,281.6,394.3,282.1z"/>
							<path class="st6" d="M425.1,198l1.6,6.3c0,0.1,0.1,0.2,0.2,0.3l3,1.6c0.3,0.2,0.3,0.6,0,0.8l-3,1.6c-0.1,0.1-0.2,0.2-0.2,0.3
								l-1.6,6.4c-0.1,0.4-0.7,0.4-0.8,0l-1.6-6.4c0-0.1-0.1-0.2-0.2-0.3l-3-1.6c-0.3-0.2-0.3-0.6,0-0.8l3-1.6
								c0.1-0.1,0.2-0.1,0.2-0.3l1.6-6.3C424.3,197.6,425,197.6,425.1,198z"/>
						</g>
					</g>
				</g>
			</g>
		</g>
	</g>
</g>
</svg>
