<?xml version="1.0" encoding="utf-8"?>
<!-- Generator: Adobe Illustrator 27.7.0, SVG Export Plug-In . SVG Version: 6.00 Build 0)  -->
<svg version="1.1" id="Layer_1" xmlns="http://www.w3.org/2000/svg" xmlns:xlink="http://www.w3.org/1999/xlink" x="0px" y="0px"
	 viewBox="0 0 545.1 545.1" style="enable-background:new 0 0 545.1 545.1;" xml:space="preserve">
<style type="text/css">
	.st0{clip-path:url(#SVGID_00000080913929902193611900000016941042451127806619_);}
	.st1{fill:#FFC800;}
	.st2{fill:#D89000;}
	.st3{fill:none;stroke:#000000;stroke-width:5;stroke-miterlimit:10;}
	.st4{fill:#FFFFFF;}
</style>
<g>
	<g id="Layer_2_00000060709443176388215340000003660071022010466950_">
		<g id="Layer_1-2">
			<g>
				<defs>
					<rect id="SVGID_1_" y="0" width="545.1" height="545.1"/>
				</defs>
				<clipPath id="SVGID_00000007420893234407783780000015996460694675456949_">
					<use xlink:href="#SVGID_1_"  style="overflow:visible;"/>
				</clipPath>
				<g style="clip-path:url(#SVGID_00000007420893234407783780000015996460694675456949_);">
					<g>
						<g>
							<path class="st1" d="M464.9,140c10.6,10.6,17.4,23.7,20.3,37.3c1.9,9.1,2.2,18.4,0.7,27.6c-2.4,15.1-9.4,29.5-21,41.2
								c-1.4,1.4-2.9,2.8-4.5,4.1c-6.8,5.8-14.4,10.1-22.3,13.1c-10.6,4-22,5.4-33.2,4.4c-3.6-0.3-7.1-0.9-10.6-1.7
								c-3.6-0.9-7.2-2-10.6-3.4c-9-3.7-17.5-9.1-24.8-16.5c-15.4-15.4-22.6-35.7-21.9-55.8c0-1.5,0.1-2.9,0.3-4.4
								c1.6-16.8,8.8-33.1,21.6-45.9c17-17,40-24.1,62.1-21.4c11,1.3,21.8,5.1,31.4,11.3c1.4,0.9,2.8,1.8,4.1,2.8
								C459.4,134.8,462.2,137.3,464.9,140L464.9,140z"/>
							<path class="st2" d="M464.9,140c10.6,10.6,17.4,23.7,20.3,37.3c1.9,9.1,2.2,18.4,0.7,27.6c-2.4,15.1-9.4,29.5-21,41.2
								c-1.4,1.4-2.9,2.8-4.5,4.1c-6.8,5.8-14.4,10.1-22.3,13.1c-10.6,4-22,5.4-33.2,4.4c98.3-32.1,75.9-126.1,16.1-149.1
								c11,1.3,21.8,5.1,31.4,11.3c1.4,0.9,2.8,1.8,4.1,2.8C459.4,134.8,462.3,137.3,464.9,140L464.9,140z"/>
							<path class="st3" d="M464.9,140c10.6,10.6,17.4,23.7,20.3,37.3c1.9,9.1,2.2,18.4,0.7,27.6c-2.4,15.1-9.4,29.5-21,41.2
								c-1.4,1.4-2.9,2.8-4.5,4.1c-6.8,5.8-14.4,10.1-22.3,13.1c-10.6,4-22,5.4-33.2,4.4c-3.6-0.3-7.1-0.9-10.6-1.7
								c-3.6-0.9-7.2-2-10.6-3.4c-9-3.7-17.5-9.1-24.8-16.5c-15.4-15.4-22.6-35.7-21.9-55.8c0-1.5,0.1-2.9,0.3-4.4
								c1.6-16.8,8.8-33.1,21.6-45.9c17-17,40-24.1,62.1-21.4c11,1.3,21.8,5.1,31.4,11.3c1.4,0.9,2.8,1.8,4.1,2.8
								C459.4,134.8,462.2,137.3,464.9,140L464.9,140z"/>
						</g>
						<g>
							<path class="st1" d="M418,88.6c-1.1,0.3-2.2,0.6-3.3,0.8c-8.4,1.1-14-5-15,2c-1,7.1,3,25.6,11.6,24.8
								c2.2-0.2,4.4-1.6,6.5-3.7c6.5-6.5,12-19.6,12.7-25.2C431.2,80.8,425.2,86.3,418,88.6z M401.4,255.5c-2-3.5-4.3-5.9-7.1-6.2
								c-9.4-1-20.4,23.4-21.8,33.3c-1.4,9.6,6.8,1.9,16,2.6c0.4,0,0.8,0.1,1.2,0.1c9.9,1.6,16.9,13.5,18.1,2.9
								C408.7,280.7,406.3,264.4,401.4,255.5L401.4,255.5z M530.2,160.7c-12.8,0.3-44.9,8.5-45.4,17.7c-0.5,9.4,31.7,17.7,44.9,18
								c13.7,0.3,0.1-8.2,0.2-18.1C530.1,168.4,543.4,160.3,530.2,160.7L530.2,160.7z M314.1,166.2c-6.8,0.2-1.2,5.7-2.7,12.8
								c-1.5,7.2-9.7,13-2.8,13.1c7.1,0.1,27.7-5.7,29.1-13.2C339.2,171.5,321.1,166,314.1,166.2z M500.6,249.4
								c-8.8-8.5-37.3-24.1-45.7-17.7c-8.4,6.4,4.7,33.1,12.8,41.9c8.3,9.1,7.3-5.4,16.3-12C493.1,254.9,509.7,258.2,500.6,249.4
								L500.6,249.4z M357.4,110.9c-4.4-4.2-4.8,4.3-10.8,9.5c-5.9,5.2-14.6,5-10.6,9.4c3.8,4.1,17.6,11.1,24.8,8.3
								c1.1-1,2.1-2,3.3-2.9C367.7,128.6,361.5,114.8,357.4,110.9L357.4,110.9z M347.9,224.2c-4.6-6.2-25.6,3.3-32.1,8.7
								c-6.5,5.4,3.3,5.1,7.5,11.4c4.3,6.6,1.1,17.6,7.9,12.1C338.1,250.8,352.6,230.6,347.9,224.2L347.9,224.2z M491.8,106
								c-0.5-0.3-0.9-0.7-1.3-1.1c-5.6-5.2-4.2-13.9-11.6-7.7c-7.9,6.5-22.9,27.5-16.2,32.7c1,0.8,2.5,1.2,4.3,1.2
								c10.3,0.3,31.3-10,38.5-15.8C514.1,108.4,499.3,111.1,491.8,106L491.8,106z"/>
							<g>
								<path class="st1" d="M430.4,87.2c-0.6,5.6-6.2,18.7-12.7,25.2c2.4-8.7,1.6-17.3,0.2-23.8C425.2,86.3,431.1,80.8,430.4,87.2z
									"/>
								<path class="st2" d="M505.6,115.3c-7.2,5.8-28.2,16.2-38.5,15.8c10.2-7.9,17.9-17,23.4-26.2c0.4,0.4,0.9,0.7,1.3,1.1
									C499.3,111.1,514.1,108.4,505.6,115.3L505.6,115.3z"/>
								<path class="st2" d="M407.9,288.2c-1.2,10.7-8.2-1.3-18.1-2.9c-0.4-0.1-0.8-0.1-1.2-0.1c5.5-9.2,9.6-18.2,12.9-29.7
									C406.3,264.4,408.7,280.7,407.9,288.2L407.9,288.2z"/>
								<path class="st2" d="M530,178.2c-0.1,9.9,13.4,18.4-0.2,18.1c-13.2-0.2-45.4-8.6-44.9-18c0.5-9.2,32.5-17.4,45.3-17.7
									C543.4,160.3,530.1,168.5,530,178.2L530,178.2z"/>
								<path class="st2" d="M500.6,249.4c9.1,8.8-7.5,5.5-16.6,12.2c-9.1,6.7-8,21.1-16.3,12c-8-8.8-21.1-35.6-12.8-41.9
									C463.3,225.3,491.8,240.9,500.6,249.4L500.6,249.4z"/>
							</g>
							<path class="st3" d="M418,88.6c-1.1,0.3-2.2,0.6-3.3,0.8c-8.4,1.1-14-5-15,2c-1,7.1,3,25.6,11.6,24.8
								c2.2-0.2,4.4-1.6,6.5-3.7c6.5-6.5,12-19.6,12.7-25.2C431.2,80.8,425.2,86.3,418,88.6z M401.4,255.5c-2-3.5-4.3-5.9-7.1-6.2
								c-9.4-1-20.4,23.4-21.8,33.3c-1.4,9.6,6.8,1.9,16,2.6c0.4,0,0.8,0.1,1.2,0.1c9.9,1.6,16.9,13.5,18.1,2.9
								C408.7,280.7,406.3,264.4,401.4,255.5L401.4,255.5z M530.2,160.7c-12.8,0.3-44.9,8.5-45.4,17.7c-0.5,9.4,31.7,17.7,44.9,18
								c13.7,0.3,0.1-8.2,0.2-18.1C530.1,168.4,543.4,160.3,530.2,160.7L530.2,160.7z M314.1,166.2c-6.8,0.2-1.2,5.7-2.7,12.8
								c-1.5,7.2-9.7,13-2.8,13.1c7.1,0.1,27.7-5.7,29.1-13.2C339.2,171.5,321.1,166,314.1,166.2z M500.6,249.4
								c-8.8-8.5-37.3-24.1-45.7-17.7c-8.4,6.4,4.7,33.1,12.8,41.9c8.3,9.1,7.3-5.4,16.3-12C493.1,254.9,509.7,258.2,500.6,249.4
								L500.6,249.4z M357.4,110.9c-4.4-4.2-4.8,4.3-10.8,9.5c-5.9,5.2-14.6,5-10.6,9.4c3.8,4.1,17.6,11.1,24.8,8.3
								c1.1-1,2.1-2,3.3-2.9C367.7,128.6,361.5,114.8,357.4,110.9L357.4,110.9z M347.9,224.2c-4.6-6.2-25.6,3.3-32.1,8.7
								c-6.5,5.4,3.3,5.1,7.5,11.4c4.3,6.6,1.1,17.6,7.9,12.1C338.1,250.8,352.6,230.6,347.9,224.2L347.9,224.2z M491.8,106
								c-0.5-0.3-0.9-0.7-1.3-1.1c-5.6-5.2-4.2-13.9-11.6-7.7c-7.9,6.5-22.9,27.5-16.2,32.7c1,0.8,2.5,1.2,4.3,1.2
								c10.3,0.3,31.3-10,38.5-15.8C514.1,108.4,499.3,111.1,491.8,106L491.8,106z"/>
						</g>
						<path class="st4" d="M348.8,119l4.9,18.9c0.1,0.4,0.3,0.6,0.6,0.8l8.9,4.9c0.9,0.5,0.9,1.8,0,2.3l-8.9,4.9
							c-0.3,0.2-0.5,0.5-0.6,0.8l-4.9,19.3c-0.3,1.3-2.2,1.3-2.5,0l-4.9-19.3c-0.1-0.4-0.3-0.6-0.6-0.8l-8.9-4.9
							c-0.9-0.5-0.9-1.8,0-2.3l8.9-4.9c0.3-0.2,0.5-0.5,0.6-0.8l4.9-18.9C346.6,117.7,348.5,117.7,348.8,119L348.8,119z"/>
						<path class="st4" d="M485.4,197l3.2,12.3c0.1,0.2,0.2,0.4,0.4,0.5l5.8,3.2c0.6,0.3,0.6,1.2,0,1.5l-5.8,3.2
							c-0.2,0.1-0.4,0.3-0.4,0.5l-3.2,12.6c-0.2,0.9-1.4,0.9-1.6,0l-3.2-12.6c-0.1-0.2-0.2-0.4-0.4-0.5l-5.8-3.2
							c-0.6-0.3-0.6-1.2,0-1.5l5.8-3.2c0.2-0.1,0.4-0.3,0.4-0.5l3.2-12.3C484,196.1,485.2,196.1,485.4,197z"/>
						<path class="st4" d="M400.3,273.2l3.1,11.8c0.1,0.2,0.2,0.4,0.4,0.5l5.6,3.1c0.6,0.3,0.6,1.1,0,1.4l-5.6,3.1
							c-0.2,0.1-0.3,0.3-0.4,0.5l-3.1,12.1c-0.2,0.8-1.4,0.8-1.6,0l-3.1-12.1c-0.1-0.2-0.2-0.4-0.4-0.5l-5.6-3.1
							c-0.6-0.3-0.6-1.1,0-1.4l5.6-3.1c0.2-0.1,0.3-0.3,0.4-0.5l3.1-11.8C399,272.4,400.1,272.4,400.3,273.2z"/>
						<path class="st4" d="M452.6,96.6l1.6,6c0,0.1,0.1,0.2,0.2,0.3l2.9,1.6c0.3,0.2,0.3,0.6,0,0.7l-2.9,1.6
							c-0.1,0.1-0.2,0.2-0.2,0.3l-1.6,6.2c-0.1,0.4-0.7,0.4-0.8,0l-1.6-6.2c0-0.1-0.1-0.2-0.2-0.3l-2.9-1.6c-0.3-0.2-0.3-0.6,0-0.7
							l2.9-1.6c0.1-0.1,0.2-0.2,0.2-0.3l1.6-6C451.9,96.2,452.5,96.2,452.6,96.6z"/>
					</g>
				</g>
			</g>
		</g>
	</g>
</g>
</svg>
