<?xml version="1.0" encoding="utf-8"?>
<!-- Generator: Adobe Illustrator 27.7.0, SVG Export Plug-In . SVG Version: 6.00 Build 0)  -->
<svg version="1.1" id="Layer_1" xmlns="http://www.w3.org/2000/svg" xmlns:xlink="http://www.w3.org/1999/xlink" x="0px" y="0px"
	 viewBox="0 0 545.1 545.1" style="enable-background:new 0 0 545.1 545.1;" xml:space="preserve">
<style type="text/css">
	.st0{clip-path:url(#SVGID_00000183218188139691338530000006055588519757661838_);}
	.st1{fill:#00C4ED;stroke:#000000;stroke-width:5;stroke-linecap:round;stroke-linejoin:round;}
	.st2{fill:#0083CC;}
	.st3{fill:none;stroke:#000000;stroke-width:5;stroke-linecap:round;stroke-linejoin:round;}
</style>
<g>
	<g id="Layer_2_00000147938541534111895440000010477158789705590711_">
		<g id="Layer_1-2">
			<g>
				<defs>
					<rect id="SVGID_1_" y="0" width="545.1" height="545.1"/>
				</defs>
				<clipPath id="SVGID_00000097493032672520636660000016032058911945020817_">
					<use xlink:href="#SVGID_1_"  style="overflow:visible;"/>
				</clipPath>
				<g style="clip-path:url(#SVGID_00000097493032672520636660000016032058911945020817_);">
					<g>
						<path class="st1" d="M249.3,224.2c-2.8-7.8-6.3-10.8-18.3-19c-4.2-2.8-8.6-5.3-13.1-7.4c-0.4-0.9-0.6-1.4-0.6-1.4
							c-0.3,0.2-0.6,0.5-0.9,0.7c-30.5,24.8-63.9,16-63.9,16c-12.8,20.7-45.6,23.4-45.6,23.4c3.9,8.6,1.7,17.3-0.8,23.1
							c-1.8,4-3.7,6.6-3.7,6.6s15.2,15.6,14,34.7c-0.2,2.5-0.6,5.1-1.4,7.8c0,0,0,0.1,0,0.1c-1.2,4-3.4,8.1-6.6,12.2
							c-4.1,5.2-8.1,8-11.8,9.1c-15.5,4.8-26.8-19.4-26.8-19.4c-51,3.1-28.9-44.5-28.9-44.5c-57.4-31,1.5-69.7,1.5-69.7
							c-3.4-14.2,7.3-37.8,34-28.9c10.4-41.6,28.9-52.3,45.2-52.2c17.7,0.1,32.9,12.9,32.9,12.9c49.9-45,89.6,14.5,89,56.9
							C263.9,194.8,259.2,215.7,249.3,224.2L249.3,224.2z"/>
						<path class="st2" d="M121.7,115.5c-18.9,9.8-27.1,22.3-29.6,44.3c-1.6,14.1-5.7,27.9-12.9,40.1c-4.3,7.2-7,17.6-2,31
							c3.2,8.7,9.7,15.7,17.8,20.2c3.4,1.9,7.4,4.6,11.1,8.6c-1.8,4-3.7,6.6-3.7,6.6s15.2,15.6,14,34.7c-0.3,2.5-0.8,5.1-1.4,7.8
							v0.1c-1.3,4-3.4,8.1-6.6,12.2c-4.1,5.2-8.1,8-11.8,9.1c-15.5,4.8-26.8-19.4-26.8-19.4c-51,3.1-28.9-44.5-28.9-44.5
							c-57.4-31,1.5-69.7,1.5-69.7c-3.4-14.2,7.3-37.8,34-28.9C86.9,126.1,105.4,115.4,121.7,115.5L121.7,115.5z"/>
						<path class="st3" d="M249.3,224.2c-2.8-7.8-6.3-10.8-18.3-19c-4.2-2.8-8.6-5.3-13.1-7.4c-0.4-0.9-0.6-1.4-0.6-1.4
							c-0.3,0.2-0.6,0.5-0.9,0.7c-30.5,24.8-63.9,16-63.9,16c-12.8,20.7-45.6,23.4-45.6,23.4c3.9,8.6,1.7,17.3-0.8,23.1
							c-1.8,4-3.7,6.6-3.7,6.6s15.2,15.6,14,34.7c-0.2,2.5-0.6,5.1-1.4,7.8c0,0,0,0.1,0,0.1c-1.2,4-3.4,8.1-6.6,12.2
							c-4.1,5.2-8.1,8-11.8,9.1c-15.5,4.8-26.8-19.4-26.8-19.4c-51,3.1-28.9-44.5-28.9-44.5c-57.4-31,1.5-69.7,1.5-69.7
							c-3.4-14.2,7.3-37.8,34-28.9c10.4-41.6,28.9-52.3,45.2-52.2c17.7,0.1,32.9,12.9,32.9,12.9c49.9-45,89.6,14.5,89,56.9
							C263.9,194.8,259.2,215.7,249.3,224.2L249.3,224.2z"/>
					</g>
				</g>
			</g>
		</g>
	</g>
</g>
</svg>
