<?xml version="1.0" encoding="utf-8"?>
<!-- Generator: Adobe Illustrator 27.7.0, SVG Export Plug-In . SVG Version: 6.00 Build 0)  -->
<svg version="1.1" id="Layer_1" xmlns="http://www.w3.org/2000/svg" xmlns:xlink="http://www.w3.org/1999/xlink" x="0px" y="0px"
	 viewBox="0 0 545.1 545.1" style="enable-background:new 0 0 545.1 545.1;" xml:space="preserve">
<style type="text/css">
	.st0{clip-path:url(#SVGID_00000005974752835857250180000012602849758746590624_);}
	.st1{fill:#00D295;}
	.st2{fill:#009680;}
	.st3{fill:none;stroke:#000000;stroke-width:5;stroke-linecap:round;stroke-linejoin:round;}
</style>
<g>
	<g id="Layer_2_00000047038147748619965440000009357450461167018162_">
		<g id="Layer_1-2">
			<g>
				<defs>
					<rect id="SVGID_1_" y="0" width="545.1" height="545.1"/>
				</defs>
				<clipPath id="SVGID_00000148643445825571544680000004740257488171332796_">
					<use xlink:href="#SVGID_1_"  style="overflow:visible;"/>
				</clipPath>
				<g style="clip-path:url(#SVGID_00000148643445825571544680000004740257488171332796_);">
					<g>
						<g>
							<path class="st1" d="M179,134c9.6-7.5,16.1-11.4,25-9.1c-18.8,19.5-13.6,38.4-13.6,38.4s-10.2-9.6-10.2-9.2S179,134,179,134
								L179,134z"/>
							<path class="st2" d="M179,134c9.6-7.5,16.1-11.4,25-9.1c-18.8,19.5-13.6,38.4-13.6,38.4s-10.2-9.6-10.2-9.2S179,134,179,134
								L179,134z"/>
						</g>
						<g>
							<path class="st1" d="M199.8,196.1c-23.2,7.5-25.6,1-41.8,7.1c-38.1,16.4-54.2,33-64.3,47.9c-2.8,4.2-5.2,8.3-7.4,12.2
								c-6.4-35-26.8-48-26.8-48c10.4-20.3,21.8-45.4,40.1-64.6c2.5-2.6,5.2-5.1,7.9-7.5c21.6-15.7,40.3-27.3,58.9-26.2
								c11.6-1,19.2,0,19.2,0S182,158.2,199.8,196.1z"/>
							<path class="st2" d="M119,223.1c-18.9,17.1-30.5,36.3-32.7,40.2c-6.4-35-26.8-48-26.8-48c10.4-20.3,21.8-45.4,40.1-64.6
								C72.4,201,112.5,196.1,119,223.1L119,223.1z"/>
						</g>
						<g>
							<path class="st3" d="M199.8,196.1c-6.4-18.1-17.3-45-14.3-79.1c0,0-15.2-3.5-32.2,2c-59.8,17.8-79.5,64.6-93.9,96.4
								c14.8,9.7,26.2,35.1,26.8,48c14.3-23.9,32.2-51.8,84.6-63.5C183,201,191.5,199.8,199.8,196.1L199.8,196.1z"/>
							<path class="st3" d="M153.3,119c0,0,1.1,53.3,17.6,80.8"/>
							<path class="st3" d="M199.8,196.1c-21.9-66.3,4.2-71.3,4.2-71.3s-8.6-2.6-19,5.2"/>
							<path class="st3" d="M166.9,210.8c0,0-49.3,10-71.4,54.4"/>
						</g>
						<path class="st3" d="M166.2,116.3c0,0-4.6,38.3,15.2,83.9"/>
						<path class="st3" d="M176.4,116c0,0-6.7,34.2,15.3,82.9"/>
					</g>
				</g>
			</g>
		</g>
	</g>
</g>
</svg>
