<?xml version="1.0" encoding="utf-8"?>
<!-- Generator: Adobe Illustrator 27.7.0, SVG Export Plug-In . SVG Version: 6.00 Build 0)  -->
<svg version="1.1" id="Layer_1" xmlns="http://www.w3.org/2000/svg" xmlns:xlink="http://www.w3.org/1999/xlink" x="0px" y="0px"
	 viewBox="0 0 545.1 545.1" style="enable-background:new 0 0 545.1 545.1;" xml:space="preserve">
<style type="text/css">
	.st0{clip-path:url(#SVGID_00000153680143175421486100000006185363170718957750_);}
	.st1{fill:#FF6D00;}
	.st2{fill:#FF7800;stroke:#000000;stroke-width:5;stroke-linecap:round;stroke-linejoin:round;}
	.st3{fill:#E24B00;}
	.st4{fill:none;stroke:#000000;stroke-width:5;stroke-linecap:round;stroke-linejoin:round;}
	.st5{fill:#FFFFFF;}
</style>
<g>
	<g id="Layer_2_00000057138030544036270030000006907851601963372706_">
		<g id="Layer_1-2">
			<g>
				<defs>
					<rect id="SVGID_1_" y="0" width="545.1" height="545.1"/>
				</defs>
				<clipPath id="SVGID_00000154400642543312015900000000509173575227536515_">
					<use xlink:href="#SVGID_1_"  style="overflow:visible;"/>
				</clipPath>
				<g style="clip-path:url(#SVGID_00000154400642543312015900000000509173575227536515_);">
					<g>
						<g>
							<g>
								<path class="st1" d="M74.6,252.7c0,0,18.9-19,23.2-18.3s-9.6,12.2-10.2,28.3c-0.6,16.1-9,1.8-9.4,1.5S74.6,252.7,74.6,252.7
									L74.6,252.7z"/>
								<path class="st2" d="M141.7,295.5c-1.9,12.2-15.3,24-46.2,16.7c-5.5-1.3-11.5-3.1-18.1-5.7c-18.1-23.5-15-44-4.9-57.1
									c6.4-8.4,15.7-13.7,24.1-14.9c0.4-0.1,0.8-0.1,1.1-0.1l-13.7,18.7c1.1,2,2.2,3.5,3.6,4.6c0.2,0.2,0.3,0.3,0.5,0.4
									c8.7,7,22-1.3,32.9-1.3C133.8,256.8,144,281.1,141.7,295.5z"/>
								<path class="st3" d="M132.1,309.8c-25.8,9.5-48.1-0.6-54.7-3.2c-18.1-23.5-19.3-60.5,19.2-72
									C57.4,259.1,67.8,313.7,132.1,309.8z"/>
								<path class="st4" d="M87.7,257.7c2.3-8.2,5.8-16.1,10.2-23.3"/>
								<path class="st4" d="M141.7,295.5c-1.9,12.2-15.3,24-46.2,16.7c-5.5-1.3-11.5-3.1-18.1-5.7c-18.1-23.5-15-44-4.9-57.1
									c6.4-8.4,15.7-13.7,24.1-14.9c0.4-0.1,0.8-0.1,1.1-0.1l-13.7,18.7c1.1,2,2.2,3.5,3.6,4.6c0.2,0.2,0.3,0.3,0.5,0.4
									c8.7,7,22-1.3,32.9-1.3C133.8,256.8,144,281.1,141.7,295.5z"/>
							</g>
							<g>
								<path class="st2" d="M268,229c0,22.1-5.4,26.6-5.4,26.6s-0.8-0.5-2.1-1.4c-0.4-0.3-0.9-0.6-1.3-1
									c-5.5-4.4-12.4-13.7-12.6-24.7c-0.1-3.4-0.4-7.9-2.4-11.5s-7.2-8.2-19-15.4c0.3,0,7.2-0.6,15.5,0.9
									C252,204.7,265.8,211.1,268,229z"/>
								<path class="st3" d="M267.3,241.8c-1.6,3.9-2.1,13.9-4.6,13.8c-6.4-0.3-15.9-19.2-16.1-27c-0.1-3.4-0.4-7.9-2.4-11.5
									s-7.2-8.2-19-15.4c0.3,0,0.7-1.5,8.9,0.1c20.7,16.4,15.4,18.6,16.4,28.6C251.2,237.7,261,248.9,267.3,241.8L267.3,241.8z"/>
								<path class="st4" d="M268,229c0,22.1-5.4,26.6-5.4,26.6s-0.8-0.5-2.1-1.4c-0.4-0.3-0.9-0.6-1.3-1
									c-5.5-4.4-12.4-13.7-12.6-24.7c-0.1-3.4-0.4-7.9-2.4-11.5s-7.2-8.2-19-15.4c0.3,0,7.2-0.6,15.5,0.9
									C252,204.7,265.8,211.1,268,229z"/>
							</g>
						</g>
						<g>
							<path class="st5" d="M191.5,196.2c0.1,1.2-2.7,1.8-5.2,1.6c-1.9-0.1-3.5-0.7-4-1.4c-0.6-0.7,0.1-1.6,2.1-2
								C187.4,194,191.4,194.8,191.5,196.2L191.5,196.2z"/>
							<path class="st5" d="M195.9,197.2c-2.6,2.2,8.9,4,14.7,6.5c5.8,2.5,9.5,3.4,6.8,1.2C212.1,200.5,198.9,194.6,195.9,197.2
								L195.9,197.2z"/>
						</g>
					</g>
				</g>
			</g>
		</g>
	</g>
</g>
</svg>
