<?xml version="1.0" encoding="utf-8"?>
<!-- Generator: Adobe Illustrator 27.7.0, SVG Export Plug-In . SVG Version: 6.00 Build 0)  -->
<svg version="1.1" id="Layer_1" xmlns="http://www.w3.org/2000/svg" xmlns:xlink="http://www.w3.org/1999/xlink" x="0px" y="0px"
	 viewBox="0 0 545.1 545.1" style="enable-background:new 0 0 545.1 545.1;" xml:space="preserve">
<style type="text/css">
	.st0{clip-path:url(#SVGID_00000084511738546420174180000008736947158052825486_);}
	.st1{fill:#00D1B2;stroke:#000000;stroke-width:5;stroke-linecap:round;stroke-linejoin:round;}
	.st2{fill:#00AEB2;}
	.st3{fill:none;stroke:#000000;stroke-width:5;stroke-linecap:round;stroke-linejoin:round;}
	.st4{fill:#301ECA;stroke:#000000;stroke-width:5;stroke-linecap:round;stroke-linejoin:round;}
	.st5{fill:#280A93;}
</style>
<g>
	<g id="Layer_2_00000135671619030832100990000012377539897324387504_">
		<g id="Layer_1-2">
			<g>
				<defs>
					<rect id="SVGID_1_" y="0" width="545.1" height="545.1"/>
				</defs>
				<clipPath id="SVGID_00000063613514344365960350000015845338177364178609_">
					<use xlink:href="#SVGID_1_"  style="overflow:visible;"/>
				</clipPath>
				<g style="clip-path:url(#SVGID_00000063613514344365960350000015845338177364178609_);">
					<g>
						<g>
							<path class="st1" d="M128.4,291c0.7,19.3,14.4,31.1-13.3,23.8c-5.2-1.4-10.1-0.4-14.3,2.2c-17.9,11.4-23.3,54.4,5.6,82.4
								c0,0-57.3-30.9-26.4-125.2H80l48.3-12.5l12.9-3C140.6,259.3,127.7,272,128.4,291L128.4,291z"/>
							<path class="st2" d="M106.4,399.4c0,0-57.3-30.9-26.4-125.2h0.1l48.3-12.5c-44,27.7-7.8,27.2-27.6,55.4
								C82.9,328.5,77.5,371.5,106.4,399.4L106.4,399.4z"/>
							<path class="st3" d="M128.4,291c0.7,19.3,14.4,31.1-13.3,23.8c-5.2-1.4-10.1-0.4-14.3,2.2c-17.9,11.4-23.3,54.4,5.6,82.4
								c0,0-57.3-30.9-26.4-125.2H80l48.3-12.5l12.9-3C140.6,259.3,127.7,272,128.4,291L128.4,291z"/>
						</g>
						<g>
							<path class="st4" d="M296.9,170.9c-7.5,13.1-21.1,25.3-38.1,36.4l0,0c-29.3,19.1-68.7,35-103.9,46.6c0,0,0,0,0,0
								c-11,3.6-21.5,6.8-31.2,9.6c0,0,0,0,0,0c-11.1,3.2-21.2,5.8-29.5,7.7c-6.3,1.5-12.3,2.5-18.1,3c-42.3,3.9-68.8-15.4-49.1-18
								c22.3-2.9,30.8-6.8,43.3-12.4c0,0,11.4-28.8-8.7-61c-4.3-6.9-4.5-13.3,1.9-18.6c5.8-4.8,16.9-8.7,35.2-11.2
								c38.5-5.4,48.8-13.5,48.8-13.5s4.6-43.8,35-20.4c51.2,39.5,59.1,70.9,59.1,70.9C280.9,183.2,319.4,131.7,296.9,170.9
								L296.9,170.9z"/>
							<path class="st5" d="M148.2,151c5.9-11.3,4.7-31.6,21.2-38.8c0,0-17.2-1.7-22,22.4C145.3,145.4,147.6,152.3,148.2,151
								L148.2,151z"/>
							<path class="st5" d="M180.6,221.2c-0.7,0.9-22.8,28.6-57,42.2c0,0,0,0,0,0c-11.1,3.2-21.2,5.8-29.5,7.7
								c-6.3,1.5-12.3,2.5-18.1,3c-42.3,3.9-68.8-15.4-49.1-18c22.3-2.9,30.8-6.8,43.3-12.4c0,0,11.4-28.8-8.7-61
								c-4.3-6.9-4.5-13.3,1.9-18.6c9.4,30.3,28.7,47,25.8,55.2c-4.1,11.6-13.6,28.4,17.3,22.2C106.5,241.7,168.1,232.3,180.6,221.2
								L180.6,221.2z"/>
							<g>
								<path class="st3" d="M296.9,170.9c-7.5,13.1-21.1,25.3-38.1,36.4l0,0c-29.3,19.1-68.7,35-103.9,46.6c0,0,0,0,0,0
									c-11,3.6-21.5,6.8-31.2,9.6c0,0,0,0,0,0c-11.1,3.2-21.2,5.8-29.5,7.7c-6.3,1.5-12.3,2.5-18.1,3c-42.3,3.9-68.8-15.4-49.1-18
									c22.3-2.9,30.8-6.8,43.3-12.4c0,0,11.4-28.8-8.7-61c-4.3-6.9-4.5-13.3,1.9-18.6c5.8-4.8,16.9-8.7,35.2-11.2
									c38.5-5.4,48.8-13.5,48.8-13.5s4.6-43.8,35-20.4c51.2,39.5,59.1,70.9,59.1,70.9C280.9,183.2,319.4,131.7,296.9,170.9
									L296.9,170.9z"/>
								<path class="st3" d="M95,241.7c0,0,51.6-0.7,105.8-30.3"/>
							</g>
							<line class="st3" x1="147.4" y1="139.5" x2="146.4" y2="150.6"/>
							<path class="st3" d="M70.2,243.9c-2.9,8-4,9.4-4,9.4"/>
							<path class="st3" d="M241.5,190c0,0,1.1,3.5,0.8,6.9"/>
						</g>
					</g>
				</g>
			</g>
		</g>
	</g>
</g>
</svg>
