<svg width="546" height="546" viewBox="0 0 546 546" fill="none" xmlns="http://www.w3.org/2000/svg">
<g clip-path="url(#clip0_72_2106)">
<mask id="mask0_72_2106" style="mask-type:luminance" maskUnits="userSpaceOnUse" x="0" y="0" width="546" height="546">
<path d="M545.1 0H0V545.1H545.1V0Z" fill="white"/>
</mask>
<g mask="url(#mask0_72_2106)">
<path d="M127 359.46C126.626 360.74 126.066 361.922 125.318 363.005C115.601 378.269 80.1873 372.853 73.9269 336.515C70.75 317.706 76.076 306.184 84.7658 302.934C94.1097 299.488 107.191 305.495 117.469 322.334" fill="#FFC68E"/>
<path d="M130.4 359.6C130 360.9 129.4 362.1 128.6 363.2C120.3 375.6 98.9999 373.9 84.0999 357.8C75.3999 341.3 71.4999 306 96.6999 302.7C105.7 303.1 111.5 308.3 120.3 322L130.4 359.6Z" fill="#D18154"/>
<path d="M105.7 327.3C106 327.6 97.6999 313.4 92.8999 317.9C88.0999 322.4 92.8999 324.2 92.8999 324.2C92.8999 324.2 95.9999 318.5 105.7 327.3Z" fill="#FFC68E"/>
<path d="M87.8999 315.3C96.5999 312.8 103.3 320.6 106.3 325.9" stroke="black" stroke-width="5" stroke-linecap="round" stroke-linejoin="round"/>
<path d="M94.3999 315.3C94.3999 315.3 85.3999 336.3 102.3 349.4" stroke="black" stroke-width="5" stroke-linecap="round" stroke-linejoin="round"/>
<path d="M130.4 359.6C123.8 379.3 80.8 375.8 73.6 336.4C66.4 297 99 288.9 120.3 322" stroke="black" stroke-width="5" stroke-linecap="round" stroke-linejoin="round"/>
</g>
</g>
<defs>
<clipPath id="clip0_72_2106">
<rect width="545.1" height="545.1" fill="white"/>
</clipPath>
</defs>
</svg>
