<?xml version="1.0" encoding="utf-8"?>
<!-- Generator: Adobe Illustrator 27.7.0, SVG Export Plug-In . SVG Version: 6.00 Build 0)  -->
<svg version="1.1" id="Layer_1" xmlns="http://www.w3.org/2000/svg" xmlns:xlink="http://www.w3.org/1999/xlink" x="0px" y="0px"
	 viewBox="0 0 545.1 545.1" style="enable-background:new 0 0 545.1 545.1;" xml:space="preserve">
<style type="text/css">
	.st0{clip-path:url(#SVGID_00000091725800430322690200000008729864011767080344_);}
	.st1{fill:#FFC68E;stroke:#000000;stroke-width:5;stroke-linecap:round;stroke-linejoin:round;}
	.st2{fill:#D18154;}
	.st3{fill:#FDC68E;}
	.st4{fill:none;stroke:#000000;stroke-width:5;stroke-linecap:round;stroke-linejoin:round;}
</style>
<g>
	<g id="Layer_2_00000000186671509888000160000005899514240870794923_">
		<g id="Layer_1-2">
			<g>
				<defs>
					<rect id="SVGID_1_" y="0" width="545.1" height="545.1"/>
				</defs>
				<clipPath id="SVGID_00000174590970563578812940000009964407826609225404_">
					<use xlink:href="#SVGID_1_"  style="overflow:visible;"/>
				</clipPath>
				<g style="clip-path:url(#SVGID_00000174590970563578812940000009964407826609225404_);">
					<g>
						<path class="st1" d="M130.4,359.6c-0.4,1.3-1,2.5-1.8,3.6c-10.4,15.5-48.3,10-55-26.9c-3.4-19.1,2.3-30.8,11.6-34.1h0
							c10-3.5,24,2.6,35,19.7"/>
						<path class="st2" d="M130.4,359.6c-0.4,1.3-1,2.5-1.8,3.6c-8.3,12.4-29.6,10.7-44.5-5.4c-8.7-16.5-12.6-51.8,12.6-55.1
							c9,0.4,14.8,5.6,23.6,19.3L130.4,359.6L130.4,359.6z"/>
						<path class="st3" d="M105.7,327.3c0.3,0.3-8-13.9-12.8-9.4c-4.8,4.5,0,6.3,0,6.3S96,318.5,105.7,327.3L105.7,327.3z"/>
						<path class="st4" d="M87.9,315.3c8.7-2.5,15.4,5.3,18.4,10.6"/>
						<path class="st4" d="M94.4,315.3c0,0-9,21,7.9,34.1"/>
						<path class="st4" d="M130.4,359.6c-6.6,19.7-49.6,16.2-56.8-23.2S99,288.9,120.3,322"/>
					</g>
				</g>
			</g>
		</g>
	</g>
</g>
</svg>
