<?xml version="1.0" encoding="utf-8"?>
<!-- Generator: Adobe Illustrator 27.7.0, SVG Export Plug-In . SVG Version: 6.00 Build 0)  -->
<svg version="1.1" id="Layer_1" xmlns="http://www.w3.org/2000/svg" xmlns:xlink="http://www.w3.org/1999/xlink" x="0px" y="0px"
	 viewBox="0 0 545.1 545.1" style="enable-background:new 0 0 545.1 545.1;" xml:space="preserve">
<style type="text/css">
	.st0{clip-path:url(#SVGID_00000148663510107481316170000002894889047676157882_);}
	.st1{fill:#FFC68E;stroke:#000000;stroke-width:5;stroke-linecap:round;stroke-linejoin:round;}
	.st2{fill:#301ECA;stroke:#000000;stroke-width:5;stroke-miterlimit:10;}
	.st3{fill:#0F0991;}
	.st4{fill:none;stroke:#000000;stroke-width:5;stroke-miterlimit:10;}
	.st5{fill:#301ECA;stroke:#000000;stroke-width:5;stroke-linecap:round;stroke-linejoin:round;stroke-miterlimit:10;}
	.st6{fill:none;stroke:#000000;stroke-width:5;stroke-linecap:round;stroke-linejoin:round;}
	.st7{fill:#0F0991;stroke:#000000;stroke-width:5;stroke-miterlimit:10;}
	.st8{fill:#FF5DFF;}
</style>
<g>
	<g id="Layer_2_00000170965733767323479000000006139788118173833148_">
		<g id="Layer_1-2">
			<g>
				<defs>
					<rect id="SVGID_1_" y="0" width="545.1" height="545.1"/>
				</defs>
				<clipPath id="SVGID_00000152251419140037018450000001393216385221312129_">
					<use xlink:href="#SVGID_1_"  style="overflow:visible;"/>
				</clipPath>
				<g style="clip-path:url(#SVGID_00000152251419140037018450000001393216385221312129_);">
					<g>
						<path class="st1" d="M253.9,452.3c-16.9,32.2-36,13.8-36,13.8"/>
						<g>
							<path class="st2" d="M259.6,371.8l19.8,51.6c2.8,7.4-6.7,18-22.5,27.1h0c-15.8,9.1-29.7,12-34.7,5.9l-34.8-43L259.6,371.8
								L259.6,371.8z"/>
							<path class="st3" d="M259.6,371.8l2.3,5.5c-6.1,6.7-20.2,21.4-54.4,35.4l31.1,45.8c-7.6,2-13.6,1.6-16.5-2l-34.8-43
								L259.6,371.8L259.6,371.8z"/>
							<path class="st4" d="M259.6,371.8l19.8,51.6c2.8,7.4-6.7,18-22.5,27.1h0c-15.8,9.1-29.7,12-34.7,5.9l-34.8-43L259.6,371.8
								L259.6,371.8z"/>
						</g>
						<g>
							<path class="st5" d="M166.3,394.7l11.9,16.9c3.4,5.8,25-0.3,48.3-13.8s39.4-29.1,36.1-34.9l-8.6-18.8L166.3,394.7
								L166.3,394.7z"/>
							<path class="st3" d="M194.9,411.9c-8.8,2.5-15.1,2.6-16.8-0.3l-11.9-16.9l12.8-7.4L194.9,411.9L194.9,411.9z"/>
							<path class="st6" d="M166.3,394.7l11.9,16.9c3.4,5.8,25-0.3,48.3-13.8s39.4-29.1,36.1-34.9l-8.6-18.8L166.3,394.7
								L166.3,394.7z"/>
						</g>
						<g>
							
								<ellipse transform="matrix(0.866 -0.5 0.5 0.866 -156.5676 154.5335)" class="st7" cx="210.1" cy="369.4" rx="50.6" ry="12.2"/>
							<path class="st8" d="M249.1,355.2c-6.4,7.2-18.4,16.4-32.9,24.9c-14.6,8.4-28.5,14.2-38,16.1c6.4-7.2,18.4-16.4,32.9-24.9
								C225.7,362.8,239.6,357.1,249.1,355.2z"/>
							
								<ellipse transform="matrix(0.866 -0.5 0.5 0.866 -156.5676 154.5335)" class="st4" cx="210.1" cy="369.4" rx="50.6" ry="12.2"/>
						</g>
						<g>
							<g>
								
									<ellipse transform="matrix(0.7071 -0.7071 0.7071 0.7071 -244.3108 273.4611)" class="st1" cx="207.9" cy="431.6" rx="17.3" ry="10.5"/>
								
									<ellipse transform="matrix(0.7071 -0.7071 0.7071 0.7071 -248.9005 284.5407)" class="st1" cx="219" cy="442.7" rx="17.3" ry="10.5"/>
								<path class="st1" d="M235.8,463c5.8-5.8,7.2-13.8,3.1-18c-4.1-4.1-12.1-2.8-17.9,3s-7.2,13.8-3.1,18"/>
							</g>
							<path class="st1" d="M243.2,466.5c-13.4,11.1-25.3-0.4-25.3-0.4"/>
						</g>
						<path class="st1" d="M281.9,402.9C281.9,402.9,281.9,402.9,281.9,402.9c-0.5,0.5-7,7.8-4.2,16.1l-5.6-14.7
							c-3.3-1-6.8-3.1-9.9-6.2c-6.8-6.8-8.9-15.6-4.8-19.7c4.1-4.1,12.9-2,19.7,4.8C283.8,390,286,398.8,281.9,402.9L281.9,402.9z"
							/>
						<path class="st1" d="M257.4,378.4c-4.1,4.1-2,12.9,4.8,19.7c3.8,3.8,8.2,6.1,12.1,6.7"/>
					</g>
				</g>
			</g>
		</g>
	</g>
</g>
</svg>
