<?xml version="1.0" encoding="utf-8"?>
<!-- Generator: Adobe Illustrator 27.7.0, SVG Export Plug-In . SVG Version: 6.00 Build 0)  -->
<svg version="1.1" id="Layer_1" xmlns="http://www.w3.org/2000/svg" xmlns:xlink="http://www.w3.org/1999/xlink" x="0px" y="0px"
	 viewBox="0 0 545.1 545.1" style="enable-background:new 0 0 545.1 545.1;" xml:space="preserve">
<style type="text/css">
	.st0{clip-path:url(#SVGID_00000054951268779591718300000018176058993287976353_);}
	.st1{fill:#FFC68E;}
	.st2{fill:#D18154;}
	.st3{fill:none;stroke:#000000;stroke-width:5;stroke-linecap:round;stroke-linejoin:round;}
	.st4{fill:none;stroke:#000000;stroke-width:5;stroke-miterlimit:10;}
	.st5{fill:#FFC800;}
	.st6{fill:#AE00A8;}
	.st7{fill:#7A006C;}
	.st8{fill:none;stroke:#FFC800;stroke-width:5;stroke-linecap:round;stroke-linejoin:round;}
</style>
<g>
	<g id="Layer_2_00000054968536584651264950000004707015620499767200_">
		<g id="Layer_1-2">
			<g>
				<defs>
					<rect id="SVGID_1_" y="0" width="545.1" height="545.1"/>
				</defs>
				<clipPath id="SVGID_00000145760792081044496950000003268617911145917617_">
					<use xlink:href="#SVGID_1_"  style="overflow:visible;"/>
				</clipPath>
				<g style="clip-path:url(#SVGID_00000145760792081044496950000003268617911145917617_);">
					<g>
						<g>
							<path class="st1" d="M247.1,452.9L231.5,467c-20.2,4.2-31.6-7-34.8-17.9c-2.1-7.3-5.6-14-5.6-19.8c0-4.3,1.5-7.6,4.2-10.1
								c1-0.9,2.1-1.7,3.4-2.4c1.6-0.9,3.4-1.6,5.4-2.2c5.7-1.6,13-2.3,21.5-2.3C246.5,412.4,256.7,432,247.1,452.9L247.1,452.9z"/>
							<path class="st2" d="M240.4,432.9c-1.4,7.2-5,11.3-48.6,10.5c-4.4-6.2-0.6-8.2-0.6-14c0-4.3,1.5-7.6,4.2-10.1
								c1.2-0.9,2.4-1.7,3.4-2.4c2.1-1.5,3.4-2.4,3.5-2.4c0.1,0,0.8,0.1,1.9,0.2c6.5,0.5,27.7,2.1,30.2,2.3
								C237.2,417.1,242,425,240.4,432.9L240.4,432.9z"/>
							<path class="st3" d="M233,467.1c-36.1,7.5-41.8-24.5-41.8-37.8s13.6-17,34.4-17s31,19.7,21.4,40.5"/>
						</g>
						<g>
							<g>
								<path class="st1" d="M203.8,436.6c-3.8,5.4-12.9,5.7-21.3,1.1c-1-0.5-1.9-1.1-2.8-1.8c-9.1-6.4-13-16.5-8.7-22.5
									c0.9-1.2,2-2.2,3.3-2.9c5.2-2.8,13.6-1.5,20.8,3.6C204.2,420.5,208.1,430.5,203.8,436.6z"/>
								<path class="st2" d="M203.8,436.6c-3.8,5.4-12.9,5.7-21.3,1.1c-0.8-1.2,1.2-2.8,0.5-4.1c-4.9-9.1-7.4-17.5-6.7-23.9
									c5.2-2.8,11.6-0.7,18.8,4.4C204.2,420.5,208.1,430.5,203.8,436.6L203.8,436.6z"/>
								<path class="st4" d="M203.8,436.6c-3.8,5.4-12.9,5.7-21.3,1.1c-1-0.5-1.9-1.1-2.8-1.8c-9.1-6.4-13-16.5-8.7-22.5
									c0.9-1.2,2-2.2,3.3-2.9c5.2-2.8,13.6-1.5,20.8,3.6C204.2,420.5,208.1,430.5,203.8,436.6z"/>
							</g>
							<g>
								
									<ellipse transform="matrix(0.8425 -0.5388 0.5388 0.8425 -188.4257 167.8208)" class="st1" cx="192.7" cy="406.1" rx="13.4" ry="20.1"/>
								
									<ellipse transform="matrix(0.8425 -0.5388 0.5388 0.8425 -188.4257 167.8208)" class="st2" cx="192.7" cy="406.1" rx="13.4" ry="20.1"/>
								
									<ellipse transform="matrix(0.8425 -0.5388 0.5388 0.8425 -188.4257 167.8208)" class="st4" cx="192.7" cy="406.1" rx="13.4" ry="20.1"/>
							</g>
						</g>
						<g>
							<path class="st5" d="M217.9,429.1c2.8,3.3,4.2,16.5,6.7,20.8s16.2,31.5,18.1,36.5c2,4.9,18,30.9,16.2,65.2
								c-7.4,0.5-9.5-5.6-9.5-5.6s3.8-27.1-17.6-63.6c-18.3-33-20.8-47.9-20.8-47.9L217.9,429.1L217.9,429.1z"/>
							<path class="st3" d="M213.9,440.9c1.2,12.7,14.6,30.2,29.2,67.2s7.1,63.9-14.2,82.4"/>
							<path class="st3" d="M221.6,438.4c1.2,12.7,16.2,34.7,30.8,71.6c14.6,37,4.4,69.1-20.3,89.9"/>
							<g>
								<path class="st6" d="M228.1,392.8c6.8,24,14.1,39.4-4.3,45c-19.1,5.8-34.3,14.6-43.3-24.4"/>
								<path class="st6" d="M221.1,406.4l-37,9c-2.7,0.7-4.5-1.7-3.3-4.4l3.5-8c0.6-1.4,1.9-2.5,3.3-2.9l37-9
									c2.7-0.7,4.5,1.7,3.3,4.4l-3.5,8C223.8,404.9,222.5,406,221.1,406.4z"/>
								<path class="st7" d="M206.6,409.9l4.8-15.6c0,0,16.8-6.8,19.3,3.1s2.1,37.2-3.4,40C221.8,440.3,207.5,414,206.6,409.9z"/>
								<path class="st3" d="M228.1,392.8c6.8,24,14.1,39.4-4.3,45c-19.1,5.8-34.3,14.6-43.3-24.4"/>
								<path class="st3" d="M221.1,406.4l-37,9c-2.7,0.7-4.5-1.7-3.3-4.4l3.5-8c0.6-1.4,1.9-2.5,3.3-2.9l37-9
									c2.7-0.7,4.5,1.7,3.3,4.4l-3.5,8C223.8,404.9,222.5,406,221.1,406.4z"/>
							</g>
							<line class="st3" x1="223.3" y1="405.1" x2="229" y2="423.9"/>
							<line class="st8" x1="188.4" y1="384.5" x2="194" y2="403.2"/>
							<line class="st8" x1="210.5" y1="379.7" x2="215.1" y2="398.9"/>
						</g>
						<g>
							<path class="st1" d="M249.7,429.5c-4,5.7-13.8,5.7-22.4,0.4c-0.6-0.4-1.1-0.7-1.7-1.1c-9.1-6.4-13-16.5-8.7-22.5
								c3.5-5,11.4-5.6,19.2-2.1c1.7,0.7,3.3,1.7,4.9,2.8C250.1,413.4,254,423.4,249.7,429.5z"/>
							<path class="st2" d="M232.5,431.2c-0.6-0.4-6.3-2.1-6.9-2.5c-9.1-6.4-13-16.5-8.7-22.5c3.5-5,2.7-6.8,10.4-3.3
								C216.3,412.2,223.8,424.4,232.5,431.2L232.5,431.2z"/>
							
								<ellipse transform="matrix(0.5773 -0.8165 0.8165 0.5773 -242.5967 367.1446)" class="st4" cx="233.3" cy="417.9" rx="13.4" ry="20.1"/>
						</g>
						<g>
							<path class="st1" d="M203.6,449c0.2,4.4-1.3,8.2-4.5,10c-5.3,3.1-13.1-0.6-17.5-8.2c-3.1-5.4-3.6-11.2-1.8-15.3
								c0.8-1.7,1.9-3,3.5-4c5.3-3.1,13.1,0.6,17.5,8.2C202.6,442.8,203.5,446,203.6,449z"/>
							<path class="st2" d="M203.6,449c-6.9-8.8-14-13.4-23.8-13.5c0.8-1.7,1.9-3,3.5-4c5.3-3.1,13.1,0.6,17.5,8.2
								C202.6,442.8,203.5,446,203.6,449L203.6,449z"/>
							
								<ellipse transform="matrix(0.866 -0.5 0.5 0.866 -197.0018 155.2404)" class="st4" cx="191.2" cy="445.2" rx="11.1" ry="15.9"/>
						</g>
					</g>
				</g>
			</g>
		</g>
	</g>
</g>
</svg>
