<?xml version="1.0" encoding="utf-8"?>
<!-- Generator: Adobe Illustrator 27.7.0, SVG Export Plug-In . SVG Version: 6.00 Build 0)  -->
<svg version="1.1" id="Layer_1" xmlns="http://www.w3.org/2000/svg" xmlns:xlink="http://www.w3.org/1999/xlink" x="0px" y="0px"
	 viewBox="0 0 545.1 545.1" style="enable-background:new 0 0 545.1 545.1;" xml:space="preserve">
<style type="text/css">
	.st0{clip-path:url(#SVGID_00000082331159300558412700000017467017996899080334_);}
	.st1{fill:#FFC68E;}
	.st2{fill:#FFC68E;stroke:#000000;stroke-width:5;stroke-linecap:round;stroke-linejoin:round;}
	.st3{fill:#D18154;}
	.st4{fill:none;stroke:#000000;stroke-width:5;stroke-linecap:round;stroke-linejoin:round;}
</style>
<g>
	<g id="Layer_2_00000170983388999987180680000016615108478129350036_">
		<g id="Layer_1-2">
			<g>
				<defs>
					<rect id="SVGID_1_" y="0" width="545.1" height="545.1"/>
				</defs>
				<clipPath id="SVGID_00000003075902042611825830000000614203610646405769_">
					<use xlink:href="#SVGID_1_"  style="overflow:visible;"/>
				</clipPath>
				<g style="clip-path:url(#SVGID_00000003075902042611825830000000614203610646405769_);">
					<g>
						<path class="st1" d="M228.6,443.5c1.9-16.5,16.9-28.2,24.3-24.5c7.4,3.7,17.3,23.5,16.8,26c-0.5,2.5-2.3,22.2-3.2,23
							s-6.4,7.4-6.9,7.4s-10.4,0.1-13-1.7C244.1,471.8,226.3,463.9,228.6,443.5L228.6,443.5z"/>
						<g>
							<path class="st2" d="M234,473.7c-5.4-16.9-13.5-50.5-31-73.6c-13.6-18,4-38.6,16.7-28c10.8,9.1,12,21.8,13.3,35.3
								c0.6,7,1.3,14.2,3.3,21.2c0,0,10.2-20,16.7-14"/>
							<path class="st3" d="M207.9,407.2c-1.5-2.4-3.1-4.8-4.9-7.1c-12-15.8,0.2-33.7,11.9-30.5
								C201.5,378.1,202.3,391.9,207.9,407.2z"/>
							<path class="st3" d="M230.9,392c1.1,13.5-13.8,30.8-0.4,43.1c9.1,8.4,3.1-17.3,3.1-17.3L230.9,392z"/>
							<path class="st4" d="M234,473.7c-5.4-16.9-13.5-50.5-31-73.6c-13.6-18,4-38.6,16.7-28c10.8,9.1,12,21.8,13.3,35.3
								c0.6,7,1.3,14.2,3.3,21.2c0,0,10.2-20,16.7-14"/>
						</g>
						<path class="st2" d="M272,432.1c0,0,10.5,37.9-13.3,45.6"/>
						<path class="st1" d="M254.9,410.1c-0.3,0.2-5.1-13-17-5.4s-10.3,25.6-2.4,32.8"/>
						<path class="st3" d="M253.5,407.8c-0.6,0-9.6-3.4-10.7,12.1c-0.7,10.3,6.6,20.6,8.3,18.7S235.6,422.9,253.5,407.8z"/>
						<path class="st4" d="M254.9,410.1c-0.3,0.2-5.1-13-17-5.4s-10.3,25.6-2.4,32.8"/>
						<path class="st2" d="M251,438.6c-17.9-29.5,15-41.5,25-14.6c10,26.9-1.6,26.8-1.6,26.8"/>
						<path class="st4" d="M272,432.1c0,0,10.5,37.9-13.3,45.6"/>
					</g>
				</g>
			</g>
		</g>
	</g>
</g>
</svg>
