<?xml version="1.0" encoding="utf-8"?>
<!-- Generator: Adobe Illustrator 27.7.0, SVG Export Plug-In . SVG Version: 6.00 Build 0)  -->
<svg version="1.1" id="Layer_1" xmlns="http://www.w3.org/2000/svg" xmlns:xlink="http://www.w3.org/1999/xlink" x="0px" y="0px"
	 viewBox="0 0 545.1 545.1" style="enable-background:new 0 0 545.1 545.1;" xml:space="preserve">
<style type="text/css">
	.st0{clip-path:url(#SVGID_00000110468370632732011260000002359635723671449487_);}
	.st1{fill:#FFC68E;}
	.st2{fill:#D18154;}
	.st3{fill:#FFAB00;}
	.st4{fill:#E27600;}
	.st5{fill:url(#SVGID_00000095339257473325281430000001278870142533763503_);}
	.st6{fill:none;stroke:#000000;stroke-width:5;stroke-linecap:round;stroke-linejoin:round;stroke-miterlimit:10;}
	.st7{fill:none;stroke:#000000;stroke-width:5;stroke-linecap:round;stroke-linejoin:round;}
	.st8{fill:url(#SVGID_00000060023633083882289370000011963756053955502752_);}
	.st9{fill:none;stroke:#000000;stroke-width:5;stroke-miterlimit:10;}
	.st10{fill:#FFC68E;stroke:#000000;stroke-width:5;stroke-miterlimit:10;}
</style>
<g>
	<g id="Layer_2_00000068639464777444408780000002351519502478191000_">
		<g id="Layer_1-2">
			<g>
				<defs>
					<rect id="SVGID_1_" y="0" width="545.1" height="545.1"/>
				</defs>
				<clipPath id="SVGID_00000127014580002392353240000010058832831626759099_">
					<use xlink:href="#SVGID_1_"  style="overflow:visible;"/>
				</clipPath>
				<g style="clip-path:url(#SVGID_00000127014580002392353240000010058832831626759099_);">
					<g>
						<path class="st1" d="M251.5,448.8c0,0-2.9,7.7-5.4,14.6c-2.2,3.7-4.8,6.3-7.8,8.1c-17.8,10.9-46.1-8.1-46.1-8.1
							s5.7-13.8,7.4-20.9c1.7-7.1,2.9-33.6-12.7-42.4c-6.2-2-10.5-4.3-13.4-6.8c-3.8-3.2-4.9-6.8-4.4-10.5c0.6-4.2,3.4-8.5,7.2-12.8
							c6.4-1.9,12.5,4.9,20.8,13.9c5.8,6.2,14.5,11.8,23.4,17.9C253.8,414.4,253.1,434,251.5,448.8L251.5,448.8z"/>
						<path class="st2" d="M197.1,384c-11.3-0.2-20.7,0-28-1.1c0.6-4.2,3.4-8.5,7.2-12.8C182.7,368.2,188.8,375.1,197.1,384z"/>
						<path class="st2" d="M238.3,471.6c-17.8,10.9-46.1-8.1-46.1-8.1s5.7-13.8,7.4-20.9c1.7-7.1,2.9-33.6-12.7-42.4
							c-6.2-2-10.5-4.3-13.4-6.8c15.2,5.3,32.9,16.7,33.3,31.7c1.3,22.1-1.8,50,30.9,46.5C237.9,471.6,238.1,471.6,238.3,471.6
							L238.3,471.6z"/>
						<g>
							<path class="st3" d="M157.5,467.6c0,0,0,0.1,0,0.1c-0.2,0.8-0.5,1.6-0.7,2.4c-0.2,0.6-0.4,1.2-0.6,1.8
								c-0.1,0.3-0.2,0.5-0.4,0.8c-3.2,6.5-6.7,11.6-10.5,15.6c-14.7,15.4-33.5,13-50.4,4.7c-18.1-8.8-34.1-24.2-41.1-31.7
								c0,0,0,0,0,0c-0.9-0.6-1.6-1.2-2.1-1.9c-0.6-0.8-0.9-1.6-1.1-2.5c-0.1-0.3-0.1-0.7-0.1-1c0,0,0-0.1,0-0.1
								c-0.1-4.9,4.2-11.4,11.5-18.4c10.6-10.1,27.3-21.3,45.3-29.7c12.5-5.8,25.6-10.3,37.8-12.3h0c2.6,0.8,4.9,2.5,6.8,4.8
								c0.1,0.1,0.1,0.1,0.2,0.2c0.5,0.6,1,1.3,1.4,2h0c1.2,1.8,2.2,3.8,3.1,6c0.7,1.7,1.3,3.5,1.9,5.5v0
								C162.8,429,162.3,450.9,157.5,467.6L157.5,467.6z"/>
							<path class="st4" d="M152.4,399.1c-0.1,0.2-0.2,0.4-0.3,0.6c-0.1,0.1-0.1,0.2-0.2,0.3c-2,3.4-4.6,6.7-7.6,10
								c-12.5,13.7-31.7,26-42,32.1c-0.1,0-0.1,0.1-0.2,0.1c-2.2,1.3-5.3,3-9.3,4.8c-0.1,0-0.1,0.1-0.2,0.1
								c-7,3.1-16.5,6.7-28.2,9.6c-1,0.2-1.9,0.5-2.9,0.7c-1.4,0.3-2.8,0.6-4.3,0.9c-1.5,0.3-3.1,0.6-4.8,0.9
								c-0.2,0-0.5,0.1-0.8,0.1c-0.6-0.8-0.9-1.6-1.1-2.5c-0.1-0.3-0.1-0.7-0.1-1c-0.1-0.2-0.2-0.5-0.3-0.8
								c-1-3.7,3.5-10.2,11.8-17.7c10.6-10.1,27.3-21.3,45.3-29.7c15.8-7.8,29.8-12.3,37.8-12.3h0c2.8,0,4.8,0.6,6,1.7
								c0.2,0.2,0.4,0.5,0.6,0.7c0.1,0.2,0.2,0.3,0.2,0.5C152,398.4,152.2,398.8,152.4,399.1L152.4,399.1z"/>
							<path class="st4" d="M145.2,488.2c-14.7,15.4-33.5,13-50.4,4.7c-16.8-6.5-32.4-18.8-41.1-31.7c0,0,0,0,0,0
								c-0.9-0.6-1.6-1.2-2.1-1.9c-0.6-0.8-0.9-1.6-1.1-2.5c0.2,0,0.4,0.1,0.5,0.1c0.1,0,0.2,0,0.4,0.1c3.2,0.5,6.5,0.6,10,0.4
								c2.6-0.2,5.3-0.6,8.1-1.2C97.1,481.9,124.4,491.6,145.2,488.2L145.2,488.2z"/>
							
								<linearGradient id="SVGID_00000062879668199409986820000007354635847338725300_" gradientUnits="userSpaceOnUse" x1="64.34" y1="112.5798" x2="144.25" y2="112.5798" gradientTransform="matrix(1 0 0 -1 0 545.8898)">
								<stop  offset="0" style="stop-color:#EB00A3"/>
								<stop  offset="1" style="stop-color:#FF5600"/>
							</linearGradient>
							<path style="fill:url(#SVGID_00000062879668199409986820000007354635847338725300_);" d="M144.2,410
								c-12.5,13.7-31.7,26-42,32.1c0,0-0.1,0-0.1,0.1c0,0,0,0,0,0c-2.2,1.3-5.3,3-9.3,4.8c-0.1,0-0.1,0.1-0.2,0.1
								c-7,3.1-16.5,6.7-28.2,9.6c10.1-10.3,23.2-20.3,37.1-28.5C115.6,419.7,130.7,413.1,144.2,410L144.2,410z"/>
							<path class="st3" d="M154.9,475.4c0.5-2,1.1-3.8,1.6-5.4c1.7-4.8,3.3-7.9,3.3-7.9s25.8-2.7,28.9-19
								c3.1-16.4-14.4-31.7-30-29.3c-1.1-1.2-2.2-3.3-3.1-5.5c-1.7-4-2.8-8.5-2.8-8.5c12.6,0,37.6-4.8,48.9,21.2
								C205.6,444.9,190.3,476.5,154.9,475.4L154.9,475.4z"/>
							<path class="st4" d="M156.5,470.1c1.7-4.8,3.3-7.9,3.3-7.9s25.8-2.7,28.9-19c3.1-16.4-14.4-31.7-30-29.3
								c-1.1-1.2-2.2-3.3-3.1-5.5c12.5-3,31.9,0.1,36.3,14.2C197.3,439.4,190.4,463.4,156.5,470.1L156.5,470.1z"/>
							<path class="st6" d="M159.9,462.2L159.9,462.2C159.9,462.2,159.9,462.2,159.9,462.2c0,0.2-0.1,0.4-0.1,0.6
								c-0.1,0.5-0.2,0.9-0.4,1.3c-0.2,0.6-0.3,1.1-0.5,1.7c-0.4,1.4-0.9,2.7-1.4,4c0,0,0,0,0,0.1c-0.1,0.2-0.2,0.5-0.3,0.7
								c-0.6,1.6-1.4,3.2-2.2,4.7c0,0,0,0,0,0c-2.5,4.9-5.7,9.3-9.7,12.8c-1.9,1.7-4,3.2-6.2,4.5c-12.8,7.3-28.9,6.1-44.2,0.2
								c-16.8-6.5-32.4-18.8-41.1-31.7c0,0,0,0,0,0c-0.5-0.7-0.9-1.4-1.3-2.1c-0.2-0.4-0.5-0.8-0.7-1.1s-0.4-0.8-0.6-1.1
								c-0.1-0.2-0.2-0.4-0.3-0.6c-0.1-0.2-0.2-0.4-0.3-0.6c-0.1-0.2-0.2-0.4-0.3-0.6c-1-3.7,3.5-10.2,11.8-17.7
								c7.8-7.1,19.1-15.1,32.1-22.6c4.5-2.6,8.9-5,13.2-7.1c15.8-7.8,29.8-12.3,37.8-12.3h0c2.8,0,4.8,0.6,6,1.7
								c0.3,0.4,0.5,0.8,0.8,1.2c0.2,0.3,0.4,0.6,0.6,1c0.2,0.2,0.3,0.5,0.4,0.8c0.4,0.6,0.7,1.3,1.1,2c0.2,0.4,0.4,0.7,0.6,1.1
								c0.2,0.4,0.4,0.7,0.5,1.1c0.2,0.4,0.3,0.7,0.5,1.1c0.2,0.4,0.4,0.8,0.5,1.2c0.1,0.2,0.2,0.5,0.3,0.7c0.1,0.3,0.3,0.7,0.4,1
								c0.1,0.3,0.2,0.6,0.3,0.9c0.1,0.3,0.2,0.6,0.3,0.9c0.2,0.4,0.3,0.9,0.5,1.3c0.1,0.3,0.2,0.6,0.3,0.9c0.2,0.5,0.3,1,0.5,1.5
								c0,0.1,0.1,0.2,0.1,0.3C163.2,428.7,163.9,446.7,159.9,462.2L159.9,462.2z"/>
							<path class="st7" d="M65.9,447c7.7-7.8,14.2-13.4,32.9-24.2"/>
							<path class="st7" d="M136.2,406.5c-10.6,2.7-18.7,5.5-37.4,16.3"/>
							
								<linearGradient id="SVGID_00000131348639305476636860000004789296593425019562_" gradientUnits="userSpaceOnUse" x1="63.5401" y1="90.0598" x2="243.9938" y2="270.5135" gradientTransform="matrix(1 0 0 -1 0 545.8898)">
								<stop  offset="0" style="stop-color:#FFFFFF"/>
								<stop  offset="4.000000e-02" style="stop-color:#FFFFFF;stop-opacity:0.88"/>
								<stop  offset="0.1" style="stop-color:#FFFFFF;stop-opacity:0.7"/>
								<stop  offset="0.17" style="stop-color:#FFFFFF;stop-opacity:0.53"/>
								<stop  offset="0.24" style="stop-color:#FFFFFF;stop-opacity:0.39"/>
								<stop  offset="0.32" style="stop-color:#FFFFFF;stop-opacity:0.27"/>
								<stop  offset="0.4" style="stop-color:#FFFFFF;stop-opacity:0.17"/>
								<stop  offset="0.5" style="stop-color:#FFFFFF;stop-opacity:9.000000e-02"/>
								<stop  offset="0.61" style="stop-color:#FFFFFF;stop-opacity:4.000000e-02"/>
								<stop  offset="0.75" style="stop-color:#FFFFFF;stop-opacity:0"/>
								<stop  offset="1" style="stop-color:#FFFFFF;stop-opacity:0"/>
							</linearGradient>
							<path style="fill:url(#SVGID_00000131348639305476636860000004789296593425019562_);" d="M285.4,317
								c59.3,71.9-187.6,53.8-141.2,93c-12.5,13.7-31.7,26-42,32.1c-0.1,0-0.1,0.1-0.2,0.1c-2.2,1.3-5.3,3-9.3,4.8
								c-0.1,0-0.1,0.1-0.2,0.1c-7,3.1-16.5,6.7-28.2,9.6c29.7-42-21.7-14.9,9.7-79.7c31.6-65.1,68.4-120.2,68.4-120.2
								S263.1,289.9,285.4,317L285.4,317z"/>
							<path class="st9" d="M151,396.9c0.2,0.2,0.4,0.5,0.6,0.7c0.1,0.2,0.2,0.3,0.2,0.5c0.2,0.5,0.3,1,0.3,1.5c0,0.2,0,0.4,0,0.5
								c-0.9,8.1-19.1,24.3-44,38.7c-1.9,1.1-3.8,2.2-5.7,3.2c-0.1,0-0.1,0.1-0.2,0.1c-3.2,1.7-6.3,3.3-9.3,4.8
								c-0.1,0-0.1,0.1-0.2,0.1c-14.8,7.1-27.8,11.2-35.4,11.3c-3.1,0-5.3-0.6-6.4-2c-0.1-0.1-0.2-0.3-0.3-0.4c0,0,0,0,0-0.1
								c-0.1-0.2-0.2-0.5-0.3-0.8"/>
							<path class="st7" d="M198.5,416.7c10,17.4,1.8,40.9-18.4,52.4c-8.1,4.7-16.9,6.7-25.2,6.3c2.1-4.1,3.8-8.5,5-13.2
								c4.6-0.2,9.4-1.5,13.9-4.1c13.1-7.5,18.4-22.8,11.9-34.1c-5.1-8.9-16.1-12.7-27-10.2c-1.3-4.3-2.9-8.4-4.8-12
								C171.6,396.5,190.1,402.1,198.5,416.7L198.5,416.7z"/>
						</g>
						<path class="st7" d="M250.5,451.4c5.2-21.1-7.9-43.2-21.7-47.4c-29.5-9-24.8-18-40.5-30.2c-18.6-14.5-31.7,17.6-4.4,25
							c0,0,21,7.8,22.5,22.5c2,19.8,14.8,35.9,27.7,28.1"/>
						<path class="st7" d="M189.6,461.2c14.2,13,35.2,19.7,51.8,7.3"/>
						<g>
							<path class="st1" d="M194.8,457.6c-0.2,6-6.6,10.5-14.2,10.2s-13.6-5.4-13.3-11.4c0.1-2.1,1-4.1,2.4-5.7
								c2.6-2.9,6.9-4.7,11.8-4.5c5.3,0.2,9.8,2.8,12,6.3C194.3,454,194.8,455.8,194.8,457.6z"/>
							<path class="st2" d="M193.4,452.5c-8.5,6-16.9,3.9-23.8-1.8c2.6-2.9,6.9-4.7,11.8-4.5C186.8,446.4,191.3,449,193.4,452.5
								L193.4,452.5z"/>
							<path class="st9" d="M194.8,457.6c-0.2,6-6.6,10.5-14.2,10.2s-13.6-5.4-13.3-11.4c0.1-2.1,1-4.1,2.4-5.7
								c2.6-2.9,6.9-4.7,11.8-4.5c5.3,0.2,9.8,2.8,12,6.3C194.3,454,194.8,455.8,194.8,457.6z"/>
						</g>
						<g>
							<path class="st1" d="M196.3,440.3c-0.3,6-6.6,10.5-14.2,10.2s-13.6-5.4-13.3-11.4c0.1-2,0.9-3.8,2.1-5.4
								c2.5-3.1,7-5,12.1-4.8c5.9,0.2,10.8,3.4,12.6,7.5C196.1,437.7,196.4,439,196.3,440.3L196.3,440.3z"/>
							<path class="st2" d="M195.6,436.5c-7,4.2-17,3-24.7-2.7c2.5-3.1,7-5,12.1-4.8C188.9,429.2,193.8,432.3,195.6,436.5z"/>
							<path class="st9" d="M196.3,440.3c-0.3,6-6.6,10.5-14.2,10.2s-13.6-5.4-13.3-11.4c0.1-2,0.9-3.8,2.1-5.4
								c2.5-3.1,7-5,12.1-4.8c5.9,0.2,10.8,3.4,12.6,7.5C196.1,437.7,196.4,439,196.3,440.3L196.3,440.3z"/>
						</g>
						
							<ellipse transform="matrix(4.222438e-02 -0.9991 0.9991 4.222438e-02 -245.856 588.6264)" class="st10" cx="184.1" cy="422.5" rx="10.8" ry="13.8"/>
					</g>
				</g>
			</g>
		</g>
	</g>
</g>
</svg>
