<svg width="546" height="546" viewBox="0 0 546 546" fill="none" xmlns="http://www.w3.org/2000/svg">
<g clip-path="url(#clip0_72_2564)">
<mask id="mask0_72_2564" style="mask-type:luminance" maskUnits="userSpaceOnUse" x="0" y="0" width="546" height="546">
<path d="M545.1 0H0V545.1H545.1V0Z" fill="white"/>
</mask>
<g mask="url(#mask0_72_2564)">
<path d="M527.3 483C525.6 473.4 507.1 394.9 478.9 362.3C443.1 321 372.8 326.4 342.3 355.8C315.8 381.3 301 438.4 297.7 454.9C296.9 458.7 295.4 462.3 293.1 465.4C276.3 487.2 251.5 440.7 251.5 440.7C251.5 440.7 249 435.8 245.6 430.6L227.6 436C228.7 466.7 238.7 491.9 253.5 508.8C269 526.6 289.7 535.1 310.5 530.8C314.5 530 318 528.8 321 527.3C314.6 590.3 308.8 643.3 314.7 651.2C321.9 660.8 454.7 661.9 473.4 619.7L474.4 628.6C474.4 628.6 507.3 677.8 525.1 618.3C540.3 567.3 530.4 500.9 527.3 483Z" fill="#FFC68E"/>
<path d="M323.1 506C323 507 322.9 508.1 322.8 509.1C322.2 515.2 321.6 521.3 321 527.3C318 528.8 314.5 530 310.5 530.8C289.6 535 269 526.5 253.5 508.8C293.7 524.8 307.4 520 323.1 506Z" fill="#D18154"/>
<path d="M462.7 401.3C462.7 401.3 493.4 415.7 486.7 578C481.4 637 482.6 634 478.5 631.3C474.4 628.6 472.8 625.1 476.3 581C479.8 536.9 479.4 450.3 465.4 412.6L462.7 401.3Z" fill="#D18154"/>
<path d="M474.8 615.3C476.7 582.3 477.4 538.8 475.7 495.7C475.4 488.6 472.2 437.4 462.7 401.3" stroke="black" stroke-width="5" stroke-linecap="round" stroke-linejoin="round"/>
<path d="M344.7 397.8C337.7 413.9 329.9 454.8 329.9 454.8C326.9 472.8 324.5 490.9 322.7 509.1C315.7 579.9 308.1 642.5 314.6 651.2" stroke="black" stroke-width="5" stroke-linecap="round" stroke-linejoin="round"/>
<path d="M527.3 483C525.6 473.4 507.1 394.9 478.9 362.3C443.1 321 372.8 326.4 342.3 355.8C315.8 381.3 301 438.4 297.7 454.9C296.9 458.7 295.4 462.3 293.1 465.4C276.3 487.2 251.5 440.7 251.5 440.7C251.5 440.7 249 435.8 245.6 430.6L227.6 436C228.7 466.7 238.7 491.9 253.5 508.8C269 526.6 289.7 535.1 310.5 530.8C314.5 530 318 528.8 321 527.3C314.6 590.3 308.8 643.3 314.7 651.2C321.9 660.8 454.7 661.9 473.4 619.7L474.4 628.6C474.4 628.6 507.3 677.8 525.1 618.3C540.3 567.3 530.4 500.9 527.3 483Z" stroke="black" stroke-width="5" stroke-linecap="round" stroke-linejoin="round"/>
</g>
</g>
<defs>
<clipPath id="clip0_72_2564">
<rect width="545.1" height="545.1" fill="white"/>
</clipPath>
</defs>
</svg>
