<?xml version="1.0" encoding="utf-8"?>
<!-- Generator: Adobe Illustrator 27.7.0, SVG Export Plug-In . SVG Version: 6.00 Build 0)  -->
<svg version="1.1" id="Layer_1" xmlns="http://www.w3.org/2000/svg" xmlns:xlink="http://www.w3.org/1999/xlink" x="0px" y="0px"
	 viewBox="0 0 545.1 545.1" style="enable-background:new 0 0 545.1 545.1;" xml:space="preserve">
<style type="text/css">
	.st0{clip-path:url(#SVGID_00000113343932608950743270000000126842817375435419_);}
	.st1{fill:url(#SVGID_00000015353805614658902780000002326082391215023758_);}
	
		.st2{fill:url(#SVGID_00000007422744909272867540000013587390571613916810_);stroke:#000000;stroke-width:5;stroke-linecap:round;stroke-linejoin:round;}
	
		.st3{fill:url(#SVGID_00000115486999149515180970000011266259400482975659_);stroke:#000000;stroke-width:5;stroke-linecap:round;stroke-linejoin:round;}
	.st4{fill:url(#SVGID_00000025418579068120847270000002678153450260595124_);}
	.st5{fill:url(#SVGID_00000138569403031509317310000014680141641382661564_);}
	.st6{fill:#00D1B2;}
	.st7{fill:none;stroke:#000000;stroke-width:5;stroke-linecap:round;stroke-linejoin:round;}
	
		.st8{fill:url(#SVGID_00000140699835679933318680000007882960821284510340_);stroke:#000000;stroke-width:5;stroke-linecap:round;stroke-linejoin:round;}
	
		.st9{fill:url(#SVGID_00000123425580961047945870000015081421933528169605_);stroke:#000000;stroke-width:5;stroke-linecap:round;stroke-linejoin:round;}
</style>
<g>
	<g id="Layer_2_00000026842171654252107540000009955903182445222040_">
		<g id="Layer_1-2">
			<g>
				<defs>
					<rect id="SVGID_1_" y="0" width="545.1" height="545.1"/>
				</defs>
				<clipPath id="SVGID_00000015355902262837258190000004029436765269606321_">
					<use xlink:href="#SVGID_1_"  style="overflow:visible;"/>
				</clipPath>
				<g style="clip-path:url(#SVGID_00000015355902262837258190000004029436765269606321_);">
					<g>
						
							<linearGradient id="SVGID_00000143586953097486921370000008724488767951843750_" gradientUnits="userSpaceOnUse" x1="281.13" y1="96.005" x2="545.86" y2="96.005" gradientTransform="matrix(1 0 0 -1 0 545.8898)">
							<stop  offset="0" style="stop-color:#FF5DFF"/>
							<stop  offset="1" style="stop-color:#00C4ED"/>
						</linearGradient>
						<path style="fill:url(#SVGID_00000143586953097486921370000008724488767951843750_);" d="M379.9,306.4c0,0-40.4,5.3-26.1,25.3
							c4.9,5.6,3.1,11.9,3.1,11.9L338,355.6l-18.1,18.6c0,0-10.3,6.2-11.4,20.8c-4.7,11.9-15.1,26.4-15.1,39s1.1,14.5-12.3,30.6
							c0,0,12.4-10.7,19.5,0.3c7,11,5.8,23.4,8.6,32.2c8.2,25.6-16.9,42-16.9,42s9.8,3.6,25.5-5c1.7,1.4,2.8,8.4,2.8,11.3
							c0.2,8.6-2,24.3-2,24.3l144.4,25.8c0,0,82.8-1.2,82.8-3.5s-1.2-45.4-7.6-66.4c-3.1-29.2-2-47.7-9.3-66.6
							c-8.8-24.3-12.5-53.5-18.9-60.1c-3.7-3.8-21.9-25-29.9-39.5c1.5-3.7-4.9-4.1-13-12.6c-3-8.5-12.1-3.4-7.1-11.7
							c7.1-7.9,17.2-25.1-48.1-31.2C394.3,304.6,379.9,306.4,379.9,306.4L379.9,306.4z"/>
						<g>
							
								<linearGradient id="SVGID_00000020395747045691492660000010274375487089616282_" gradientUnits="userSpaceOnUse" x1="281.4315" y1="74.0183" x2="293.0615" y2="85.6483" gradientTransform="matrix(1 0 0 -1 0 545.8898)">
								<stop  offset="0" style="stop-color:#00C4ED"/>
								<stop  offset="1" style="stop-color:#00D1B2"/>
							</linearGradient>
							
								<path style="fill:url(#SVGID_00000020395747045691492660000010274375487089616282_);stroke:#000000;stroke-width:5;stroke-linecap:round;stroke-linejoin:round;" d="
								M294.7,461.8c-4.9,8.9-10.1,10.3-15.3,8C279.4,469.8,286.6,458.6,294.7,461.8z"/>
							
								<linearGradient id="SVGID_00000121968801451541787070000014820766559261782148_" gradientUnits="userSpaceOnUse" x1="280.7456" y1="7.6402" x2="293.9102" y2="20.7948" gradientTransform="matrix(1 0 0 -1 0 545.8898)">
								<stop  offset="0" style="stop-color:#00C4ED"/>
								<stop  offset="1" style="stop-color:#00D1B2"/>
							</linearGradient>
							
								<path style="fill:url(#SVGID_00000121968801451541787070000014820766559261782148_);stroke:#000000;stroke-width:5;stroke-linecap:round;stroke-linejoin:round;" d="
								M300.6,531.8c-1.6,1.7-3.1,3.2-4.4,4.3c-3.4,1.6-7,2.8-10.1,3c-5.5,0.3-9.5-2.4-8.1-11.6c1.8,0.7,3.5,1.4,5.4,1.9
								c0.5,0.2,1,0.3,1.5,0.4c2,0.6,4.1,1,6.2,1.3c0.3,0,0.7,0.1,1,0.1c0.5,0.1,1.1,0.2,1.7,0.2c0.5,0,0.9,0.1,1.3,0.1
								c0.5,0,0.9,0.1,1.4,0.1C297.8,531.8,299.2,531.9,300.6,531.8L300.6,531.8z"/>
						</g>
						
							<linearGradient id="SVGID_00000015319542835931214300000007159007981087650470_" gradientUnits="userSpaceOnUse" x1="374.546" y1="218.4947" x2="430.4" y2="218.4947" gradientTransform="matrix(1 0 0 -1 0 545.8898)">
							<stop  offset="0" style="stop-color:#FF00AA"/>
							<stop  offset="1" style="stop-color:#0087BF"/>
						</linearGradient>
						<path style="fill:url(#SVGID_00000015319542835931214300000007159007981087650470_);" d="M374.6,328.1
							c-0.9-0.7,41.8-12.2,55.8-1.1C402.9,336.1,379.7,332.3,374.6,328.1z"/>
						
							<linearGradient id="SVGID_00000008123202577475852400000009584484392948547231_" gradientUnits="userSpaceOnUse" x1="512.3823" y1="47.4882" x2="471.8611" y2="47.4882" gradientTransform="matrix(1 0 0 -1 0 545.8898)">
							<stop  offset="0" style="stop-color:#FF00AA"/>
							<stop  offset="1" style="stop-color:#0087BF"/>
						</linearGradient>
						<path style="fill:url(#SVGID_00000008123202577475852400000009584484392948547231_);" d="M511.7,574.3c6.1,13-32-1-32-1
							s3.5-39-5.8-47.5c-3.7-12.8,2.7-16,3.4-26.3s-9.9-22.4-3.4-36.5c0-8.9-0.9-40.4,2.2-46c1.7,4.9,8.4,33.6,6.6,49.4
							c-0.9,7.9,1.8,9.9,0.1,17.6C478,507,508.2,566.7,511.7,574.3L511.7,574.3z"/>
						<path class="st6" d="M512.4,429.8c11.6-2.7,6.4,8,6.4,8s9.8,18.8,7.2,19.5c-2.6,0.7-47.3,11.2-52,8.1c0,0,1.7-22.1-4.1-25.3
							C487.4,434.2,512.4,429.8,512.4,429.8"/>
						<path class="st6" d="M335.4,419.5c0,0-24.8-23.2-31.7-12.6c-7.3,11.4-8.1,18.6-8.1,18.6s34.5,19.5,35.9,16.1
							C332.9,438.3,335.4,419.5,335.4,419.5L335.4,419.5z"/>
						<g>
							<path class="st7" d="M345.1,352.5c0-3.6,4.6-9,11.8-9v-9.5c-4.5-2.9-7-6.3-7-9.8c0-11.1,24.6-20,54.9-20s61.6,9,61.6,20
								c0,3.6-2.6,6.9-7,9.8v9.5c8.7,0.4,11.1,4.9,11.1,8.5"/>
							<path class="st7" d="M345.1,352.5c-14.5,3.1-4.9,2.9-15.9,12.4c-4.8,4.2-10.8,8.5-15.9,16c-3.8,5.6-4.1,14.2-7.5,22.1
								c-2.8,6.4-9.1,12.2-11.4,20.4c-1.9,6.8,0.3,15.1-1.1,23.3c-1.2,7.1-13.3,14.9-14,23c0,0,12.2-18.8,22.6-0.6
								c7.3,12.9,0.7,14.1,5.5,22.8c4.7,8.7,4.5,33.6-3.9,39.8s-28.4,14.7-25.5-4.3"/>
							<path class="st7" d="M470.4,352c18.1,5,7.7,9.1,24.5,28.2c6.5,7.4,11,9.4,17.5,23.5c4.5,9.8,5.2,22.8,9.2,36.6
								c3.1,10.8,9.9,22,12.5,35.6c2.1,11.3,0.1,24.2,1.7,37.7c1.4,11.6,6.5,23.7,7.4,37"/>
							
								<linearGradient id="SVGID_00000091726048205476216320000001877845517969605306_" gradientUnits="userSpaceOnUse" x1="356.9" y1="210.0348" x2="368.07" y2="210.0348" gradientTransform="matrix(1 0 0 -1 0 545.8898)">
								<stop  offset="0" style="stop-color:#FF0028"/>
								<stop  offset="1" style="stop-color:#FFAB00"/>
							</linearGradient>
							
								<path style="fill:url(#SVGID_00000091726048205476216320000001877845517969605306_);stroke:#000000;stroke-width:5;stroke-linecap:round;stroke-linejoin:round;" d="
								M356.9,334.1c0,0,3.1,1.8,11.2,3.6"/>
							
								<linearGradient id="SVGID_00000122700890152568701460000016883789350139600007_" gradientUnits="userSpaceOnUse" x1="437.85" y1="208.0248" x2="459.37" y2="208.0248" gradientTransform="matrix(1 0 0 -1 0 545.8898)">
								<stop  offset="0" style="stop-color:#FF0028"/>
								<stop  offset="1" style="stop-color:#FFAB00"/>
							</linearGradient>
							
								<path style="fill:url(#SVGID_00000122700890152568701460000016883789350139600007_);stroke:#000000;stroke-width:5;stroke-linecap:round;stroke-linejoin:round;" d="
								M459.4,334.1c0,0-8.6,6.3-21.5,7.6"/>
							<path class="st7" d="M345.1,352.5c5.2,8.8,15.4,12.4,29.5,12.8"/>
							<path class="st7" d="M459.4,343.5c0,0-3.4,9-23.7,9.8"/>
							<path class="st7" d="M470.4,352c0,0-4.3,8.7-19.5,8.7"/>
							<path class="st7" d="M356.9,343.5c0,0-2.3,11.1,37.4,9.8"/>
							<path class="st7" d="M363.9,325c0.2,0.8,34.3,21.3,78.9-1"/>
							<path class="st7" d="M371.1,328.7c19.4-11.5,55.8-6.6,63-0.8"/>
							<path class="st7" d="M345.6,398.9c-7.5,10-6.9,2.8-11.6,21.9c-1.6,6.4,0.6,15.3-1.2,25.3c-1.3,7.2-6.6,14.7-7.9,24.1
								c-1.1,7.5,1.8,16.3,0.7,25.4c-0.9,7.7-4.6,15.7-6.7,24.4c-5,20.8,6.9,23.1,1.6,43.9"/>
							<path class="st7" d="M465,408.3c8.1,8-0.9,4.2,2.2,23.7c0.9,5.9,5.8,12.7,6.8,22.1c0.7,6.5-2.7,14.4-2,23
								c0.5,6.9,5,14.1,5.5,22.5c0.4,7-8,16.6-2.9,22.9c7.7,9.4,4.6,33.1,4.9,41.2"/>
							<path class="st7" d="M333.4,428c0,0,5.5-29.4,3.8-34.2"/>
							<path class="st7" d="M476.2,417c-6.8,5.6-3.8,29.9-3.8,29.9"/>
						</g>
						<path class="st7" d="M293.4,446.8c0,0,8.8-7.5,18.5,0.2"/>
						<path class="st7" d="M471.9,440.1c0,0,15.1-6.6,24.2-8.1s21.1-2.1,22.7-3.9"/>
						<path class="st7" d="M472.6,466.9c8.5,2.6,54.6-12,54.8-11.6"/>
						<path class="st7" d="M305.9,403.1c0,0,25.9,7.4,28.1,17.7"/>
						<path class="st7" d="M333.4,442.3c0,0-13.8-5.1-21.5-7.3s-17.4-11.6-17.4-11.6"/>
						<path class="st7" d="M382.7,441.7c-2.9,4.2-9.5,9.8-12.3,19.4c-1.9,6.6,0.3,15.3-1.1,23.8c-0.7,4.3-5.9,11.5-6.7,22.7
							c-0.6,7.7,3.4,15.7,3.6,23.7c0.2,7.8-3.4,15.9-3.1,23.8c0.3,8,4.6,15.9,4.5,23.5c-0.2,10.4-4.6,17.5-5.1,23.3
							c-0.8,9.5,2.1,15.5,1.5,23.8c-0.4,5.8-4.7,12.8-4.5,23.5"/>
						<path class="st7" d="M430.1,441c-2.4,4.3-8.4,10.2-10,19.5c-1.1,6.3,2,14.1,1.6,22.1c-0.4,6.8-4.4,14.1-4.1,21.8
							c0.3,7.1,5.2,14.1,6.3,21.5c1.1,7.2-1.5,15.1-0.3,22.3c1.3,7.4,6.4,14.1,7.1,21.2c1,9.6-2.6,16.7-2.4,22.2
							c0.3,8.9,3.9,14.1,4.2,21.8c0.2,5.4-3.2,12.4-1.7,22.2"/>
						<path class="st7" d="M286.1,539.1c0,0,28.7,6,31.4-9.1"/>
					</g>
				</g>
			</g>
		</g>
	</g>
</g>
</svg>
