<?xml version="1.0" encoding="utf-8"?>
<!-- Generator: Adobe Illustrator 27.7.0, SVG Export Plug-In . SVG Version: 6.00 Build 0)  -->
<svg version="1.1" id="Layer_1" xmlns="http://www.w3.org/2000/svg" xmlns:xlink="http://www.w3.org/1999/xlink" x="0px" y="0px"
	 viewBox="0 0 545.1 545.1" style="enable-background:new 0 0 545.1 545.1;" xml:space="preserve">
<style type="text/css">
	.st0{clip-path:url(#SVGID_00000005259287051569948630000006946836291110759316_);}
	.st1{fill:url(#SVGID_00000096744210407075203470000000398164898314677921_);}
	.st2{fill:url(#SVGID_00000093173095592181686270000003896900206148655792_);}
	.st3{fill:url(#SVGID_00000088119895315958386520000003858684276981935031_);}
	.st4{fill:url(#SVGID_00000140731738024983803490000013732916789313719179_);}
	.st5{fill:#2D1FC3;}
	.st6{fill:#250B84;}
	.st7{fill:url(#SVGID_00000078014057865540619310000001679124582992038548_);}
	.st8{fill:#AE00A8;}
	.st9{fill:none;stroke:#000000;stroke-width:5;stroke-linecap:round;stroke-linejoin:round;}
	.st10{fill:#2D1FC3;stroke:#000000;stroke-width:5;stroke-linecap:round;stroke-linejoin:round;}
</style>
<g>
	<g id="Layer_2_00000049927100674549302940000010154135146027231914_">
		<g id="Layer_1-2">
			<g>
				<defs>
					<rect id="SVGID_1_" y="0" width="545.1" height="545.1"/>
				</defs>
				<clipPath id="SVGID_00000052811273955944294340000000591786860466621325_">
					<use xlink:href="#SVGID_1_"  style="overflow:visible;"/>
				</clipPath>
				<g style="clip-path:url(#SVGID_00000052811273955944294340000000591786860466621325_);">
					<g>
						<g>
							
								<linearGradient id="SVGID_00000160889304153289338850000012638382097616702094_" gradientUnits="userSpaceOnUse" x1="299.5" y1="76.0965" x2="516.3467" y2="76.0965" gradientTransform="matrix(1 0 0 -1 0 545.8898)">
								<stop  offset="0" style="stop-color:#00CEB4"/>
								<stop  offset="1" style="stop-color:#2D1FC3"/>
							</linearGradient>
							<path style="fill:url(#SVGID_00000160889304153289338850000012638382097616702094_);" d="M496.1,441.6
								c-21.2,14.1-24.3,9.8-24.7,8c0.7,5.6,6,49.4,7.4,77.3c1.5,29.8-8.1,64.8-8.1,64.8s-140.6,18-151-8.3
								c-10.4-26.3,2.6-84.5,11-127.4c-2.4,9.3-19.4-7.3-31.3-42.1c28.2-57.6,55.4-72.1,55.4-72.1s7.8,2.6,17.8,6.2
								c0.5-0.2,1-0.4,1.5-0.6c14.1-5.5,39.4-4.6,48.5-3.1c3.2,0.5,6.6,2,10.6,3.4c8,2.8,18.2,5.5,31.8,0.4
								c11.4,4.8,43.4,54.7,48.1,71.7C519.8,435.2,516.8,430.1,496.1,441.6L496.1,441.6z"/>
							
								<linearGradient id="SVGID_00000125574112713408233150000016583567719886502824_" gradientUnits="userSpaceOnUse" x1="463.87" y1="115.4022" x2="482.4483" y2="115.4022" gradientTransform="matrix(1 0 0 -1 0 545.8898)">
								<stop  offset="0" style="stop-color:#00CEB4"/>
								<stop  offset="1" style="stop-color:#2D1FC3"/>
							</linearGradient>
							<path style="fill:url(#SVGID_00000125574112713408233150000016583567719886502824_);" d="M463.9,394.6
								c9.3,17.7,13.4,31,15.7,44c1.1,6.1,1.9,12.2,2.6,18.6c2.1,17.8-10.1,4.4-10.1,4.4L463.9,394.6L463.9,394.6z"/>
							
								<linearGradient id="SVGID_00000003822840019381031670000014927731519009452942_" gradientUnits="userSpaceOnUse" x1="342.94" y1="114.4798" x2="322.4634" y2="114.4798" gradientTransform="matrix(1 0 0 -1 0 545.8898)">
								<stop  offset="0" style="stop-color:#00CEB4"/>
								<stop  offset="1" style="stop-color:#2D1FC3"/>
							</linearGradient>
							<path style="fill:url(#SVGID_00000003822840019381031670000014927731519009452942_);" d="M342.9,396.6
								c-1.8,7-15.5,65.9-14.9,69.7c-9.6-6.7-5.2-15.6,0.9-36.9C335,408.1,342.9,396.6,342.9,396.6L342.9,396.6z"/>
							
								<linearGradient id="SVGID_00000021807167309256249290000002955642186051292078_" gradientUnits="userSpaceOnUse" x1="434.9517" y1="180.3618" x2="443.4103" y2="165.7111" gradientTransform="matrix(1 0 0 -1 0 545.8898)">
								<stop  offset="0" style="stop-color:#00CEB4"/>
								<stop  offset="1" style="stop-color:#2D1FC3"/>
							</linearGradient>
							<path style="fill:url(#SVGID_00000021807167309256249290000002955642186051292078_);" d="M409.3,394.9
								c11.8-0.3,52.3-21,60.2-43.3c-4.8-4.6-1.6-6-7.3,0s-33.9,38.6-53.7,38.8C410.6,393.5,409.3,394.9,409.3,394.9L409.3,394.9z"
								/>
						</g>
						<g>
							<path class="st5" d="M326.2,479.1c-1.8,1.5-5.7-0.4-10.1-3.6c-7.9-5.7-17.8-15.6-21.3-18c-5.5-3.7-11.5-20-9-29
								c9.9,0.5,6.6-11.3,9-19.5c0.9-3.1,1.6-5.8,2.3-7.6c1.1-2.9,2.3-3.9,4.6-2c3.5,1.4,4.4,2.3,0.4,11c-0.8,2-1,4.3-0.8,6.8
								c1,9.8,9.5,23,19.7,35.6c0.6,0.8,1.3,1.6,1.9,2.4C329.8,459.6,329.4,462.7,326.2,479.1L326.2,479.1z"/>
							<path class="st5" d="M302.1,410.5c-0.8,2-1,4.3-0.8,6.8c-3.4-5.2-4.4-10.7-4.3-15.7c1.1-2.9,2.3-3.9,4.6-2
								C305.2,400.9,306.1,401.9,302.1,410.5L302.1,410.5z"/>
							<path class="st5" d="M512,469.8c-10.2,4.2-17.8,6.8-23.4,8.2c-9,2.3-13,1.6-14.9-0.2c-0.9-10.3-4.5-24.8,2.1-26.2
								c1.6-0.4,4.4-1.6,7.8-3.1c11.3-5.1,29.4-14.5,32.7-15.8c0.4-2.5-2.7-11.8-3-12.9c0.2,0.4,0.7,0.7,1.3,0.8
								c2.7,0.7,8.6-0.1,11.8,1.4c1.5,0.7,2.4,2,2.1,4.2c-1.2,8-6.6,16.8,2.3,20.7C536.7,453.3,538.3,458.6,512,469.8L512,469.8z"/>
							<path class="st5" d="M527.1,424.2c0,0-4.8,5.8-8.5,6.8c-1.8,0.5-3.3-4-3.9-10.3c2.7,0.7,8.6-0.1,11.8,1.4
								C526.8,423.4,527.1,424.2,527.1,424.2L527.1,424.2z"/>
							<path class="st6" d="M488.6,478c-9,2.3-13,1.6-14.9-0.2c-0.9-10.3-4.5-24.8,2.1-26.2c1.6-0.4,4.4-1.6,7.8-3.1
								C485,459.2,486.8,469.4,488.6,478z"/>
							<path class="st6" d="M326.2,479.1c-1.8,1.5-5.7-0.4-10.1-3.6c1.4-7.4,3.2-15.2,5-22.7c0.6,0.8,1.3,1.6,1.9,2.4
								C329.8,459.6,329.4,462.7,326.2,479.1L326.2,479.1z"/>
						</g>
						
							<linearGradient id="SVGID_00000132073720404333200920000009656083895218295428_" gradientUnits="userSpaceOnUse" x1="374.22" y1="189.4512" x2="433.38" y2="189.4512" gradientTransform="matrix(1 0 0 -1 0 545.8898)">
							<stop  offset="1.198743e-03" style="stop-color:#0086AA"/>
							<stop  offset="1" style="stop-color:#0A006A"/>
						</linearGradient>
						<path style="fill:url(#SVGID_00000132073720404333200920000009656083895218295428_);" d="M433.4,347.6
							c-3.8,6.9-7.1,12.6-8.9,15.1c-6,8.6-35,9.7-39.5,1.4c-2.2-4.1-6.5-9.3-10.7-16.7c14.1-5.5,39.4-4.6,48.5-3.1
							C425.9,344.8,429.4,346.2,433.4,347.6z"/>
						<g>
							<path class="st5" d="M481.2,351.8l-1.5,11c0,0-12.7-22.1-17.5-11.1c-9.9,10.8-34.8,36-55.6,39.2c-1.5,0.2-3,0.3-4.4,0.3
								c0,0,0.4-0.5,1.2-1.5c5.1-6.6,25.5-33,27.1-35.4c1.9-2.8,5.9-6.1-5.3-9.9s-49.1-1.6-48.7,4c4.4,8.9,21,38.8,24,40.8
								c2.2,1.5-1.8,0.7-6.4-1.2c-1.6-0.7-3.3-1.5-4.9-2.4c-5.7-3.4-24.2-11.1-37.4-40.1c-6.1,3.7-13.7,12.8-13.7,12.8
								s-4-13.6,6.3-20.6c4.5-3.7,9.7-7,15.6-9.7c16-7.3,37-10.6,62.1-8.5c5.7,0.5,11.1,1.2,16.1,2.1c8,1.5,15,3.6,21,6.2
								C472.2,333.4,480.1,341.5,481.2,351.8L481.2,351.8z"/>
							<path class="st8" d="M481.2,351.8l-1.5,11c0,0-12.7-22.1-17.5-11.1c-0.8,0.8-1.6,1.8-2.6,2.8c-0.2,0.2-0.4,0.4-0.6,0.6
								c-0.8,0.8-1.6,1.7-2.5,2.6c-0.4,0.4-0.8,0.8-1.2,1.2c-0.5,0.5-1,1-1.6,1.6c-0.5,0.5-1,1-1.5,1.4c-4.4,4.3-9.5,8.9-15.1,13.2
								c-0.3,0.2-0.5,0.4-0.8,0.6c-0.7,0.5-1.4,1-2.1,1.6c-0.7,0.5-1.4,1-2.1,1.5c-1.6,1.1-3.2,2.2-4.8,3.2c-0.5,0.4-1.1,0.7-1.6,1
								c-0.4,0.2-0.8,0.5-1.1,0.7c-0.7,0.4-1.4,0.8-2,1.1c-1.7,0.9-3.4,1.8-5.1,2.5c-0.3,0.1-0.7,0.3-1,0.4c-0.5,0.2-1,0.4-1.6,0.6
								c-0.4,0.1-0.7,0.3-1.1,0.4c-0.2,0.1-0.4,0.1-0.6,0.2c-0.3,0.1-0.5,0.2-0.8,0.3c-0.2,0.1-0.5,0.2-0.8,0.2
								c-0.3,0.1-0.7,0.2-1,0.3c-0.7,0.2-1.5,0.4-2.2,0.5c-0.5,0.1-1,0.2-1.6,0.3c-0.1,0-0.3,0-0.4,0.1h0c-1.5,0.2-3,0.4-4.4,0.3
								c0,0,0.4-0.5,1.2-1.5c5-2.5,9.7-5.6,14.2-9.1c18.8-14.6,32.5-36,41.7-52.8C472.2,333.4,480.1,341.5,481.2,351.8L481.2,351.8z
								"/>
							<path class="st8" d="M389.3,385.4c-5.7-3.4-24.2-11.1-37.4-40.1c-6.1,3.7-13.7,12.8-13.7,12.8s-4-13.6,6.3-20.6
								c4.5-3.7,9.7-7,15.6-9.7c1.4,7,3,15,7.7,22c7.6,11.5,17.3,27.1,26.4,37.9C392.5,387.1,390.8,386.3,389.3,385.4L389.3,385.4z"
								/>
							<path class="st6" d="M457.2,329.2c-9.1,16.8-20.8,36.7-39.6,51.3c30.3-33.8,33.1-44.2,25.1-56.1
								C450.6,325.9,451.2,326.6,457.2,329.2z"/>
						</g>
						<g>
							<path class="st9" d="M343.5,394.6c-8.6,31.4-28.5,127.8-25,156.2"/>
							<path class="st9" d="M463.9,394.6c6.3,30.7,15.8,140,13.3,168.2"/>
							<path class="st9" d="M516.8,430.1c-9.8-31.7-27-59.9-51.6-82"/>
							<path class="st9" d="M471.5,453.7c0,0,52.2-22.4,55.1-30.9c0,0-3.1-1-12.2,0"/>
							<path class="st9" d="M526.6,422.8c0,0,3.1,7.4-0.6,15.7c-1,2.3-0.2,5,1.9,6.3c3.6,2.4,8.1,6.1,7,9.6
								c-1.9,5.7-34.7,22.4-60.9,25.9"/>
							<path class="st9" d="M303.5,401.1c0,0-6.2-6.7-6,1.4s9,44.8,31.5,57.7"/>
							<path class="st9" d="M300.2,416.7c1.5-11,25.8-54,51.6-72.4"/>
							<path class="st9" d="M297.5,402.6c-2.9,3.2-6.5,15.5-4.9,24.2c0,0-15,0.7-5.2,19.1c5.5,10.4,18.9,27.4,37.8,34.8"/>
							<path class="st9" d="M350.8,341.1c0,0,10.2,35.7,51.4,50C384,367.3,374,342.8,374,342.8"/>
							<path class="st9" d="M469.2,342.9c0,0-34,47-67,48.2c19.4-22.3,33.7-45.1,33.7-45.1"/>
							<path class="st9" d="M338.4,356c0,0-2.3-11.7,6-18.5c54.5-35.9,117.2-8.8,128.3-0.4c11.1,8.5,7,25.5,7,25.5"/>
							<path class="st9" d="M386.6,367.7c0,0,19.1,4.8,35.4-1.6"/>
							<path class="st10" d="M402.2,391.1c0.1,15.9,3.5,18,13.4,25c9.9,6.9,12.5,10.2,12.5,10.2s5.3-13.3-9.9-20.5
								C403,398.7,402.2,391.1,402.2,391.1L402.2,391.1z"/>
							<path class="st10" d="M400.5,394.6c-0.6-17.2-5.3,13.3-31,26.5C369.4,421.1,401.4,422.5,400.5,394.6z"/>
							<path class="st9" d="M294.8,435c5,11,7.9,21.8,24.9,31.5"/>
							<path class="st9" d="M481.2,469.7c18.9-5.7,38.4-19,38.4-19"/>
							<path class="st9" d="M434,348.9c-25.9-14.4-58.3-2.3-58.3-2.3"/>
							<path class="st9" d="M409.3,387.5c22.2-18.1,44.5-39.5,47.9-58.3"/>
							<path class="st9" d="M359.5,329.2c0,0,13.6,47,42.6,61.9"/>
							<g>
								<path class="st10" d="M399.2,380.2c-8.8,3.7-6.3,22.3,0,21.8c6.3-0.5,6.9,0,8.9-3.8c2-3.8,4-15.8,1.7-16.6
									S399.2,380.2,399.2,380.2L399.2,380.2z"/>
								<path class="st6" d="M408.1,398.1c-1.6,3.2-2.4,3.3-6.2,3.6c5.5-11.9,4.5-15.8,2.4-21.1c2.5,0.2,3.9,0.3,5.5,0.9
									C412.1,382.3,410.1,394.3,408.1,398.1L408.1,398.1z"/>
								<path class="st9" d="M399.2,380.2c-8.8,3.7-6.3,22.3,0,21.8c6.3-0.5,6.9,0,8.9-3.8c2-3.8,4-15.8,1.7-16.6
									S399.2,380.2,399.2,380.2L399.2,380.2z"/>
							</g>
							<path class="st9" d="M333.1,439.2c3.7-16.1,1.3-37.9,1.3-37.9"/>
						</g>
						<path class="st9" d="M468,421.9c4-9.8,3.6-21.8,3.6-21.8"/>
					</g>
				</g>
			</g>
		</g>
	</g>
</g>
</svg>
