<?xml version="1.0" encoding="utf-8"?>
<!-- Generator: Adobe Illustrator 27.7.0, SVG Export Plug-In . SVG Version: 6.00 Build 0)  -->
<svg version="1.1" id="Layer_1" xmlns="http://www.w3.org/2000/svg" xmlns:xlink="http://www.w3.org/1999/xlink" x="0px" y="0px"
	 viewBox="0 0 545.1 545.1" style="enable-background:new 0 0 545.1 545.1;" xml:space="preserve">
<style type="text/css">
	.st0{clip-path:url(#SVGID_00000057135742435878132130000014467416475815235226_);}
	
		.st1{fill:url(#SVGID_00000004536151770535854360000001150302136025996425_);stroke:#000000;stroke-width:5;stroke-linecap:round;stroke-linejoin:round;}
	.st2{fill:url(#SVGID_00000083066717746268043120000010615611068953815211_);}
	.st3{fill:url(#SVGID_00000049904937612580461270000010731208033717308817_);}
	.st4{fill:url(#SVGID_00000100354615928706531700000005606134431117773447_);}
	.st5{fill:none;stroke:#000000;stroke-width:5;stroke-linecap:round;stroke-linejoin:round;}
	
		.st6{fill:url(#SVGID_00000091015962160576891670000012289783447683047359_);stroke:#000000;stroke-width:5;stroke-linecap:round;stroke-linejoin:round;}
	
		.st7{fill:url(#SVGID_00000036222496394204603970000001532888575527827604_);stroke:#000000;stroke-width:5;stroke-linecap:round;stroke-linejoin:round;}
	.st8{fill:#00C4ED;stroke:#000000;stroke-width:5;stroke-linecap:round;stroke-linejoin:round;}
	.st9{fill:#00C4ED;stroke:#000000;stroke-width:5;stroke-miterlimit:10;}
</style>
<g>
	<g id="Layer_2_00000155113889225918573460000017079763219395018670_">
		<g id="Layer_1-2">
			<g>
				<defs>
					<rect id="SVGID_1_" y="0" width="545.1" height="545.1"/>
				</defs>
				<clipPath id="SVGID_00000157299238412449389730000003638108204964966577_">
					<use xlink:href="#SVGID_1_"  style="overflow:visible;"/>
				</clipPath>
				<g style="clip-path:url(#SVGID_00000157299238412449389730000003638108204964966577_);">
					<g>
						<g>
							
								<linearGradient id="SVGID_00000027563209861232269280000007696349967421085616_" gradientUnits="userSpaceOnUse" x1="284.531" y1="64.8126" x2="537.3088" y2="64.8126" gradientTransform="matrix(1 0 0 -1 0 545.8898)">
								<stop  offset="0" style="stop-color:#00C4ED"/>
								<stop  offset="1" style="stop-color:#301ECA"/>
							</linearGradient>
							
								<path style="fill:url(#SVGID_00000027563209861232269280000007696349967421085616_);stroke:#000000;stroke-width:5;stroke-linecap:round;stroke-linejoin:round;" d="
								M528.8,492.8l-1.5-9.8c0,0-9.5-9.8-52,1.4c2.3,46.7,1.7,94.9-0.4,130.8C463.7,661.8,322.1,661,314.7,651
								c-7.3-9.7,3.2-87.3,10.6-168.1c-6.3-13.7-28.3-24.2-28.3-24.2l-5,6.2c-10.3-2.9-12.7-28.6,11.3-70.8
								c15.2-26.8,34.9-42.5,47.2-50.3c-23-16.6,6-33.8,41-37.5c4.5-0.5,9-0.7,13.5-0.7c58.8,0,76.6,27.5,59.3,39.5h0
								c9.4,5.5,21.8,14.5,34.5,28.8c26.4,29.7,35.9,71.4,38,92.1C538.8,486.7,534.6,490.8,528.8,492.8z"/>
							
								<linearGradient id="SVGID_00000182518940095852799330000016864377808020676496_" gradientUnits="userSpaceOnUse" x1="331.545" y1="62.9898" x2="331.545" y2="150.5128" gradientTransform="matrix(1 0 0 -1 0 545.8898)">
								<stop  offset="0" style="stop-color:#00C4ED"/>
								<stop  offset="1" style="stop-color:#301ECA"/>
							</linearGradient>
							<path style="fill:url(#SVGID_00000182518940095852799330000016864377808020676496_);" d="M317.8,473.3c0,0,19-83.2,27.6-77.7
								c0,0-11.5,31.7-20.1,87.3C324.3,479.9,317.8,473.3,317.8,473.3L317.8,473.3z"/>
							
								<linearGradient id="SVGID_00000068640982702692826520000000498360894964747696_" gradientUnits="userSpaceOnUse" x1="500.7944" y1="53.0798" x2="500.7944" y2="200.7498" gradientTransform="matrix(1 0 0 -1 0 545.8898)">
								<stop  offset="0" style="stop-color:#00C4ED"/>
								<stop  offset="1" style="stop-color:#301ECA"/>
							</linearGradient>
							<path style="fill:url(#SVGID_00000068640982702692826520000000498360894964747696_);" d="M528.8,492.8l-1.5-9.8
								c-5.3-89.2-62.1-137.1-63-137.9c9.4,5.5,21.8,14.5,34.5,28.8c26.4,29.7,35.9,71.4,38,92.1
								C538.8,486.7,534.6,490.8,528.8,492.8L528.8,492.8z"/>
							
								<linearGradient id="SVGID_00000122682524272034905970000007082769610538864033_" gradientUnits="userSpaceOnUse" x1="379.83" y1="204.9348" x2="429.11" y2="204.9348" gradientTransform="matrix(1 0 0 -1 0 545.8898)">
								<stop  offset="0" style="stop-color:#009CBF"/>
								<stop  offset="1" style="stop-color:#000C6A"/>
							</linearGradient>
							<path style="fill:url(#SVGID_00000122682524272034905970000007082769610538864033_);" d="M379.8,341.7
								c0,0,26.3-11.7,49.3,0.8C405.2,344.6,400.5,347.8,379.8,341.7z"/>
							<path class="st5" d="M474.9,615.1c1.9-33,2.6-76.5,0.9-119.6c-0.3-7.1-1.8-48.2-11.3-84.2"/>
							<path class="st5" d="M344.7,397.7c-7,16.1-14.8,57-14.8,57c-3,18-5.4,36.1-7.2,54.3c-7,70.8-14.6,133.4-8.1,142.1"/>
							
								<linearGradient id="SVGID_00000010277130183580714020000017384890510947145609_" gradientUnits="userSpaceOnUse" x1="470.3108" y1="125.3498" x2="472.6808" y2="125.3498" gradientTransform="matrix(1 0 0 -1 0 545.8898)">
								<stop  offset="0" style="stop-color:#FF00FF"/>
								<stop  offset="1" style="stop-color:#0047FF"/>
							</linearGradient>
							
								<path style="fill:url(#SVGID_00000010277130183580714020000017384890510947145609_);stroke:#000000;stroke-width:5;stroke-linecap:round;stroke-linejoin:round;" d="
								M471.2,445.4c0,0-2.8-24.9,1.5-49.7"/>
							<path class="st5" d="M368.8,339.4c17.6,9.2,56.6,9,78.6-2.1"/>
							<path class="st5" d="M376.3,342.4c10.6-8.4,44.7-6.6,58.7-0.4"/>
							<path class="st5" d="M401.7,346c0,0-14.7,119.9-14.5,215.2c0.1,35.8,0,93.8,0,93.8"/>
							<path class="st5" d="M536.8,466c-2.1-20.6-11.6-62.4-38-92.1c-12.7-14.3-25.1-23.3-34.5-28.8c17.2-12-0.5-39.5-59.3-39.5
								c-40.3,0-80.5,19.4-54.5,38.2c-12.3,7.9-32,23.6-47.2,50.3c-24,42.1-21.6,67.9-11.3,70.8l5-6.2c0,0,22,10.5,28.3,24.2
								c-7.4,80.8-17.9,158.5-10.6,168.2c7.4,9.9,149,10.7,160.2-35.9c2.1-35.9,2.7-84,0.4-130.8c42.6-11.2,52.1-1.4,52.1-1.4
								l1.5,9.8C534.6,490.8,538.8,486.7,536.8,466L536.8,466z"/>
						</g>
						
							<linearGradient id="SVGID_00000034771530443722284600000001472671155771095955_" gradientUnits="userSpaceOnUse" x1="454.68" y1="125.95" x2="410.8116" y2="125.95" gradientTransform="matrix(1 0 0 -1 0 545.8898)">
							<stop  offset="0" style="stop-color:#00C4ED"/>
							<stop  offset="1" style="stop-color:#301ECA"/>
						</linearGradient>
						
							<path style="fill:url(#SVGID_00000034771530443722284600000001472671155771095955_);stroke:#000000;stroke-width:5;stroke-linecap:round;stroke-linejoin:round;" d="
							M411,403.7l-0.2,23.7c-0.4,4.7,3.5,8.7,8.4,8.8c7.6,0,19.5,0,26.8,0c4.5,0,8.1-3.5,8.1-7.8l0.5-24.6L411,403.7L411,403.7z"/>
						<path class="st8" d="M449.7,400.6c4,0,6.4,3.3,4.4,5.9c-4.5,5.7-12.3,13.4-21.2,13.4s-16.7-7.7-21.2-13.4
							c-2-2.6,0.4-5.9,4.4-5.9H449.7L449.7,400.6z"/>
						<path class="st9" d="M400.1,372.2l-3.4-0.5c-3.7-0.6-6-4.5-4.7-8l2.7-7.2c1-2.7,3.7-4.3,6.5-3.8l0,0c2.7,0.4,4.8,2.6,5,5.3
							l0.8,7.7C407.4,369.6,404,372.8,400.1,372.2L400.1,372.2z"/>
						<path class="st5" d="M432.9,481.1c0,0,18.4,16.1,31.6,17.1"/>
						<path class="st5" d="M351.5,475.7c0,0-9.1,14.6-20.7,17.1"/>
					</g>
				</g>
			</g>
		</g>
	</g>
</g>
</svg>
