<?xml version="1.0" encoding="UTF-8"?>
<svg xmlns="http://www.w3.org/2000/svg" xmlns:xlink="http://www.w3.org/1999/xlink" viewBox="0 0 545.14 545.14">
  <defs>
    <style>
      .cls-1, .cls-2, .cls-3, .cls-4 {
        fill: none;
      }

      .cls-5 {
        fill: url(#linear-gradient);
      }

      .cls-6 {
        fill: #ff001c;
      }

      .cls-6, .cls-7, .cls-3 {
        stroke: #000;
        stroke-linecap: round;
        stroke-linejoin: round;
        stroke-width: 5px;
      }

      .cls-2 {
        isolation: isolate;
      }

      .cls-7 {
        fill: url(#linear-gradient-3);
      }

      .cls-8 {
        fill: url(#linear-gradient-2);
        mix-blend-mode: multiply;
      }

      .cls-4 {
        clip-path: url(#clippath);
      }
    </style>
    <clipPath id="clippath">
      <rect class="cls-1" width="545.14" height="545.14"/>
    </clipPath>
    <linearGradient id="linear-gradient" x1="319.45" y1="452.94" x2="476.47" y2="452.94" gradientUnits="userSpaceOnUse">
      <stop offset="0" stop-color="#ff0028"/>
      <stop offset="1" stop-color="#ffab00"/>
    </linearGradient>
    <linearGradient id="linear-gradient-2" x1="431.97" y1="375.43" x2="464.68" y2="375.43" xlink:href="#linear-gradient"/>
    <linearGradient id="linear-gradient-3" x1="-124.78" y1="566.41" x2="-148.62" y2="552.65" gradientTransform="translate(771.21 -84.96) rotate(15.55)" gradientUnits="userSpaceOnUse">
      <stop offset="0" stop-color="#eb00a3"/>
      <stop offset="1" stop-color="#ff5600"/>
    </linearGradient>
  </defs>
  <g class="cls-2">
    <g id="Layer_2" data-name="Layer 2">
      <g id="Layer_1-2" data-name="Layer 1">
        <g class="cls-4">
          <g>
            <g>
              <path class="cls-5" d="m476.41,551.27s-3.52,3.93-7.67,8.48c-5.62,6.15-12.38,13.44-13.16,13.7-1.36.45-129.47,10.41-134.9-9.05-5.43-19.47,8.27-103.51,18.39-147.5,22.47-13.04,27.62-54.13,33.17-81.87,1.74-1.24,3.22-2.23,4.47-2.98,8.17-4.93,6.81-.05,6.02,7.21-6.76,25.66-8.5,47.67,5.19,53.16,53.75,8.86,36.82-62.92,36.82-62.92,0,0,1.55-.19,4.73.65.83.22,1.77.51,2.82.89,1.51.54,3.26,1.28,5.24,2.26-2.67,38.26,10.36,63.6,23.94,83.07,1.15.65,2.22,1.87,3.21,3.58,10.66,18.4,12.14,93.62,11.73,131.32Z"/>
              <path class="cls-8" d="m464.68,419.95c-27.87-7.53-31.3-59.11-32.39-88.91.83.22-1.05-.38,0,0,1.51.54,3.26,1.28,5.24,2.26-2.67,38.26,10.36,63.6,23.94,83.07,1.15.65,2.22,1.87,3.21,3.58Z"/>
              <path class="cls-3" d="m474.84,615.26c1.94-33.04,2.58-76.47.88-119.61-.28-7.1-3.53-58.31-12.99-94.36"/>
              <path class="cls-3" d="m344.73,397.81c-7,16.11-14.79,57-14.79,57-2.99,18.01-5.38,36.12-7.18,54.29-6.98,70.78-14.57,133.45-8.1,142.07"/>
              <path class="cls-3" d="m467,420.47c-27.24-14.92-29.47-68.86-29.47-87.17,0,0-7.95-3.8-12.78-3.8,1.04,3.8,14.19,64.21-26.79,62.92-31.34-.99-20.69-35.67-14.32-61.54,0,0-4.84-.35-11.4,4.15-6.91,36.62-13.82,72.89-33.16,81.87"/>
              <path class="cls-3" d="m466.45,417.63s-.44-12.82,1.98-23.18"/>
              <path class="cls-3" d="m337.69,420.1c4.48-17.43,4.48-31.67,4.48-31.67"/>
              <path class="cls-7" d="m486.45,416.29c-9.89-10.7-19.12-3.26-5.33,11.82,3.8,4.15,9.13,6.15,10.92,6.13,9.92-10.46,11.12-45.33-5.59-17.95Z"/>
            </g>
            <g>
              <path class="cls-6" d="m399.19,342.72c9.26,4.34,10.93,5.4,10.93,5.4"/>
              <path class="cls-6" d="m398.88,347.38c9.62-3.48,11.55-3.91,11.55-3.91"/>
            </g>
          </g>
        </g>
      </g>
    </g>
  </g>
</svg>